<svg width="37" height="37" xmlns="http://www.w3.org/2000/svg">

    <symbol id="bomb1">
        <title>Bomb1</title>
        <path fill="none" stroke="#7f3f00" stroke-width="NaN" fill-opacity="null" id="svg_49" d="m17.59884,9.68725c0,-0.03798 0.00472,-0.07611 0,-0.15192c-0.01903,-0.30561 -0.07596,-0.34181 -0.07596,-0.49373c0,-0.03798 0,-0.11394 0,-0.30384c0,-0.03798 0,-0.07596 0,-0.26585c0,-0.03798 0,-0.07596 0,-0.30384c0,-0.03798 -0.00527,-0.07633 0,-0.11394c0.03835,-0.27382 0.06143,-0.30673 0.07596,-0.34181c0.02055,-0.04963 0.07596,-0.26586 0.07596,-0.30384c0,-0.03798 0.0569,-0.0736 0.07596,-0.30384c0.00313,-0.03785 0.0287,-0.03855 0.03798,-0.11394c0.01913,-0.15542 0.01112,-0.20102 0.03798,-0.22787c0.02685,-0.02686 0.06142,-0.19279 0.07596,-0.22788c0.02055,-0.04962 0.05672,-0.07135 0.07595,-0.1899c0.00609,-0.03749 -0.00872,-0.07697 0,-0.11393c0.01952,-0.08266 0.0319,-0.11443 0.03798,-0.15192c0.01924,-0.11855 0.03798,-0.15192 0.03798,-0.1899c0,-0.03798 0.04911,-0.0491 0.07596,-0.07596c0.02686,-0.02686 0.01743,-0.06432 0.03798,-0.11394c0.01454,-0.03509 0.00567,-0.05599 0.03798,-0.07596c0.07224,-0.04464 0.02698,-0.11557 0.03798,-0.15192c0.03968,-0.13106 0.08708,-0.12506 0.11394,-0.15191c0.02685,-0.02686 0.02634,-0.13137 0.07596,-0.15192c0.03509,-0.01453 0.07425,-0.02086 0.11394,-0.15192c0.011,-0.03635 0.00567,-0.05599 0.03798,-0.07596c0.14448,-0.08929 0.13136,-0.17825 0.15191,-0.22787c0.01454,-0.03509 0.04911,-0.08709 0.07596,-0.11394c0.02686,-0.02686 0.07426,-0.05884 0.11394,-0.1899c0.01101,-0.03635 -0.03054,-0.1006 0.11394,-0.1899c0.03231,-0.01996 0.06143,-0.04087 0.07596,-0.07596c0.04111,-0.09924 0.08708,-0.12506 0.11394,-0.15192c0.02685,-0.02685 0.11394,-0.07595 0.15191,-0.11393c0.03799,-0.03798 0.14028,-0.16935 0.1899,-0.1899c0.03509,-0.01454 0.02634,-0.05541 0.07596,-0.07596c0.03509,-0.01453 0.04087,-0.02345 0.07596,-0.03798c0.09925,-0.04111 0.11683,-0.0994 0.15192,-0.11394c0.04962,-0.02055 0.0491,-0.0491 0.07596,-0.07596c0.02685,-0.02685 0.06926,-0.05644 0.15192,-0.07596c0.03696,-0.00872 0.0491,-0.01112 0.07595,-0.03798c0.05372,-0.05371 0.11684,-0.02344 0.15192,-0.03798c0.04962,-0.02055 0.15192,-0.07595 0.1899,-0.07595c0.03798,0 0.07698,-0.02926 0.11394,-0.03798c0.08265,-0.01952 0.10229,-0.05541 0.15192,-0.07596c0.03509,-0.01454 0.06431,-0.01743 0.11394,-0.03798c0.03508,-0.01454 0.11043,-0.05683 0.26585,-0.07596c0.0377,-0.00464 0.07314,-0.05688 0.26586,-0.07596c0.03779,-0.00374 0.09842,0.02975 0.30383,-0.07596c0.04776,-0.02458 0.07625,-0.03334 0.11394,-0.03798c0.15542,-0.01913 0.1899,-0.03798 0.22788,-0.03798c0.03798,0 0.22788,-0.03798 0.26586,-0.03798c0.03798,0 0.03798,-0.03798 0.22787,-0.03798c0.03798,0 0.11112,-0.01889 0.30384,-0.03798c0.03779,-0.00374 0.07596,0 0.11394,0c0.03798,0 0.15191,0 0.1899,0c0.03797,0 0.07595,0 0.18989,0c0.03798,0 0.07596,0 0.11394,0c0.03798,0 0.07596,0 0.11394,0c0.03798,0 0.07596,0 0.11394,0c0.07596,0 0.11394,0 0.15192,0c0.03797,0 0.07134,0.01874 0.18989,0.03798c0.03749,0.00609 0.07596,0 0.11394,0c0.03798,0 0.11394,0.03798 0.15192,0.03798c0.03798,0 0.07596,0 0.11394,0c0.03798,0 0.11394,0.03798 0.15192,0.03798c0.03798,0 0.06658,0.01264 0.11393,0.03798c0.17075,0.09138 0.27699,0.01113 0.30384,0.03798c0.02686,0.02686 0.03798,0.03798 0.07596,0.03798c0.03798,0 0.03826,0.03334 0.07596,0.03798c0.15542,0.01913 0.16304,0.0491 0.1899,0.07596c0.02685,0.02685 0.07134,0.01874 0.18989,0.03798c0.03749,0.00608 0.03563,0.0569 0.26586,0.07596c0.03785,0.00313 0.0491,0.01112 0.07596,0.03798c0.02686,0.02685 0.12506,0.01112 0.15192,0.03798c0.02685,0.02685 0.06926,0.01846 0.15192,0.03798c0.03696,0.00872 0.05599,0.00567 0.07595,0.03798c0.04465,0.07224 0.12507,0.01112 0.15192,0.03797c0.02686,0.02686 0.0491,0.01113 0.07596,0.03798c0.02686,0.02686 0.0491,0.01113 0.07596,0.03798c0.02686,0.02686 0.01801,0.04366 0.03798,0.07596c0.04465,0.07224 0.11683,0.02345 0.15192,0.03798c0.04962,0.02056 0.08708,0.04911 0.11394,0.07596c0.02685,0.02686 0.04087,0.02345 0.07596,0.03798c0.04962,0.02056 0.0491,0.0491 0.07595,0.07596c0.02686,0.02686 0.04911,0.01112 0.07596,0.03798c0.02686,0.02685 0.03798,0.03798 0.07596,0.03798c0.03798,0 0.08708,0.01112 0.11394,0.03798c0.02686,0.02685 0.04087,0.02344 0.07596,0.03798c0.04962,0.02055 0.0491,0.0491 0.07596,0.07596c0.02686,0.02685 0.12506,0.0491 0.15192,0.07596c0.02685,0.02685 0.01112,0.0491 0.03798,0.07595c0.02685,0.02686 0.0491,0.01113 0.07596,0.03798c0.02685,0.02686 0.0554,0.02634 0.07595,0.07596c0.01454,0.03509 0.01113,0.04911 0.03798,0.07596c0.02686,0.02686 0.04911,0.01113 0.07596,0.03798c0.02686,0.02686 0.01113,0.04911 0.03798,0.07596c0.02686,0.02686 0.01113,0.0491 0.03798,0.07596c0.02686,0.02686 0.03798,0.03798 0.07596,0.07596c0.03798,0.03798 0.0491,0.0491 0.07596,0.07596c0.02686,0.02685 0.00289,0.06142 0.03798,0.07596c0.04962,0.02055 0.06142,0.04087 0.07596,0.07596c0.02055,0.04962 0.0491,0.08708 0.07596,0.11393c0.02685,0.02686 0.02344,0.04087 0.03798,0.07596c0.02055,0.04963 0.0491,0.08709 0.07595,0.11394c0.02686,0.02686 0.01113,0.04911 0.03799,0.07596c0.02685,0.02686 0.0554,0.02634 0.07595,0.07596c0.01454,0.03509 0.03798,0.03798 0.03798,0.07596c0,0.03798 0.01113,0.0491 0.03798,0.07596c0.02686,0.02685 0.02345,0.04087 0.03798,0.07596c0.02056,0.04962 0.04911,0.0491 0.07596,0.07596c0.02686,0.02685 0.01743,0.06431 0.03798,0.11393c0.01453,0.03509 0.03798,0.03798 0.03798,0.07596c0,0.03798 0.03798,0.03798 0.03798,0.07596c0,0.03798 0.01112,0.04911 0.03798,0.07596c0.02686,0.02686 0,0.07596 0,0.11394c0,0.03798 0.01112,0.0491 0.03798,0.07596c0.02685,0.02685 -0.02686,0.08708 0,0.11394c0.02685,0.02685 0.01112,0.08708 0.03798,0.11394c0.02685,0.02685 0.03798,0.03798 0.03798,0.07595c0,0.03798 0.01742,0.06432 0.03798,0.11394c0.01453,0.03509 0,0.07596 0,0.11394c0,0.03798 0.03798,0.03798 0.03798,0.11394c0,0.03798 0.01112,0.0491 0.03798,0.07596c0.05371,0.05371 -0.02686,0.12506 0,0.15192c0.02685,0.02685 0.0491,0.0491 0.07595,0.07596c0.02686,0.02685 0.03486,0.05267 0.07596,0.15191c0.01454,0.03509 0.01113,0.04911 0.03798,0.07596c0.02686,0.02686 -0.02685,0.08709 0,0.11394c0.02686,0.02686 0.03798,0.03798 0.03798,0.11394c0,0.03798 0.02698,0.03961 0.03798,0.07596c0.03968,0.13106 0.06143,0.15481 0.07596,0.1899c0.02056,0.04962 0.07596,0.07596 0.07596,0.11393c0,0.03798 0.0491,0.16305 0.07596,0.1899c0.02686,0.02686 0.02345,0.04087 0.03798,0.07596c0.02055,0.04962 0.0554,0.06432 0.07596,0.11394c0.01453,0.03509 0.03798,0.03798 0.03798,0.07596c0,0.03798 0.01112,0.0491 0.03798,0.07596c0.02685,0.02685 0.03798,0.03798 0.03798,0.07596c0,0.03798 0.0491,0.12506 0.07596,0.15191c0.02685,0.02686 0.21214,0.13619 0.26585,0.1899c0.02686,0.02686 0.23077,0.21334 0.26586,0.22788c0.04962,0.02055 0.05211,0.0526 0.1899,0.15192c0.04357,0.0314 0.04772,0.09186 0.22787,0.15191c0.03603,0.01201 0.039,0.02926 0.07596,0.03798c0.08265,0.01952 0.08709,0.04911 0.11394,0.07596c0.02686,0.02686 0.07596,0.03798 0.11394,0.03798c0.03798,0 0.03798,0.03798 0.07596,0.03798c0.03798,0 0.06431,0.01743 0.11394,0.03798c0.03509,0.01454 0.07596,0 0.11394,0c0.03797,0 0.06719,0.01152 0.11393,0.03798c0.13627,0.07715 0.1899,0.03798 0.22788,0.03798c0.07596,0 0.11394,0 0.15192,0c0.03798,0 0.03798,0.03798 0.07596,0.03798c0.07596,0 0.11394,0 0.15192,0c0.03798,0 0.07595,0 0.11393,0c0.03798,0 0.07596,0 0.11394,0c0.07596,0 0.11394,0 0.15192,0c0.07596,0 0.11394,0 0.15192,0c0.07596,0 0.11394,0 0.15192,0l0.03798,0"/>
        <ellipse fill="#000000" stroke="#000000" stroke-width="NaN" cx="17.71278" cy="21.93564" id="svg_47" rx="11.73566" ry="11.83061"/>
        <path fill="none" stroke="#e51902" stroke-width="NaN" fill-opacity="null" id="svg_69" d="m32.18297,9.30745c0,-0.03798 0.05406,-0.01626 0.26586,-0.1899c0.04154,-0.03405 0.60563,-0.41993 0.64565,-0.45575c0.36241,-0.32437 0.41777,-0.34181 0.49373,-0.41777c0.26586,-0.26585 0.21817,-0.40717 0.64565,-0.56969c0.0355,-0.0135 0.26586,-0.1899 0.30384,-0.22788c0.03798,-0.03798 0.16304,-0.08708 0.1899,-0.11394c0.02686,-0.02686 0,0 0,0.03798c0,0.15192 0.03508,0.79768 0.03798,0.83555c0.03809,0.49809 0.18891,0.55124 0.26586,1.02545c0.00608,0.03749 0.13934,0.38194 0.15192,0.41777c0.0805,0.22948 0.1882,0.21075 0.22788,0.34181c0.01101,0.03635 0.01112,0.08708 0.03798,0.11394c0.02686,0.02686 0.03798,0.03798 0,0.03798c-0.03798,0 -0.15192,0 -0.1899,0c-0.15192,0 -0.18529,0.01874 -0.30384,0.03798c-0.03749,0.00608 -0.20102,0.01112 -0.22788,0.03798c-0.02686,0.02686 -0.08708,0.0491 -0.11394,0.07596c-0.02686,0.02686 -0.01112,0.0491 -0.03798,0.07596c-0.02686,0.02686 -0.0491,0.01112 -0.07596,0.03798c-0.02686,0.02686 -0.0491,0.01112 -0.07596,0.03798c-0.02686,0.02686 -0.07596,0.07596 -0.07596,0.11394c0,0.03798 -0.03798,0.03798 -0.03798,0.07596c0,0.11394 -0.00677,0.15253 0,0.1899c0.0579,0.31929 0.10786,0.34231 0.11394,0.3798c0.05771,0.35565 0.12607,0.40867 0.15192,0.45575c0.1685,0.30695 0.09569,0.34329 0.11394,0.45575c0.05771,0.35565 0.10785,0.38029 0.11394,0.41777c0.03848,0.2371 0.10676,0.26654 0.11394,0.30384c0.03868,0.20083 0.09338,0.21623 0.11394,0.26586c0.01453,0.03509 -0.02686,0.08708 0,0.11394c0.02686,0.02686 0.03798,0.03798 0,0.03798c-0.03798,0 -0.07697,-0.02925 -0.11394,-0.03798c-0.08265,-0.01951 -0.10623,-0.04772 -0.15192,-0.07596c-0.20433,-0.12628 -0.26707,-0.10039 -0.34181,-0.11394c-0.31929,-0.0579 -0.34182,-0.15192 -0.41778,-0.1899c-0.22788,-0.11394 -0.26501,-0.15365 -0.34181,-0.1899c-0.33828,-0.15964 -0.34502,-0.18407 -0.41777,-0.22788c-0.27989,-0.16852 -0.28843,-0.19981 -0.34182,-0.26586c-0.15289,-0.18912 -0.23189,-0.17291 -0.26586,-0.1899c-0.16985,-0.08492 -0.11787,-0.18634 -0.15192,-0.22788c-0.08681,-0.1059 -0.10293,-0.11557 -0.11394,-0.15192c-0.03968,-0.13106 -0.07596,-0.15192 -0.11394,-0.1899c-0.03798,-0.03798 -0.01112,-0.08708 -0.03798,-0.11394c-0.02686,-0.02686 -0.05688,-0.1491 -0.07596,-0.34182c-0.00374,-0.03779 0,-0.26586 0,-0.30384c0,-0.11394 0.00873,-0.41879 0,-0.45575c-0.01951,-0.08265 -0.02925,-0.45677 -0.03798,-0.49373c-0.01951,-0.08265 -0.07596,-0.3798 -0.07596,-0.41777l0,-0.03798l-0.03798,-0.07596"/>
        <path fill="none" stroke-width="NaN" fill-opacity="null" id="svg_70" d="m31.95509,9.62764c0.05855,0 0.1171,0 0.17565,0c0.05855,0 0.13425,-0.01238 0.17566,-0.04227c0.0414,-0.02989 0.13425,-0.05465 0.17565,-0.08454c0.0414,-0.02989 0.23867,-0.11063 0.29276,-0.12681c0.0765,-0.02288 0.40124,-0.21867 0.46842,-0.25362c0.10621,-0.05527 0.50902,-0.27301 0.58552,-0.29589c0.05409,-0.01618 0.41432,-0.19518 0.46841,-0.21135c0.0765,-0.02288 0.30991,-0.18146 0.35131,-0.21135c0.0414,-0.02989 0.1171,-0.08454 0.1171,-0.04227c0,0.04227 0,0.12681 0,0.33816c0,0.04227 -0.02847,0.11936 -0.05855,0.21135c-0.06726,0.2057 -0.04889,0.25391 -0.05855,0.33816c-0.02938,0.25624 -0.10744,0.29618 -0.1171,0.38043c-0.02938,0.25624 -0.05856,0.29589 -0.05856,0.33816c0,0.21135 0,0.25362 0,0.29589c0,0.04227 0,0.16908 0,0.21135c0,0.04227 0,0.08454 0,0.12681c0,0.04227 -0.01714,0.05465 -0.05855,0.08454c-0.04141,0.02989 -0.11711,0 -0.17566,0c-0.05855,0 -0.13425,0.02989 -0.17565,0c-0.0414,-0.02989 -0.13425,-0.01238 -0.17566,-0.04227c-0.0414,-0.02989 -0.05855,-0.04227 -0.1171,-0.04227c-0.05855,0 -0.06301,0.02609 -0.11711,0.04227c-0.0765,0.02288 -0.0757,0.05465 -0.1171,0.08454c-0.0414,0.02989 -0.05855,0.04227 -0.05855,0.08454c0,0.04227 0,0.08454 0,0.12681c0,0.04227 0,0.08454 0,0.12681c0,0.08454 -0.00483,0.12696 0,0.16908c0.02938,0.25624 0.08542,0.28293 0.1171,0.33816c0.15685,0.27337 0.05855,0.29589 0.05855,0.33816c0,0.25362 0.04917,0.29644 0.05855,0.33816c0.02966,0.13194 0,0.21135 0.05855,0.21135c0.05855,0 0,-0.08454 0,-0.12681c0,-0.16908 -0.05798,-0.20249 -0.11711,-0.50724c-0.00812,-0.04186 -0.13486,-0.2016 -0.17565,-0.25362c-0.23789,-0.30333 -0.23344,-0.37017 -0.29276,-0.63405c-0.00938,-0.04172 -0.10603,-0.21211 -0.11711,-0.25362c-0.05963,-0.22352 -0.0811,-0.26935 -0.23421,-0.4227c-0.04842,-0.0485 -0.12585,-0.18913 -0.17565,-0.21135c-0.11137,-0.04969 -0.05855,-0.12681 -0.11711,-0.12681l0,-0.04227" stroke="#ff8300"/>
        <path fill="none" stroke="#ffff00" stroke-width="NaN" fill-opacity="null" id="svg_72" d="m34.11992,9.19352c0,0.03798 -0.0351,0.03949 -0.07596,0.11394c-0.10657,0.19413 -0.15192,0.22788 -0.22788,0.30384c-0.03798,0.03798 -0.02939,0.10768 -0.22788,0.1899c-0.03509,0.01453 -0.15674,-0.04079 -0.26586,0.15192c-0.01871,0.03305 -0.05267,0.07283 -0.15192,0.11394c-0.03509,0.01453 -0.07596,0.03798 -0.11394,0.07596l-0.03798,0l-0.03798,0l0,0.03798"/>
        <polyline stroke-linecap="round" id="svg_2" points="472,317 " opacity="0.5" fill-opacity="null" stroke-opacity="null" stroke-width="NaN" stroke="#000000" fill="none"/>
    </symbol>

    <symbol id="bomb2">
        <title>Bomb2</title>
        <path stroke="#7f3f00" d="m17.66432,9.63747c0,-0.03508 -0.03518,-0.03508 -0.03518,-0.10523c0,-0.03508 -0.0271,-0.14125 -0.03518,-0.17538c-0.03615,-0.15267 -0.08789,-0.20829 -0.10554,-0.42093c-0.0029,-0.03496 0.0029,-0.31581 0,-0.35077c-0.01765,-0.21264 -0.03518,-0.28062 -0.03518,-0.49108c0,-0.03508 0,-0.07015 0,-0.10523c0,-0.17539 0,-0.21046 0,-0.24554c0,-0.03508 0.03518,-0.17539 0.03518,-0.21046c0,-0.03508 0.01736,-0.06589 0.03518,-0.17539c0.00563,-0.03462 -0.00563,-0.07061 0,-0.10523c0.01782,-0.10949 0.05132,-0.12956 0.07036,-0.17539c0.01346,-0.03241 0.03518,-0.17539 0.03518,-0.21046c0,-0.03508 0.01736,-0.0659 0.03518,-0.17539c0.00563,-0.03462 -0.02487,-0.08043 0,-0.10523c0.02487,-0.0248 0.03518,-0.03508 0.03518,-0.07015c0,-0.03508 0.01614,-0.0594 0.03518,-0.10523c0.01346,-0.03241 0.0103,-0.04535 0.03518,-0.07015c0.02487,-0.0248 -0.01346,-0.07282 0,-0.10523c0.01904,-0.04583 0.03518,-0.07015 0.03518,-0.10523c0,-0.03508 0.03518,-0.03508 0.03518,-0.07015c0,-0.03508 0.03518,-0.03508 0.03518,-0.07015c0,-0.03508 0.03518,-0.07015 0.03518,-0.10523c0,-0.03508 0.0103,-0.08043 0.03518,-0.10523c0.02487,-0.0248 0.0103,-0.04535 0.03518,-0.07015c0.02488,-0.0248 0.01031,-0.04535 0.03518,-0.07015c0.02487,-0.0248 0.05132,-0.02432 0.07036,-0.07015c0.01346,-0.03241 0.03518,-0.03508 0.03518,-0.07015c0,-0.03508 0.0103,-0.04535 0.03518,-0.07015c0.02488,-0.0248 0.05132,-0.02432 0.07036,-0.07015c0.01346,-0.03241 0.03518,-0.07015 0.03518,-0.10523c0,-0.03508 0.01031,-0.04535 0.03518,-0.07015c0.02487,-0.0248 0.0103,-0.04535 0.03518,-0.07015c0.02487,-0.0248 0.04548,-0.01027 0.07036,-0.03508c0.02487,-0.0248 0.02172,-0.03775 0.03518,-0.07015c0.01904,-0.04583 0.03518,-0.07015 0.07036,-0.10523c0.03518,-0.03508 0.04548,-0.04535 0.07036,-0.07015c0.02487,-0.0248 0.02172,-0.03775 0.03518,-0.07015c0.01904,-0.04583 0.04548,-0.04535 0.07036,-0.07015c0.02487,-0.0248 0.0103,-0.04535 0.03518,-0.07015c0.02488,-0.0248 0.01031,-0.04535 0.03518,-0.07015c0.02487,-0.0248 0.04548,-0.01027 0.07036,-0.03508c0.02487,-0.0248 0.01031,-0.04535 0.03518,-0.07015c0.02487,-0.0248 0.02439,-0.05117 0.07036,-0.07015c0.0325,-0.01342 0.03518,-0.03508 0.07036,-0.03508c0.03518,0 0.04548,-0.01027 0.07036,-0.03508c0.02487,-0.0248 0.04548,-0.01027 0.07036,-0.03508c0.02487,-0.0248 0.0103,-0.04535 0.03518,-0.07015c0.02487,-0.0248 0.08066,-0.01027 0.10554,-0.03508c0.02487,-0.0248 0.0244,-0.05117 0.07036,-0.07015c0.0325,-0.01342 0.03786,-0.02165 0.07036,-0.03508c0.04596,-0.01898 0.05957,-0.05117 0.10554,-0.07015c0.0325,-0.01342 0.04548,-0.01027 0.07036,-0.03508c0.02487,-0.0248 0.04548,-0.01027 0.07036,-0.03508c0.02487,-0.0248 0.04548,-0.01027 0.07036,-0.03508c0.02487,-0.0248 0.04548,-0.01027 0.07036,-0.03508c0.02487,-0.0248 0.04548,-0.01027 0.07036,-0.03508c0.02487,-0.0248 0.0244,-0.05117 0.07036,-0.07015c0.0325,-0.01342 0.04548,-0.01027 0.07036,-0.03508c0.02487,-0.0248 0.05957,-0.01609 0.10554,-0.03508c0.0325,-0.01342 0.04548,-0.01027 0.07036,-0.03508c0.02487,-0.0248 0.04548,-0.01027 0.07036,-0.03508c0.04975,-0.04961 0.10554,-0.03508 0.14072,-0.03508c0.03518,0 0.03518,-0.03508 0.07036,-0.03508c0.03518,0 0.04548,-0.01027 0.07036,-0.03508c0.02487,-0.0248 0.05957,-0.01609 0.10554,-0.03508c0.0325,-0.01342 0.05957,-0.01609 0.10554,-0.03508c0.0325,-0.01342 0.07304,0.01342 0.10554,0c0.04596,-0.01898 0.07036,-0.03508 0.10554,-0.03508c0.03518,0 0.03518,-0.03508 0.07036,-0.03508c0.03518,0 0.07036,0 0.10554,0c0.03518,0 0.03518,-0.03508 0.07036,-0.03508c0.03518,0 0.08066,0.0248 0.10554,0c0.02487,-0.0248 0.03518,-0.03508 0.07036,-0.03508c0.03518,0 0.07304,0.01342 0.10554,0c0.04596,-0.01898 0.07036,-0.03508 0.10554,-0.03508c0.03518,0 0.07036,0 0.10554,0c0.03518,0 0.07036,-0.03508 0.10554,-0.03508c0.03518,0 0.07036,0 0.10554,0c0.03518,0 0.07304,0.01342 0.10554,0c0.04596,-0.01898 0.07036,-0.03508 0.10554,-0.03508c0.03518,0 0.07036,0 0.10554,0c0.03518,0 0.04548,-0.01027 0.07036,-0.03508c0.02487,-0.0248 0.14072,0 0.1759,0c0.03518,0 0.07036,0 0.10554,0c0.03518,0 0.07036,0 0.10554,0c0.03518,0 0.07036,-0.03508 0.14072,-0.03508c0.03518,0 0.07036,0 0.10554,0c0.03518,0 0.10554,-0.03508 0.14072,-0.03508c0.03518,0 0.07036,0 0.10554,0c0.03518,0 0.08066,0.0248 0.10554,0c0.02487,-0.0248 0.03518,-0.03508 0.07036,-0.03508c0.03518,0 0.07036,0 0.10554,0c0.03518,0 0.07036,0 0.10554,0c0.03518,0 0.07036,0 0.10554,0c0.03518,0 0.07036,0 0.10554,0c0.03518,0 0.07036,0 0.10554,0c0.03518,0 0.07036,0 0.10554,0c0.03518,0 0.07036,0 0.10554,0c0.03518,0 0.07036,0 0.10554,0c0.03518,0 0.07036,0 0.10554,0c0.03518,0 0.07036,0 0.10554,0c0.03518,0 0.07036,0 0.10554,0c0.03518,0 0.07036,0 0.10554,0c0.03518,0 0.07036,0 0.10554,0c0.03518,0 0.07036,0 0.10554,0c0.03518,0 0.07036,0 0.10554,0c0.03518,0 0.07036,0 0.10554,0c0.03518,0 0.08066,-0.0248 0.10554,0c0.02487,0.0248 0.03518,0.03508 0.07036,0.03508c0.03518,0 0.07036,0 0.10554,0c0.03518,0 0.04548,0.01027 0.07036,0.03508c0.02487,0.0248 0.07036,0 0.10554,0c0.03518,0 0.03518,0.03508 0.07036,0.03508c0.03518,0 0.07036,0.03508 0.10554,0.03508c0.03518,0 0.04548,0.01027 0.07036,0.03508c0.02487,0.0248 0.08066,-0.0248 0.10554,0c0.02487,0.0248 0.03518,0.03508 0.07036,0.03508l0,0.03508l0.03518,0l0.03518,0" id="svg_2" fill-opacity="null" stroke-opacity="null" stroke-width="NaN" fill="none"/>
        <ellipse ry="11.83061" rx="11.73566" id="svg_47" cy="21.93564" cx="17.71278" stroke-width="NaN" stroke="#000000" fill="#000000"/>
        <path stroke="#e51902" transform="rotate(28.599802017211914 27.11849594116211,4.020051956176753) " d="m25.67848,3.05092c0,-0.03748 0.05021,-0.01605 0.24693,-0.1874c0.03858,-0.0336 0.5625,-0.41441 0.59968,-0.44976c0.3366,-0.3201 0.38802,-0.33732 0.45857,-0.41228c0.24693,-0.26235 0.20263,-0.40182 0.59968,-0.5622c0.03297,-0.01332 0.24693,-0.1874 0.2822,-0.22488c0.03528,-0.03748 0.15143,-0.08593 0.17638,-0.11244c0.02495,-0.02651 0,0 0,0.03748c0,0.14992 0.03258,0.78719 0.03528,0.82456c0.03538,0.49154 0.17546,0.54399 0.24693,1.01197c0.00565,0.037 0.12942,0.37692 0.1411,0.41228c0.07477,0.22646 0.1748,0.20798 0.21165,0.33732c0.01023,0.03587 0.01033,0.08593 0.03528,0.11244c0.02495,0.02651 0.03528,0.03748 0,0.03748c-0.03528,0 -0.1411,0 -0.17638,0c-0.1411,0 -0.1721,0.01849 -0.2822,0.03748c-0.03482,0.006 -0.18671,0.01097 -0.21165,0.03748c-0.02495,0.02651 -0.08088,0.04845 -0.10583,0.07496c-0.02495,0.02651 -0.01033,0.04845 -0.03528,0.07496c-0.02495,0.02651 -0.0456,0.01097 -0.07055,0.03748c-0.02495,0.02651 -0.0456,0.01097 -0.07055,0.03748c-0.02495,0.02651 -0.07055,0.07496 -0.07055,0.11244c0,0.03748 -0.03528,0.03748 -0.03528,0.07496c0,0.11244 -0.00629,0.15052 0,0.1874c0.05378,0.31509 0.10018,0.33781 0.10583,0.37481c0.0536,0.35097 0.11709,0.4033 0.1411,0.44976c0.1565,0.30291 0.08888,0.33878 0.10583,0.44976c0.0536,0.35097 0.10017,0.37529 0.10583,0.41228c0.03574,0.23398 0.09916,0.26304 0.10583,0.29984c0.03593,0.19819 0.08673,0.21339 0.10583,0.26236c0.0135,0.03463 -0.02495,0.08593 0,0.11244c0.02495,0.02651 0.03528,0.03748 0,0.03748c-0.03528,0 -0.07149,-0.02887 -0.10583,-0.03748c-0.07676,-0.01925 -0.09867,-0.04709 -0.1411,-0.07496c-0.18978,-0.12462 -0.24805,-0.09907 -0.31747,-0.11244c-0.29655,-0.05714 -0.31748,-0.14992 -0.38803,-0.1874c-0.21165,-0.11244 -0.24614,-0.15163 -0.31747,-0.1874c-0.31419,-0.15754 -0.32045,-0.18165 -0.38802,-0.22488c-0.25996,-0.1663 -0.26789,-0.19718 -0.31748,-0.26236c-0.142,-0.18663 -0.21538,-0.17064 -0.24693,-0.1874c-0.15776,-0.0838 -0.10948,-0.18389 -0.1411,-0.22488c-0.08063,-0.10451 -0.0956,-0.11405 -0.10583,-0.14992c-0.03685,-0.12934 -0.07055,-0.14992 -0.10583,-0.1874c-0.03528,-0.03748 -0.01033,-0.08593 -0.03528,-0.11244c-0.02495,-0.02651 -0.05283,-0.14714 -0.07055,-0.33733c-0.00347,-0.03729 0,-0.26236 0,-0.29984c0,-0.11244 0.00811,-0.41328 0,-0.44976c-0.01812,-0.08156 -0.02717,-0.45076 -0.03528,-0.48724c-0.01812,-0.08156 -0.07055,-0.37481 -0.07055,-0.41228l0,-0.03748l-0.03528,-0.07496" id="svg_69" fill-opacity="null" stroke-width="NaN" fill="none"/>
        <path stroke="#ff8300" transform="rotate(23.84467124938965 26.577579498291016,3.851296663284299) " d="m25.34205,3.17091c0.05148,0 0.10296,0 0.15444,0c0.05148,0 0.11804,-0.01088 0.15445,-0.03714c0.0364,-0.02627 0.11804,-0.04802 0.15444,-0.07429c0.0364,-0.02627 0.20985,-0.09722 0.2574,-0.11143c0.06726,-0.02011 0.35278,-0.19215 0.41185,-0.22287c0.09338,-0.04857 0.44755,-0.23991 0.51481,-0.26001c0.04756,-0.01422 0.36428,-0.17151 0.41184,-0.18572c0.06726,-0.02011 0.27248,-0.15946 0.30888,-0.18572c0.0364,-0.02627 0.10296,-0.07429 0.10296,-0.03714c0,0.03714 0,0.11143 0,0.29716c0,0.03714 -0.02503,0.10489 -0.05148,0.18572c-0.05914,0.18076 -0.04299,0.22312 -0.05148,0.29716c-0.02583,0.22517 -0.09446,0.26027 -0.10296,0.3343c-0.02583,0.22517 -0.05149,0.26001 -0.05149,0.29716c0,0.18572 0,0.22287 0,0.26001c0,0.03714 0,0.14858 0,0.18572c0,0.03714 0,0.07429 0,0.11143c0,0.03714 -0.01507,0.04802 -0.05148,0.07429c-0.03641,0.02627 -0.10297,0 -0.15445,0c-0.05148,0 -0.11804,0.02627 -0.15444,0c-0.0364,-0.02627 -0.11804,-0.01088 -0.15445,-0.03714c-0.0364,-0.02627 -0.05148,-0.03714 -0.10296,-0.03714c-0.05148,0 -0.0554,0.02293 -0.10297,0.03714c-0.06726,0.02011 -0.06656,0.04802 -0.10296,0.07429c-0.0364,0.02627 -0.05148,0.03714 -0.05148,0.07429c0,0.03714 0,0.07429 0,0.11143c0,0.03714 0,0.07429 0,0.11143c0,0.07429 -0.00425,0.11157 0,0.14858c0.02583,0.22517 0.0751,0.24862 0.10296,0.29716c0.13791,0.24022 0.05148,0.26001 0.05148,0.29716c0,0.22287 0.04323,0.26049 0.05148,0.29716c0.02608,0.11594 0,0.18572 0.05148,0.18572c0.05148,0 0,-0.07429 0,-0.11143c0,-0.14858 -0.05098,-0.17794 -0.10297,-0.44573c-0.00714,-0.03678 -0.11857,-0.17715 -0.15444,-0.22287c-0.20916,-0.26655 -0.20525,-0.32528 -0.2574,-0.55717c-0.00825,-0.03666 -0.09322,-0.18639 -0.10297,-0.22287c-0.05243,-0.19642 -0.07131,-0.23669 -0.20592,-0.37144c-0.04257,-0.04262 -0.11065,-0.1662 -0.15444,-0.18572c-0.09792,-0.04366 -0.05148,-0.11143 -0.10297,-0.11143l0,-0.03714" id="svg_70" fill-opacity="null" stroke-width="NaN" fill="none"/>
        <path transform="rotate(29.670785903930664 26.467176437377933,3.336945295333863) " d="m27.03688,2.84321c0,0.03798 -0.0351,0.03949 -0.07596,0.11394c-0.10657,0.19413 -0.15192,0.22788 -0.22788,0.30384c-0.03798,0.03798 -0.02939,0.10768 -0.22788,0.1899c-0.03509,0.01453 -0.15674,-0.04079 -0.26586,0.15192c-0.01871,0.03305 -0.05267,0.07283 -0.15192,0.11394c-0.03509,0.01453 -0.07596,0.03798 -0.11394,0.07596l-0.03798,0l-0.03798,0l0,0.03798" id="svg_72" fill-opacity="null" stroke-width="NaN" stroke="#ffff00" fill="none"/>
    </symbol>

    <symbol id="bomb3">
        <title>Bomb3</title>
        <path stroke="#7f3f00" d="m17.6002,10.09153c-0.03103,0 -0.03103,-0.03827 -0.03103,-0.07654c0,-0.07653 0,-0.1148 0,-0.19134c0,-0.03827 0,-0.07653 0,-0.1148c0,-0.03827 -0.01187,-0.07945 0,-0.1148c0.01679,-0.05 0.03103,-0.07654 0.03103,-0.1148c0,-0.03827 -0.02194,-0.08774 0,-0.1148c0.02194,-0.02706 0.03103,-0.03827 0.03103,-0.07653c0,-0.03827 0,-0.07654 0,-0.1148c0,-0.03827 0.00909,-0.04947 0.03103,-0.07653c0.02194,-0.02706 0.03103,-0.03827 0.03103,-0.07654c0,-0.03827 0.03103,-0.07653 0.03103,-0.1148c0,-0.03827 0.03103,-0.03827 0.03103,-0.07654c0,-0.03827 0,-0.07653 0,-0.1148c0,-0.03827 0.03103,-0.03827 0.03103,-0.07653c0,-0.03827 0,-0.07654 0,-0.1148c0,-0.03827 0.03103,-0.03827 0.03103,-0.07653c0,-0.03827 0.03103,-0.03827 0.03103,-0.07654c0,-0.03827 0.03103,-0.03827 0.03103,-0.07653c0,-0.03827 0.03103,-0.03827 0.03103,-0.07653c0,-0.03827 0.03103,-0.03827 0.03103,-0.07653c0,-0.03827 0.03103,-0.03827 0.03103,-0.07653c0,-0.03827 0.01916,-0.04118 0.03103,-0.07653c0.01679,-0.05 0.04012,-0.04948 0.06206,-0.07654c0.02194,-0.02706 0.03103,-0.03827 0.06205,-0.03827l0,-0.03827l0,-0.03827" id="svg_3" fill-opacity="null" stroke-opacity="null" stroke-width="NaN" fill="none"/>
        <ellipse stroke="#3f0500" fill="#3f0500" stroke-width="NaN" cx="17.4025" cy="22.05975" id="svg_47" rx="12.5734" ry="12.45116"/>
        <path stroke="#e51902" fill="none" stroke-width="NaN" fill-opacity="null" id="svg_69" d="m17.91841,6.31993c0,-0.02385 0.02382,-0.01021 0.11712,-0.11925c0.0183,-0.02138 0.26681,-0.26371 0.28444,-0.28621c0.15966,-0.2037 0.18405,-0.21465 0.21751,-0.26236c0.11712,-0.16695 0.09611,-0.2557 0.28444,-0.35776c0.01564,-0.00848 0.11712,-0.11925 0.13385,-0.1431c0.01673,-0.02385 0.07183,-0.05468 0.08366,-0.07155c0.01183,-0.01687 0,0 0,0.02385c0,0.0954 0.01545,0.50093 0.01673,0.52471c0.01678,0.31279 0.08322,0.34617 0.11712,0.64397c0.00268,0.02355 0.06139,0.23985 0.06693,0.26236c0.03546,0.14411 0.08291,0.13235 0.10039,0.21465c0.00485,0.02283 0.0049,0.05468 0.01673,0.07155c0.01183,0.01687 0.01673,0.02385 0,0.02385c-0.01673,0 -0.06693,0 -0.08366,0c-0.06693,0 -0.08163,0.01177 -0.13385,0.02385c-0.01652,0.00382 -0.08856,0.00698 -0.10039,0.02385c-0.01183,0.01687 -0.03836,0.03083 -0.0502,0.0477c-0.01183,0.01687 -0.0049,0.03083 -0.01673,0.0477c-0.01183,0.01687 -0.02163,0.00698 -0.03346,0.02385c-0.01183,0.01687 -0.02163,0.00698 -0.03346,0.02385c-0.01183,0.01687 -0.03346,0.0477 -0.03346,0.07155c0,0.02385 -0.01673,0.02385 -0.01673,0.0477c0,0.07155 -0.00298,0.09578 0,0.11925c0.02551,0.20051 0.04752,0.21497 0.0502,0.23851c0.02542,0.22334 0.05554,0.25664 0.06693,0.28621c0.07423,0.19276 0.04216,0.21558 0.0502,0.28621c0.02542,0.22334 0.04751,0.23882 0.0502,0.26236c0.01695,0.14889 0.04703,0.16739 0.0502,0.1908c0.01704,0.12612 0.04114,0.13579 0.0502,0.16695c0.0064,0.02204 -0.01183,0.05468 0,0.07155c0.01183,0.01687 0.01673,0.02385 0,0.02385c-0.01673,0 -0.03391,-0.01837 -0.0502,-0.02385c-0.03641,-0.01225 -0.0468,-0.02997 -0.06693,-0.0477c-0.09002,-0.0793 -0.11766,-0.06304 -0.15058,-0.07155c-0.14066,-0.03636 -0.15059,-0.0954 -0.18405,-0.11925c-0.10039,-0.07155 -0.11675,-0.09649 -0.15058,-0.11925c-0.14903,-0.10025 -0.152,-0.11559 -0.18405,-0.1431c-0.1233,-0.10583 -0.12707,-0.12548 -0.15059,-0.16695c-0.06735,-0.11876 -0.10216,-0.10859 -0.11712,-0.11925c-0.07483,-0.05333 -0.05193,-0.11702 -0.06693,-0.1431c-0.03824,-0.06651 -0.04535,-0.07258 -0.0502,-0.0954c-0.01748,-0.08231 -0.03346,-0.0954 -0.0502,-0.11925c-0.01673,-0.02385 -0.0049,-0.05468 -0.01673,-0.07155c-0.01183,-0.01687 -0.02506,-0.09363 -0.03346,-0.21466c-0.00165,-0.02373 0,-0.16695 0,-0.1908c0,-0.07155 0.00385,-0.26299 0,-0.28621c-0.00859,-0.0519 -0.01289,-0.28684 -0.01673,-0.31006c-0.00859,-0.0519 -0.03346,-0.23851 -0.03346,-0.26236l0,-0.02385l-0.01673,-0.0477" transform="rotate(-59.270179748535156 18.601442337036133,6.936640739440916) "/>
        <path stroke="#ff8300" fill="none" stroke-width="NaN" fill-opacity="null" id="svg_70" d="m17.98174,7.14987c0.02461,0 0.04923,0 0.07384,0c0.02461,0 0.05644,-0.00481 0.07385,-0.01641c0.0174,-0.01161 0.05644,-0.02122 0.07384,-0.03283c0.0174,-0.01161 0.10033,-0.04296 0.12307,-0.04924c0.03216,-0.00889 0.16867,-0.0849 0.19691,-0.09848c0.04465,-0.02146 0.21398,-0.10601 0.24614,-0.11489c0.02274,-0.00628 0.17417,-0.07578 0.19691,-0.08206c0.03216,-0.00889 0.13028,-0.07046 0.14768,-0.08206c0.0174,-0.01161 0.04923,-0.03283 0.04923,-0.01641c0,0.01641 0,0.04924 0,0.1313c0,0.01641 -0.01197,0.04635 -0.02461,0.08206c-0.02828,0.07987 -0.02055,0.09859 -0.02461,0.1313c-0.01235,0.09949 -0.04516,0.115 -0.04923,0.14771c-0.01235,0.09949 -0.02462,0.11489 -0.02462,0.1313c0,0.08206 0,0.09848 0,0.11489c0,0.01641 0,0.06565 0,0.08206c0,0.01641 0,0.03283 0,0.04924c0,0.01641 -0.00721,0.02122 -0.02461,0.03283c-0.01741,0.01161 -0.04923,0 -0.07385,0c-0.02461,0 -0.05644,0.01161 -0.07384,0c-0.0174,-0.01161 -0.05644,-0.00481 -0.07385,-0.01641c-0.0174,-0.01161 -0.02461,-0.01641 -0.04923,-0.01641c-0.02461,0 -0.02649,0.01013 -0.04923,0.01641c-0.03216,0.00889 -0.03182,0.02122 -0.04923,0.03283c-0.0174,0.01161 -0.02461,0.01641 -0.02461,0.03283c0,0.01641 0,0.03283 0,0.04924c0,0.01641 0,0.03283 0,0.04924c0,0.03283 -0.00203,0.0493 0,0.06565c0.01235,0.09949 0.03591,0.10985 0.04923,0.1313c0.06594,0.10614 0.02461,0.11489 0.02461,0.1313c0,0.09848 0.02067,0.1151 0.02461,0.1313c0.01247,0.05123 0,0.08206 0.02461,0.08206c0.02461,0 0,-0.03283 0,-0.04924c0,-0.06565 -0.02437,-0.07862 -0.04923,-0.19695c-0.00341,-0.01625 -0.05669,-0.07828 -0.07384,-0.09848c-0.1,-0.11778 -0.09813,-0.14373 -0.12307,-0.24619c-0.00394,-0.0162 -0.04457,-0.08236 -0.04923,-0.09848c-0.02507,-0.08679 -0.03409,-0.10458 -0.09845,-0.16412c-0.02035,-0.01883 -0.0529,-0.07344 -0.07384,-0.08206c-0.04682,-0.01929 -0.02461,-0.04924 -0.04923,-0.04924l0,-0.01641" transform="rotate(-73.98411560058594 18.572471618652344,7.450510501861572) "/>
        <path stroke="#ffff00" fill="none" stroke-width="NaN" fill-opacity="null" id="svg_72" d="m18.51366,7.37486c0,0.02115 -0.02038,0.02199 -0.04411,0.06344c-0.06189,0.1081 -0.08822,0.12689 -0.13233,0.16918c-0.02206,0.02115 -0.01707,0.05996 -0.13233,0.10574c-0.02038,0.00809 -0.09102,-0.02271 -0.15439,0.08459c-0.01087,0.0184 -0.03059,0.04055 -0.08822,0.06344c-0.02038,0.00809 -0.04411,0.02115 -0.06617,0.0423l-0.02206,0l-0.02206,0l0,0.02115" transform="rotate(-59.19104766845703 18.18281936645508,7.6497821807861355) "/>
    </symbol>

</svg>