<svg width="50" height="50" xmlns="http://www.w3.org/2000/svg">
    <!-- Created with Method Draw - http://github.com/duopixel/Method-Draw/ -->

    <symbol id="settings">
        <title>Settings</title>
        <path stroke="#000" id="svg_2" d="m43.33486,26.3298l6.33143,-3.40076c-0.12446,-1.26002 -0.36501,-2.48231 -0.66593,-3.68389l-7.03331,-0.98909c-0.60876,-1.48928 -1.41264,-2.87055 -2.35759,-4.13848l2.681,-6.69626c-0.88156,-0.87312 -1.83362,-1.66916 -2.83567,-2.40163l-5.97219,3.80759c-1.40049,-0.74794 -2.90938,-1.31601 -4.49335,-1.68086l-2.15826,-6.79031c-0.6121,-0.04694 -1.22403,-0.09653 -1.84826,-0.09653s-1.23442,0.04845 -1.84837,0.09653l-2.13688,6.73016c-1.62643,0.35315 -3.16864,0.92782 -4.60512,1.685l-5.87919,-3.75158c-1.00078,0.73247 -1.9528,1.52851 -2.83429,2.40163l2.60722,6.5113c-1.01617,1.32262 -1.86693,2.78194 -2.50593,4.35474l-6.81128,0.95666c-0.29965,1.19989 -0.54146,2.42089 -0.66464,3.68374l6.11329,3.28476c0.06926,1.72911 0.35154,3.4049 0.85141,4.98298l-4.61154,5.17828c0.53644,1.12995 1.13369,2.22577 1.8246,3.25386l6.78945,-1.48023c1.11318,1.23004 2.38146,2.30775 3.78075,3.19898l-0.25735,7.05468c1.11505,0.51073 2.27361,0.93816 3.46754,1.27982l4.29529,-5.60706c0.76212,0.09881 1.53386,0.16536 2.32102,0.16536c0.85273,0 1.68666,-0.07824 2.50716,-0.19272l4.31766,5.63817c1.19581,-0.34126 2.3526,-0.76868 3.46754,-1.27943l-0.26231,-7.18137c1.33371,-0.87688 2.54308,-1.92594 3.60928,-3.11036l6.96602,1.51796c0.69092,-1.02793 1.28824,-2.12258 1.82449,-3.25348l-4.7609,-5.34782c0.45734,-1.49475 0.71281,-3.07266 0.78719,-4.70032l0,0zm-10.5233,8.16892l-3.00184,1.98459l-1.84633,-2.88089c-0.96049,0.37519 -1.99457,0.60333 -3.08465,0.60333c-4.76088,0 -8.61913,-3.91981 -8.61913,-8.754c0,-4.83438 3.85825,-8.75267 8.61913,-8.75267c4.75963,0 8.61929,3.91829 8.61929,8.75267c0,2.41579 -0.96364,4.59963 -2.5213,6.18413l1.83483,2.86282z" stroke-opacity="null" stroke-width="0.5" fill="#666666"/>
    </symbol>

    <symbol id="soundMutedIcon">
        <title>SoundMuted</title>
        <path stroke="#000" id="svg_4" d="m0.75,14.92711l0,20.10451l9.80754,0l14.68186,14.0701l0.00873,-48.24471l-14.68404,14.0701l-9.81409,0zm30.12737,0z" stroke-width="0.5" fill="#666666"/>
    </symbol>

    <symbol id="soundPlayingIcon">
        <title>SoundPlaying</title>
        <path stroke="#000" id="svg_1" d="m0.87821,14.97943l0,20.08779l9.80926,0l14.68443,14.0584l0.00873,-48.20459l-14.68661,14.0584l-9.81581,0zm30.13266,-2.30999c-0.85763,-0.98963 -2.23463,-0.98963 -3.0879,0.00509c-0.85108,0.99472 -0.85108,2.6051 0.00436,3.60237l0,-0.00509c1.88329,2.19806 3.04425,5.21275 3.04425,8.56326c0,3.34797 -1.15878,6.35248 -3.03989,8.55054c-0.85981,0.98963 -0.85981,2.60002 -0.00436,3.59983c0.42554,0.49609 0.9842,0.74541 1.54286,0.74541c0.56084,0 1.1195,-0.24932 1.54504,-0.74541c2.66672,-3.10374 4.32088,-7.4159 4.31869,-12.15037c0.00218,-4.74465 -1.65852,-9.06189 -4.32306,-12.16563zm5.00829,-5.83604c-0.85763,-0.99472 -2.23463,-0.99472 -3.08353,0c-0.85545,0.99472 -0.85545,2.60765 0,3.59728c3.16428,3.69141 5.11522,8.76933 5.11522,14.40185c0,5.62743 -1.95094,10.7028 -5.11085,14.39676c-0.85545,0.99218 -0.85545,2.60256 0,3.59728c0.42554,0.49609 0.9842,0.74541 1.54504,0.74541c0.55866,0 1.11732,-0.24932 1.54286,-0.74541c3.94553,-4.60218 6.39184,-10.97756 6.38748,-17.99404c0.00218,-7.02157 -2.44413,-13.40204 -6.39621,-17.99913zm4.75515,-5.54348c-0.85763,-0.99472 -2.23682,-0.98963 -3.08572,0.00509c-0.85326,0.98963 -0.85326,2.60256 0.00436,3.59474l-0.00436,0c4.38416,5.11099 7.08798,12.14273 7.08798,19.94278c0,7.79241 -2.70382,14.8267 -7.08362,19.94024c-0.85326,0.99218 -0.85326,2.60256 0.00436,3.59983c0.42336,0.49354 0.98202,0.74032 1.54068,0.74032s1.1195,-0.24932 1.54504,-0.74541c5.15668,-6.01921 8.36024,-14.35605 8.35588,-23.53497c0.00436,-9.18655 -3.19919,-17.52594 -8.36461,-23.54261z" stroke-opacity="null" stroke-width="0.5" fill="#666666"/>
    </symbol>

</svg>