<svg width="700" height="700" xmlns="http://www.w3.org/2000/svg">
    <!-- Created with Method Draw - http://github.com/duopixel/Method-Draw/ -->

    <symbol id="background">
        <title>Layer 1</title>
        <rect stroke="#000" id="svg_1" height="700" width="700" stroke-width="0" fill="#333333"/>
        <polyline stroke-linecap="round" id="svg_2" points="875.9998779296875,804 " opacity="0.5" fill-opacity="null" stroke-opacity="null" stroke-width="NaN" fill="none" stroke="#000000"/>
        <g id="svg_8">
            <g stroke="null" id="svg_6" transform="matrix(0.4856797703308906,-0.25916860686661064,0.29963025963123835,0.42009425087728774,116.23842179812465,73.31300113095662) ">
                <path stroke="#7f3f00" fill="none" stroke-width="NaN" fill-opacity="null" id="svg_49" d="m238.58762,153.87376c0,-0.12743 0.01475,-0.25536 0,-0.50971c-0.05945,-1.02536 -0.23731,-1.14682 -0.23731,-1.65653c0,-0.12743 0,-0.38228 0,-1.01942c0,-0.12743 0,-0.25486 0,-0.89196c0,-0.12743 0,-0.25486 0,-1.01942c0,-0.12743 -0.01646,-0.2561 0,-0.38228c0.11981,-0.9187 0.19191,-1.02912 0.23731,-1.14682c0.0642,-0.16652 0.23731,-0.892 0.23731,-1.01942c0,-0.12743 0.17776,-0.24694 0.23731,-1.01942c0.00978,-0.12699 0.08966,-0.12934 0.11865,-0.38228c0.05976,-0.52145 0.03474,-0.67445 0.11865,-0.76453c0.08388,-0.09012 0.19188,-0.64684 0.23731,-0.76457c0.0642,-0.16648 0.1772,-0.23939 0.23727,-0.63714c0.01903,-0.12578 -0.02724,-0.25824 0,-0.38225c0.06098,-0.27734 0.09966,-0.38393 0.11865,-0.50971c0.06011,-0.39775 0.11865,-0.50971 0.11865,-0.63714c0,-0.12743 0.15342,-0.16474 0.23731,-0.25486c0.08391,-0.09012 0.05445,-0.2158 0.11865,-0.38228c0.04542,-0.11773 0.01771,-0.18785 0.11865,-0.25486c0.22568,-0.14977 0.08429,-0.38775 0.11865,-0.50971c0.12396,-0.43972 0.27205,-0.41959 0.35596,-0.50968c0.08388,-0.09012 0.08229,-0.44076 0.23731,-0.50971c0.10962,-0.04875 0.23196,-0.06999 0.35596,-0.50971c0.03436,-0.12196 0.01771,-0.18785 0.11865,-0.25486c0.45137,-0.29958 0.41038,-0.59805 0.47458,-0.76453c0.04542,-0.11773 0.15342,-0.2922 0.23731,-0.38228c0.08391,-0.09012 0.23199,-0.19742 0.35596,-0.63714c0.0344,-0.12196 -0.09541,-0.33753 0.35596,-0.63714c0.10094,-0.06697 0.19191,-0.13712 0.23731,-0.25486c0.12843,-0.33296 0.27205,-0.41959 0.35596,-0.50971c0.08388,-0.09009 0.35596,-0.25482 0.47458,-0.38225c0.11868,-0.12743 0.43825,-0.56819 0.59326,-0.63714c0.10962,-0.04878 0.08229,-0.18591 0.23731,-0.25486c0.10962,-0.04875 0.12768,-0.07868 0.23731,-0.12743c0.31007,-0.13793 0.36499,-0.3335 0.47461,-0.38228c0.15502,-0.06895 0.15339,-0.16474 0.23731,-0.25486c0.08388,-0.09009 0.21637,-0.18936 0.47461,-0.25486c0.11547,-0.02926 0.15339,-0.03731 0.23727,-0.12743c0.16783,-0.1802 0.36502,-0.07864 0.47461,-0.12743c0.15502,-0.06895 0.47461,-0.25482 0.59326,-0.25482c0.11865,0 0.24049,-0.09817 0.35596,-0.12743c0.25821,-0.06549 0.31956,-0.18591 0.47461,-0.25486c0.10962,-0.04878 0.20091,-0.05848 0.35596,-0.12743c0.10959,-0.04878 0.34499,-0.19067 0.83054,-0.25486c0.11778,-0.01557 0.2285,-0.19084 0.83057,-0.25486c0.11806,-0.01255 0.30747,0.09982 0.94919,-0.25486c0.14921,-0.08247 0.23821,-0.11186 0.35596,-0.12743c0.48555,-0.06418 0.59326,-0.12743 0.71192,-0.12743c0.11865,0 0.71192,-0.12743 0.83057,-0.12743c0.11865,0 0.11865,-0.12743 0.71189,-0.12743c0.11865,0 0.34715,-0.06338 0.94922,-0.12743c0.11806,-0.01255 0.23731,0 0.35596,0c0.11865,0 0.47458,0 0.59326,0c0.11862,0 0.23727,0 0.59323,0c0.11865,0 0.23731,0 0.35596,0c0.11865,0 0.23731,0 0.35596,0c0.11865,0 0.23731,0 0.35596,0c0.23731,0 0.35596,0 0.47461,0c0.11862,0 0.22287,0.06288 0.59323,0.12743c0.11712,0.02043 0.23731,0 0.35596,0c0.11865,0 0.35596,0.12743 0.47461,0.12743c0.11865,0 0.23731,0 0.35596,0c0.11865,0 0.35596,0.12743 0.47461,0.12743c0.11865,0 0.208,0.04241 0.35593,0.12743c0.53344,0.30659 0.86534,0.03734 0.94922,0.12743c0.08391,0.09012 0.11865,0.12743 0.23731,0.12743c0.11865,0 0.11953,0.11186 0.23731,0.12743c0.48555,0.06418 0.50935,0.16474 0.59326,0.25486c0.08388,0.09009 0.22287,0.06288 0.59323,0.12743c0.11712,0.0204 0.11131,0.19091 0.83057,0.25486c0.11825,0.0105 0.15339,0.03731 0.23731,0.12743c0.08391,0.09009 0.3907,0.03731 0.47461,0.12743c0.08388,0.09009 0.21637,0.06194 0.47461,0.12743c0.11547,0.02926 0.17492,0.01902 0.23727,0.12743c0.13949,0.24237 0.39073,0.03731 0.47461,0.12739c0.08391,0.09012 0.15339,0.03734 0.23731,0.12743c0.08391,0.09012 0.15339,0.03734 0.23731,0.12743c0.08391,0.09012 0.05626,0.14649 0.11865,0.25486c0.13949,0.24237 0.36499,0.07868 0.47461,0.12743c0.15502,0.06898 0.27205,0.16477 0.35596,0.25486c0.08388,0.09012 0.12768,0.07868 0.23731,0.12743c0.15502,0.06898 0.15339,0.16474 0.23727,0.25486c0.08391,0.09012 0.15342,0.03731 0.23731,0.12743c0.08391,0.09009 0.11865,0.12743 0.23731,0.12743c0.11865,0 0.27205,0.03731 0.35596,0.12743c0.08391,0.09009 0.12768,0.07864 0.23731,0.12743c0.15502,0.06895 0.15339,0.16474 0.23731,0.25486c0.08391,0.09009 0.3907,0.16474 0.47461,0.25486c0.08388,0.09009 0.03474,0.16474 0.11865,0.25482c0.08388,0.09012 0.15339,0.03734 0.23731,0.12743c0.08388,0.09012 0.17307,0.08837 0.23727,0.25486c0.04542,0.11773 0.03477,0.16477 0.11865,0.25486c0.08391,0.09012 0.15342,0.03734 0.23731,0.12743c0.08391,0.09012 0.03477,0.16477 0.11865,0.25486c0.08391,0.09012 0.03477,0.16474 0.11865,0.25486c0.08391,0.09012 0.11865,0.12743 0.23731,0.25486c0.11865,0.12743 0.15339,0.16474 0.23731,0.25486c0.08391,0.09009 0.00903,0.20607 0.11865,0.25486c0.15502,0.06895 0.19188,0.13712 0.23731,0.25486c0.0642,0.16648 0.15339,0.29216 0.23731,0.38225c0.08388,0.09012 0.07323,0.13712 0.11865,0.25486c0.0642,0.16652 0.15339,0.2922 0.23727,0.38228c0.08391,0.09012 0.03477,0.16477 0.11868,0.25486c0.08388,0.09012 0.17307,0.08837 0.23727,0.25486c0.04542,0.11773 0.11865,0.12743 0.11865,0.25486c0,0.12743 0.03477,0.16474 0.11865,0.25486c0.08391,0.09009 0.07326,0.13712 0.11865,0.25486c0.06423,0.16648 0.15342,0.16474 0.23731,0.25486c0.08391,0.09009 0.05445,0.21577 0.11865,0.38225c0.04539,0.11773 0.11865,0.12743 0.11865,0.25486c0,0.12743 0.11865,0.12743 0.11865,0.25486c0,0.12743 0.03474,0.16477 0.11865,0.25486c0.08391,0.09012 0,0.25486 0,0.38228c0,0.12743 0.03474,0.16474 0.11865,0.25486c0.08388,0.09009 -0.08391,0.29216 0,0.38228c0.08388,0.09009 0.03474,0.29216 0.11865,0.38228c0.08388,0.09009 0.11865,0.12743 0.11865,0.25482c0,0.12743 0.05442,0.2158 0.11865,0.38228c0.04539,0.11773 0,0.25486 0,0.38228c0,0.12743 0.11865,0.12743 0.11865,0.38228c0,0.12743 0.03474,0.16474 0.11865,0.25486c0.16779,0.1802 -0.08391,0.41959 0,0.50971c0.08388,0.09009 0.15339,0.16474 0.23727,0.25486c0.08391,0.09009 0.10891,0.17671 0.23731,0.50968c0.04542,0.11773 0.03477,0.16477 0.11865,0.25486c0.08391,0.09012 -0.08388,0.2922 0,0.38228c0.08391,0.09012 0.11865,0.12743 0.11865,0.38228c0,0.12743 0.08429,0.1329 0.11865,0.25486c0.12396,0.43972 0.19191,0.51941 0.23731,0.63714c0.06423,0.16648 0.23731,0.25486 0.23731,0.38225c0,0.12743 0.15339,0.54705 0.23731,0.63714c0.08391,0.09012 0.07326,0.13712 0.11865,0.25486c0.0642,0.16648 0.17307,0.2158 0.23731,0.38228c0.04539,0.11773 0.11865,0.12743 0.11865,0.25486c0,0.12743 0.03474,0.16474 0.11865,0.25486c0.08388,0.09009 0.11865,0.12743 0.11865,0.25486c0,0.12743 0.15339,0.41959 0.23731,0.50968c0.08388,0.09012 0.66274,0.45694 0.83054,0.63714c0.08391,0.09012 0.72095,0.71578 0.83057,0.76457c0.15502,0.06895 0.1628,0.17648 0.59326,0.50971c0.13612,0.10535 0.14908,0.3082 0.71189,0.50968c0.11256,0.0403 0.12184,0.09817 0.23731,0.12743c0.25821,0.06549 0.27208,0.16477 0.35596,0.25486c0.08391,0.09012 0.23731,0.12743 0.35596,0.12743c0.11865,0 0.11865,0.12743 0.23731,0.12743c0.11865,0 0.20091,0.05848 0.35596,0.12743c0.10962,0.04878 0.23731,0 0.35596,0c0.11862,0 0.20991,0.03865 0.35593,0.12743c0.42572,0.25885 0.59326,0.12743 0.71192,0.12743c0.23731,0 0.35596,0 0.47461,0c0.11865,0 0.11865,0.12743 0.23731,0.12743c0.23731,0 0.35596,0 0.47461,0c0.11865,0 0.23727,0 0.35593,0c0.11865,0 0.23731,0 0.35596,0c0.23731,0 0.35596,0 0.47461,0c0.23731,0 0.35596,0 0.47461,0c0.23731,0 0.35596,0 0.47461,0l0.11865,0"/>
                <ellipse stroke="#000000" fill="#000000" stroke-width="NaN" cx="238.94358" cy="194.96872" id="svg_47" rx="36.66324" ry="39.69325"/>
                <path stroke="#e51902" fill="none" stroke-width="NaN" fill-opacity="null" id="svg_69" d="m284.14973,152.59948c0,-0.12743 0.16889,-0.05455 0.83057,-0.63714c0.12977,-0.11424 1.89204,-1.40892 2.01707,-1.5291c1.1322,-1.0883 1.30515,-1.14682 1.54246,-1.40167c0.83057,-0.89196 0.68158,-1.36611 2.01707,-1.91138c0.11091,-0.04529 0.83057,-0.63714 0.94922,-0.76457c0.11865,-0.12743 0.50935,-0.29216 0.59326,-0.38228c0.08391,-0.09012 0,0 0,0.12743c0,0.50971 0.10959,2.67632 0.11865,2.80338c0.119,1.67116 0.59017,1.84948 0.83057,3.44052c0.01899,0.12578 0.43531,1.28146 0.47461,1.40167c0.25149,0.76994 0.58795,0.70709 0.71192,1.14682c0.0344,0.12196 0.03474,0.29216 0.11865,0.38228c0.08391,0.09012 0.11865,0.12743 0,0.12743c-0.11865,0 -0.47461,0 -0.59326,0c-0.47461,0 -0.57886,0.06288 -0.94922,0.12743c-0.11712,0.0204 -0.628,0.03731 -0.71192,0.12743c-0.08391,0.09012 -0.27205,0.16474 -0.35596,0.25486c-0.08391,0.09012 -0.03474,0.16474 -0.11865,0.25486c-0.08391,0.09012 -0.15339,0.03731 -0.23731,0.12743c-0.08391,0.09012 -0.15339,0.03731 -0.23731,0.12743c-0.08391,0.09012 -0.23731,0.25486 -0.23731,0.38228c0,0.12743 -0.11865,0.12743 -0.11865,0.25486c0,0.38228 -0.02115,0.51176 0,0.63714c0.18088,1.07126 0.33696,1.1485 0.35596,1.27428c0.18029,1.19325 0.39385,1.37114 0.47461,1.5291c0.52641,1.02986 0.29894,1.15178 0.35596,1.5291c0.18029,1.19325 0.33693,1.27592 0.35596,1.40167c0.12021,0.7955 0.33353,0.89428 0.35596,1.01942c0.12084,0.67381 0.29173,0.72548 0.35596,0.892c0.04539,0.11773 -0.08391,0.29216 0,0.38228c0.08391,0.09012 0.11865,0.12743 0,0.12743c-0.11865,0 -0.24046,-0.09814 -0.35596,-0.12743c-0.25821,-0.06546 -0.33187,-0.16011 -0.47461,-0.25486c-0.63835,-0.42369 -0.83435,-0.33682 -1.06784,-0.38228c-0.99749,-0.19426 -1.06788,-0.50971 -1.30518,-0.63714c-0.71192,-0.38228 -0.82791,-0.51552 -1.06784,-0.63714c-1.05682,-0.53561 -1.07787,-0.61758 -1.30515,-0.76457c-0.8744,-0.56541 -0.90108,-0.67039 -1.06788,-0.892c-0.47764,-0.63452 -0.72444,-0.58014 -0.83057,-0.63714c-0.53063,-0.28492 -0.36824,-0.6252 -0.47461,-0.76457c-0.2712,-0.35531 -0.32156,-0.38775 -0.35596,-0.50971c-0.12396,-0.43972 -0.23731,-0.50971 -0.35596,-0.63714c-0.11865,-0.12743 -0.03474,-0.29216 -0.11865,-0.38228c-0.08391,-0.09012 -0.1777,-0.50025 -0.23731,-1.14685c-0.01168,-0.12679 0,-0.892 0,-1.01942c0,-0.38228 0.02727,-1.4051 0,-1.5291c-0.06095,-0.2773 -0.09138,-1.53252 -0.11865,-1.65653c-0.06095,-0.2773 -0.23731,-1.27428 -0.23731,-1.40167l0,-0.12743l-0.11865,-0.25486"/>
                <path stroke="#ff8300" fill="none" stroke-width="NaN" fill-opacity="null" id="svg_70" d="m283.43782,153.67376c0.18292,0 0.36583,0 0.54875,0c0.18292,0 0.41941,-0.04154 0.54878,-0.14182c0.12934,-0.10028 0.41941,-0.18336 0.54875,-0.28364c0.12934,-0.10028 0.74563,-0.37118 0.91461,-0.42546c0.23899,-0.07677 1.25351,-0.73367 1.46339,-0.85093c0.33181,-0.18544 1.59022,-0.91598 1.82922,-0.99275c0.16898,-0.05429 1.29437,-0.65485 1.46335,-0.70911c0.23899,-0.07677 0.96819,-0.60882 1.09752,-0.70911c0.12934,-0.10028 0.36583,-0.28364 0.36583,-0.14182c0,0.14182 0,0.42546 0,1.13457c0,0.14182 -0.08894,0.40047 -0.18292,0.70911c-0.21013,0.69015 -0.15274,0.8519 -0.18292,1.13457c-0.09179,0.85972 -0.33565,0.99372 -0.36583,1.27639c-0.09179,0.85972 -0.18295,0.99275 -0.18295,1.13457c0,0.70911 0,0.85093 0,0.99275c0,0.14182 0,0.56729 0,0.70911c0,0.14182 0,0.28364 0,0.42546c0,0.14182 -0.05355,0.18336 -0.18292,0.28364c-0.12937,0.10028 -0.36586,0 -0.54878,0c-0.18292,0 -0.41941,0.10028 -0.54875,0c-0.12934,-0.10028 -0.41941,-0.04154 -0.54878,-0.14182c-0.12934,-0.10028 -0.18292,-0.14182 -0.36583,-0.14182c-0.18292,0 -0.19685,0.08754 -0.36586,0.14182c-0.23899,0.07677 -0.23649,0.18336 -0.36583,0.28364c-0.12934,0.10028 -0.18292,0.14182 -0.18292,0.28364c0,0.14182 0,0.28364 0,0.42546c0,0.14182 0,0.28364 0,0.42546c0,0.28364 -0.01509,0.42597 0,0.56729c0.09179,0.85972 0.26686,0.94927 0.36583,1.13457c0.49001,0.91719 0.18292,0.99275 0.18292,1.13457c0,0.85093 0.15361,0.9946 0.18292,1.13457c0.09266,0.44268 0,0.70911 0.18292,0.70911c0.18292,0 0,-0.28364 0,-0.42546c0,-0.56729 -0.18113,-0.67938 -0.36586,-1.70186c-0.02537,-0.14045 -0.42131,-0.67639 -0.54875,-0.85093c-0.74319,-1.01771 -0.72929,-1.24197 -0.91461,-2.12732c-0.0293,-0.13998 -0.33125,-0.71166 -0.36586,-0.85093c-0.18629,-0.74994 -0.25336,-0.9037 -0.73169,-1.41821c-0.15127,-0.16272 -0.39317,-0.63456 -0.54875,-0.70911c-0.34793,-0.16672 -0.18292,-0.42546 -0.36586,-0.42546l0,-0.14182"/>
                <path stroke="#ffff00" fill="none" stroke-width="NaN" fill-opacity="null" id="svg_72" d="m290.20094,152.21723c0,0.12743 -0.10966,0.13249 -0.23731,0.38228c-0.33293,0.65133 -0.47461,0.76457 -0.71192,1.01942c-0.11865,0.12743 -0.09182,0.36128 -0.71192,0.63714c-0.10962,0.04875 -0.48967,-0.13686 -0.83057,0.50971c-0.05845,0.11089 -0.16455,0.24435 -0.47461,0.38228c-0.10962,0.04875 -0.23731,0.12743 -0.35596,0.25486l-0.11865,0l-0.11865,0l0,0.12743"/>
            </g>
            <rect stroke="#000" transform="matrix(0.569715198986416,0.028526996384524838,-0.03298065856253125,0.49278165233966115,155.9432645736025,-9.026880590858838) " id="svg_4" height="114.58621" width="17.5591" y="125.23179" x="156.47862" stroke-width="1.5" fill="#442d06"/>
            <rect stroke="#000" transform="matrix(0.5273987105643096,0.1885412121994297,-0.2179764480177928,0.45617952355152785,188.67276472414972,-35.26374446975349) " id="svg_14" height="15.99999" width="53.59997" y="132.52492" x="164.45817" stroke-width="1.5" fill="#332205"/>
            <rect stroke="#000" transform="matrix(0.5571811896772022,-0.10668257825441314,0.12333796522258453,0.48194021818304433,130.04869522117457,17.76581576036711) " id="svg_17" height="14.39999" width="52.27853" y="173.29049" x="162.48836" stroke-width="1.5" fill="#422b06"/>
            <rect stroke="#000" id="svg_16" height="13.42609" width="9.1307" y="70.03439" x="265.98724" stroke-width="0.5" fill="#332205"/>
            <rect stroke="#000" transform="matrix(0.5467765928385129,0.14133185781263322,-0.1633967237102908,0.47294064360399285,186.73683776914396,-27.556765665229392) " id="svg_18" height="14.27141" width="56.94431" y="191.00019" x="163.89992" stroke-width="1.5" fill="#332205"/>
            <rect transform="rotate(-6.5256147384643555 258.6826782226561,109.52290344238261) " stroke="#000" id="svg_20" height="7.10793" width="34.69666" y="105.96894" x="241.33435" stroke-width="0.5" fill="#332205"/>
            <rect stroke="#000" id="svg_19" height="14.61075" width="5.02188" y="95.70193" x="270.55259" stroke-width="0.5" fill="#332205"/>
            <rect stroke="#000" transform="matrix(0.5698406171277053,-0.026586876905481976,0.03073764575997978,0.4928901341899046,144.33886548340712,5.077404025299863) " id="svg_24" height="110.45232" width="19.99999" y="130.86793" x="343.82902" stroke-width="1.5" fill="#3a2605"/>
            <rect stroke="#000" transform="matrix(0.5688870895007823,0.038977152804195454,-0.04506230347728174,0.4920653696051041,158.6934338963656,-18.76030622070131) " id="svg_25" height="112.79994" width="20.79999" y="126.92492" x="363.65806" stroke-width="1.5" fill="#493007"/>
            <rect stroke="#000" transform="matrix(0.5385724140912973,0.16320720560968574,-0.18868727189511775,0.46584434572334044,189.12161538479745,-65.85420464828584) " id="svg_26" height="15.99999" width="53.59997" y="132.52492" x="373.25806" stroke-width="1.5" fill="#332205"/>
            <rect stroke="#000" transform="matrix(0.5488922549491222,-0.13505707910681647,0.15614232050350077,0.4747706096510867,130.63049135181876,52.67481571835471) " id="svg_28" height="14.39999" width="52.27853" y="170.89049" x="372.08824" stroke-width="1.5" fill="#332205"/>
            <rect stroke="#000" transform="matrix(0.5467765928385129,0.14133185781263322,-0.1633967237102908,0.47294064360399285,191.50474649168143,-56.81150363597648) " id="svg_29" height="14.27141" width="49.50831" y="189.93564" x="374.45547" stroke-width="1.5" fill="#332205"/>
            <rect transform="rotate(-8.493355751037598 377.83831787109364,109.52290344238286) " stroke="#000" id="svg_30" height="7.10793" width="32.87052" y="105.96894" x="361.40305" stroke-width="0.5" fill="#3d2705"/>
            <rect stroke="#000" transform="matrix(0.5689250814795325,0.03856004739597445,-0.04458007917060414,0.49209823119998064,160.16195396123527,-20.17914618355438) " id="svg_31" height="29.59998" width="8.79999" y="202.12488" x="411.65803" stroke-width="1.5" fill="#2b1c03"/>
            <rect transform="rotate(-6.116400718688965 389.251678466797,73.98323822021473) " stroke="#000" id="svg_27" height="13.42609" width="9.1307" y="67.2702" x="384.68634" stroke-width="0.5" fill="#493007"/>
            <rect stroke="#000" id="svg_32" height="52.12483" width="6.39149" y="62.92646" x="396.09971" stroke-width="0.5" fill="#3a2605"/>
            <rect stroke="#000" transform="matrix(0.5551923918462285,0.11417667259807453,-0.13200204480012362,0.480219984840033,175.86125277373327,-54.69631896728251) " id="svg_33" height="10.39999" width="45.59997" y="138.92492" x="434.05802" stroke-width="1.5" fill="#493007"/>
            <rect stroke="#000" transform="matrix(0.5686031294948598,-0.04196277918598569,0.04851404872819521,0.49181975516271975,141.414498596749,14.781203822659421) " id="svg_34" height="10.39999" width="27.99998" y="186.12489" x="436.45802" stroke-width="1.5" fill="#332205"/>
            <rect stroke="#000" id="svg_35" height="5.52839" width="28.7617" y="108.33825" x="397.92585" stroke-width="0.5" fill="#4f3307"/>
            <rect stroke="#000" transform="matrix(0.569715198986416,0.028526996384524838,-0.03298065856253125,0.49278165233966115,156.4144248253197,-18.37976922781567) " id="svg_36" height="114.58621" width="17.5591" y="130.03178" x="484.47843" stroke-opacity="null" stroke-width="1.5" fill="#332205"/>
            <rect stroke="#000" transform="matrix(0.5666373467498402,0.0585703998717321,-0.06771446716656127,0.49011942898052385,161.64575316186512,-34.3723026772052) " id="svg_37" height="14.4113" width="53.78982" y="137.31927" x="492.36306" stroke-width="1.5" fill="#493007"/>
            <rect stroke="#000" transform="matrix(0.5571811896772022,-0.10668257825441314,0.12333796522258453,0.48194021818304433,133.8806790982144,52.81368253426748) " id="svg_38" height="14.39999" width="52.27853" y="178.09049" x="490.48817" stroke-width="1.5" fill="#4f3307"/>
            <rect stroke="#000" transform="matrix(0.5618533797984314,0.08642653125816661,-0.09991952464072933,0.4859814822603949,170.88024508926117,-49.43758335071351) " id="svg_39" height="42.39998" width="14.39999" y="142.92492" x="527.65797" stroke-width="0.5" fill="#332205"/>
            <rect stroke="#000" transform="matrix(0.3303417327450883,0.4024975620299049,-0.46533586945594746,0.28573284544362804,376.00901528381445,-167.25379696282894) " id="svg_40" height="14.31913" width="74.51351" y="211.75865" x="480.25696" stroke-width="1.5" fill="#493007"/>
            <rect stroke="#000" transform="matrix(0.5664926220035762,0.05960858715945576,-0.06891473725454535,0.48999424766234034,177.49088865148008,-16.22322800762099) " id="svg_43" height="185.12308" width="26.93561" y="296.36324" x="207.39034" stroke-opacity="null" stroke-width="1.5" fill="#4f3307"/>
            <rect stroke="#000" transform="matrix(0.2863869963321589,0.4269490268418816,-0.4936047205276645,0.247713695390666,384.7676149853408,-30.669236729729263) " id="svg_44" height="16.79999" width="74.96489" y="322.56331" x="214.50931" stroke-opacity="null" stroke-width="1.5" fill="#332205"/>
            <rect stroke="#000" transform="matrix(0.5660301005131889,-0.06280987962169764,0.07261581858231102,0.48959418442955105,122.21508508123497,16.83569932986653) " id="svg_45" height="198.36824" width="19.06293" y="300.25292" x="304.05155" stroke-opacity="null" stroke-width="1.5" fill="#442d06"/>
            <rect stroke="#000" transform="matrix(-0.335915146405227,0.3990314933738335,-0.4613286748197047,-0.2905536330889319,559.4044929035539,142.41918968778003) " id="svg_46" height="18.26924" width="77.15529" y="322.28727" x="244.62192" stroke-opacity="null" stroke-width="1.5" fill="#3a2605"/>
            <rect stroke="#000" transform="matrix(0.5604293896891487,0.0930870108049192,-0.10761984467559056,0.4847497857913237,196.30332423423476,-32.15562749559912) " id="svg_47" height="196.29195" width="18.39999" y="302.34802" x="326.39581" stroke-opacity="null" stroke-width="1.5" fill="#493007"/>
            <rect stroke="#000" transform="matrix(0.5169600905270573,-0.20905491783976732,0.24169277315965934,0.44715052021924057,73.1055452214402,96.50483312606278) " id="svg_48" height="212.37633" width="18.39999" y="298.34249" x="383.87876" fill-opacity="null" stroke-opacity="null" stroke-width="1.5" fill="#332205"/>
            <rect stroke="#000" transform="matrix(0.5702332078087605,0.01928729130431301,-0.022298441817334022,0.49322970997241433,158.81822104788694,-12.32189609571271) " id="svg_54" height="202.89716" width="24.68919" y="296.40034" x="402.88853" stroke-opacity="null" stroke-width="1.5" fill="#2d1d03"/>
            <rect stroke="#000" transform="matrix(0.5682991082251544,0.04493851447547551,-0.05195435867994247,0.4915567885016611,171.529441862603,-25.607776602349205) " id="svg_56" height="197.23924" width="19.06293" y="297.99041" x="479.08356" stroke-opacity="null" stroke-width="1.5" fill="#3a2605"/>
            <rect stroke="#000" transform="matrix(0.16772313648430284,0.471806178374008,-0.5454650138031015,0.14507403783393874,548.0500879840715,-77.608893005796) " id="svg_55" height="16.79999" width="207.54106" y="389.89501" x="345.49139" stroke-opacity="null" stroke-width="1.5" fill="#3d2705"/>
            <rect stroke="#000" transform="matrix(0.5702332078087605,0.01928729130431301,-0.022298441817334022,0.49322970997241433,154.0051430890701,-9.93162964572084) " id="svg_11" height="110.43609" width="19.99999" y="129.28634" x="277.13378" stroke-width="1.5" fill="#442d06"/>
            <rect stroke="#000" transform="matrix(0.2863869963321589,0.4269490268418816,-0.4936047205276645,0.247713695390666,316.2888844873385,-95.50959085524548) " id="svg_13" height="16.79999" width="70.01014" y="152.70623" x="271.02991" stroke-width="1.5" fill="#332205"/>
            <rect stroke="#000" transform="matrix(-0.335915146405227,0.3990314933738335,-0.4613286748197047,-0.2905536330889319,526.8028055639188,-11.557087929512633) " id="svg_23" height="16.79999" width="72.38969" y="152.51583" x="297.8082" stroke-width="1.5" fill="#2b1c03"/>
            <g stroke="null" transform="matrix(0.5597863713129898,-0.09593802371751213,0.11091596047271679,0.4841935997207186,109.87615964994512,33.789930717397965) " id="svg_68">
                <rect stroke="#000" id="svg_49" height="20.30511" width="86.67313" y="384.80566" x="316.63863" stroke-opacity="null" stroke-width="1.5" fill="#633f04"/>
                <text stroke="#720606" transform="matrix(1,0,0,1.1035385131835938,0,-33.03904223674908) " opacity="0.7" xml:space="preserve" text-anchor="start" font-family="'Courier New', Courier, monospace" font-size="12" id="svg_67" y="391.24906" x="325.04319" fill="#7f0000">EXPLOSIVE!</text>
            </g>
        </g>
    </symbol>
</svg>