<svg width="700" height="700" xmlns="http://www.w3.org/2000/svg">
    <!-- Created with Method Draw - http://github.com/duopixel/Method-Draw/ -->
    <!-- Created with Method Draw - http://github.com/duopixel/Method-Draw/ -->
    <defs>
        <filter id="svg_67_blur">
            <feGaussianBlur stdDeviation="0"/>
        </filter>
    </defs>
    <symbol id="playerselection">
        <title>Layer 1</title>
        <rect stroke="#000" id="svg_1" height="700" width="700" y="0" x="0" stroke-width="0.5" fill="#333333"/>
        <g stroke="null" id="svg_6" transform="rotate(-31.671667098999023 303.8049621582031,84.06151580810538) ">
            <path stroke="#7f3f00" fill="none" stroke-width="NaN" fill-opacity="null" id="svg_49" d="m300.18719,73.96908c0,-0.04517 0.00545,-0.09051 0,-0.18067c-0.02197,-0.36344 -0.08771,-0.40649 -0.08771,-0.58716c0,-0.04517 0,-0.1355 0,-0.36133c0,-0.04517 0,-0.09034 0,-0.31616c0,-0.04517 0,-0.09034 0,-0.36133c0,-0.04517 -0.00608,-0.09077 0,-0.1355c0.04428,-0.32563 0.07093,-0.36477 0.08771,-0.40649c0.02373,-0.05902 0.08771,-0.31617 0.08771,-0.36133c0,-0.04517 0.0657,-0.08753 0.08771,-0.36133c0.00361,-0.04501 0.03314,-0.04584 0.04385,-0.1355c0.02209,-0.18483 0.01284,-0.23906 0.04385,-0.27099c0.031,-0.03194 0.07092,-0.22927 0.08771,-0.271c0.02373,-0.05901 0.06549,-0.08485 0.08769,-0.22583c0.00703,-0.04458 -0.01007,-0.09153 0,-0.13549c0.02254,-0.0983 0.03683,-0.13608 0.04385,-0.18067c0.02222,-0.14098 0.04385,-0.18067 0.04385,-0.22583c0,-0.04517 0.0567,-0.05839 0.08771,-0.09034c0.03101,-0.03194 0.02012,-0.07649 0.04385,-0.1355c0.01679,-0.04173 0.00655,-0.06658 0.04385,-0.09034c0.08341,-0.05309 0.03115,-0.13744 0.04385,-0.18067c0.04581,-0.15586 0.10055,-0.14872 0.13156,-0.18066c0.031,-0.03194 0.03041,-0.15623 0.08771,-0.18067c0.04051,-0.01728 0.08573,-0.02481 0.13156,-0.18067c0.0127,-0.04323 0.00655,-0.06658 0.04385,-0.09034c0.16682,-0.10619 0.15167,-0.21198 0.1754,-0.27099c0.01679,-0.04173 0.0567,-0.10357 0.08771,-0.1355c0.03101,-0.03194 0.08574,-0.06998 0.13156,-0.22583c0.01271,-0.04323 -0.03526,-0.11964 0.13156,-0.22583c0.03731,-0.02374 0.07093,-0.0486 0.08771,-0.09034c0.04747,-0.11802 0.10055,-0.14872 0.13156,-0.18067c0.031,-0.03193 0.13156,-0.09032 0.1754,-0.13549c0.04386,-0.04517 0.16197,-0.2014 0.21926,-0.22583c0.04051,-0.01729 0.03041,-0.0659 0.08771,-0.09034c0.04051,-0.01728 0.04719,-0.02789 0.08771,-0.04517c0.1146,-0.04889 0.13489,-0.11821 0.17541,-0.1355c0.05729,-0.02444 0.05669,-0.05839 0.08771,-0.09034c0.031,-0.03193 0.07997,-0.06712 0.17541,-0.09034c0.04268,-0.01037 0.05669,-0.01322 0.08769,-0.04517c0.06203,-0.06387 0.13491,-0.02787 0.17541,-0.04517c0.05729,-0.02444 0.17541,-0.09032 0.21926,-0.09032c0.04385,0 0.08888,-0.0348 0.13156,-0.04517c0.09543,-0.02321 0.1181,-0.0659 0.17541,-0.09034c0.04051,-0.01729 0.07425,-0.02073 0.13156,-0.04517c0.0405,-0.01729 0.1275,-0.06758 0.30695,-0.09034c0.04353,-0.00552 0.08445,-0.06764 0.30696,-0.09034c0.04363,-0.00445 0.11364,0.03538 0.3508,-0.09034c0.05515,-0.02923 0.08804,-0.03965 0.13156,-0.04517c0.17945,-0.02275 0.21926,-0.04517 0.26311,-0.04517c0.04385,0 0.26311,-0.04517 0.30696,-0.04517c0.04385,0 0.04385,-0.04517 0.2631,-0.04517c0.04385,0 0.1283,-0.02247 0.35082,-0.04517c0.04363,-0.00445 0.08771,0 0.13156,0c0.04385,0 0.1754,0 0.21926,0c0.04384,0 0.08769,0 0.21925,0c0.04385,0 0.08771,0 0.13156,0c0.04385,0 0.08771,0 0.13156,0c0.04385,0 0.08771,0 0.13156,0c0.08771,0 0.13156,0 0.17541,0c0.04384,0 0.08237,0.02229 0.21925,0.04517c0.04329,0.00724 0.08771,0 0.13156,0c0.04385,0 0.13156,0.04517 0.17541,0.04517c0.04385,0 0.08771,0 0.13156,0c0.04385,0 0.13156,0.04517 0.17541,0.04517c0.04385,0 0.07687,0.01503 0.13155,0.04517c0.19715,0.10867 0.31981,0.01324 0.35082,0.04517c0.03101,0.03194 0.04385,0.04517 0.08771,0.04517c0.04385,0 0.04418,0.03965 0.08771,0.04517c0.17945,0.02275 0.18825,0.05839 0.21926,0.09034c0.031,0.03193 0.08237,0.02229 0.21925,0.04517c0.04329,0.00723 0.04114,0.06767 0.30696,0.09034c0.0437,0.00372 0.05669,0.01322 0.08771,0.04517c0.03101,0.03193 0.1444,0.01322 0.17541,0.04517c0.031,0.03193 0.07997,0.02195 0.17541,0.04517c0.04268,0.01037 0.06465,0.00674 0.08769,0.04517c0.05155,0.08591 0.14441,0.01322 0.17541,0.04515c0.03101,0.03194 0.05669,0.01324 0.08771,0.04517c0.03101,0.03194 0.05669,0.01324 0.08771,0.04517c0.03101,0.03194 0.02079,0.05192 0.04385,0.09034c0.05155,0.08591 0.13489,0.02789 0.17541,0.04517c0.05729,0.02445 0.10055,0.0584 0.13156,0.09034c0.031,0.03194 0.04719,0.02789 0.08771,0.04517c0.05729,0.02445 0.05669,0.05839 0.08769,0.09034c0.03101,0.03194 0.0567,0.01322 0.08771,0.04517c0.03101,0.03193 0.04385,0.04517 0.08771,0.04517c0.04385,0 0.10055,0.01322 0.13156,0.04517c0.03101,0.03193 0.04719,0.02787 0.08771,0.04517c0.05729,0.02444 0.05669,0.05839 0.08771,0.09034c0.03101,0.03193 0.1444,0.05839 0.17541,0.09034c0.031,0.03193 0.01284,0.05839 0.04385,0.09032c0.031,0.03194 0.05669,0.01324 0.08771,0.04517c0.031,0.03194 0.06396,0.03132 0.08769,0.09034c0.01679,0.04173 0.01285,0.0584 0.04385,0.09034c0.03101,0.03194 0.0567,0.01324 0.08771,0.04517c0.03101,0.03194 0.01285,0.0584 0.04385,0.09034c0.03101,0.03194 0.01285,0.05839 0.04385,0.09034c0.03101,0.03194 0.04385,0.04517 0.08771,0.09034c0.04385,0.04517 0.05669,0.05839 0.08771,0.09034c0.03101,0.03193 0.00334,0.07304 0.04385,0.09034c0.05729,0.02444 0.07092,0.0486 0.08771,0.09034c0.02373,0.05901 0.05669,0.10356 0.08771,0.13549c0.031,0.03194 0.02706,0.0486 0.04385,0.09034c0.02373,0.05902 0.05669,0.10357 0.08769,0.1355c0.03101,0.03194 0.01285,0.0584 0.04386,0.09034c0.031,0.03194 0.06396,0.03132 0.08769,0.09034c0.01679,0.04173 0.04385,0.04517 0.04385,0.09034c0,0.04517 0.01285,0.05839 0.04385,0.09034c0.03101,0.03193 0.02708,0.0486 0.04385,0.09034c0.02374,0.05901 0.0567,0.05839 0.08771,0.09034c0.03101,0.03193 0.02012,0.07648 0.04385,0.13549c0.01678,0.04173 0.04385,0.04517 0.04385,0.09034c0,0.04517 0.04385,0.04517 0.04385,0.09034c0,0.04517 0.01284,0.0584 0.04385,0.09034c0.03101,0.03194 0,0.09034 0,0.1355c0,0.04517 0.01284,0.05839 0.04385,0.09034c0.031,0.03193 -0.03101,0.10356 0,0.1355c0.031,0.03193 0.01284,0.10356 0.04385,0.1355c0.031,0.03193 0.04385,0.04517 0.04385,0.09032c0,0.04517 0.02011,0.07649 0.04385,0.1355c0.01678,0.04173 0,0.09034 0,0.1355c0,0.04517 0.04385,0.04517 0.04385,0.1355c0,0.04517 0.01284,0.05839 0.04385,0.09034c0.06201,0.06387 -0.03101,0.14872 0,0.18067c0.031,0.03193 0.05669,0.05839 0.08769,0.09034c0.03101,0.03193 0.04025,0.06263 0.08771,0.18066c0.01679,0.04173 0.01285,0.0584 0.04385,0.09034c0.03101,0.03194 -0.031,0.10357 0,0.1355c0.03101,0.03194 0.04385,0.04517 0.04385,0.1355c0,0.04517 0.03115,0.04711 0.04385,0.09034c0.04581,0.15586 0.07093,0.18411 0.08771,0.22583c0.02374,0.05901 0.08771,0.09034 0.08771,0.13549c0,0.04517 0.05669,0.1939 0.08771,0.22583c0.03101,0.03194 0.02708,0.0486 0.04385,0.09034c0.02373,0.05901 0.06396,0.07649 0.08771,0.1355c0.01678,0.04173 0.04385,0.04517 0.04385,0.09034c0,0.04517 0.01284,0.05839 0.04385,0.09034c0.031,0.03193 0.04385,0.04517 0.04385,0.09034c0,0.04517 0.05669,0.14872 0.08771,0.18066c0.031,0.03194 0.24494,0.16196 0.30695,0.22583c0.03101,0.03194 0.26645,0.25371 0.30696,0.271c0.05729,0.02444 0.06017,0.06255 0.21926,0.18067c0.05031,0.03734 0.0551,0.10924 0.2631,0.18066c0.0416,0.01428 0.04503,0.0348 0.08771,0.04517c0.09543,0.02321 0.10056,0.0584 0.13156,0.09034c0.03101,0.03194 0.08771,0.04517 0.13156,0.04517c0.04385,0 0.04385,0.04517 0.08771,0.04517c0.04385,0 0.07425,0.02073 0.13156,0.04517c0.04051,0.01729 0.08771,0 0.13156,0c0.04384,0 0.07758,0.0137 0.13155,0.04517c0.15734,0.09175 0.21926,0.04517 0.26311,0.04517c0.08771,0 0.13156,0 0.17541,0c0.04385,0 0.04385,0.04517 0.08771,0.04517c0.08771,0 0.13156,0 0.17541,0c0.04385,0 0.08769,0 0.13155,0c0.04385,0 0.08771,0 0.13156,0c0.08771,0 0.13156,0 0.17541,0c0.08771,0 0.13156,0 0.17541,0c0.08771,0 0.13156,0 0.17541,0l0.04385,0"/>
            <ellipse stroke="#000000" fill="#000000" stroke-width="NaN" cx="300.31875" cy="88.53521" id="svg_47" rx="13.55011" ry="14.0693"/>
            <path stroke="#e51902" fill="none" stroke-width="NaN" fill-opacity="null" id="svg_69" d="m317.02617,73.51741c0,-0.04517 0.06242,-0.01934 0.30696,-0.22583c0.04796,-0.04049 0.69927,-0.49939 0.74547,-0.54199c0.41844,-0.38575 0.48236,-0.40649 0.57007,-0.49682c0.30696,-0.31616 0.2519,-0.48422 0.74547,-0.67749c0.04099,-0.01605 0.30696,-0.22583 0.35082,-0.271c0.04385,-0.04517 0.18825,-0.10356 0.21926,-0.1355c0.03101,-0.03194 0,0 0,0.04517c0,0.18067 0.0405,0.94862 0.04385,0.99366c0.04398,0.59234 0.21812,0.65555 0.30696,1.21949c0.00702,0.04458 0.16088,0.45421 0.17541,0.49682c0.09295,0.27291 0.2173,0.25063 0.26311,0.40649c0.01271,0.04323 0.01284,0.10356 0.04385,0.1355c0.03101,0.03194 0.04385,0.04517 0,0.04517c-0.04385,0 -0.17541,0 -0.21926,0c-0.17541,0 -0.21394,0.02229 -0.35082,0.04517c-0.04329,0.00723 -0.2321,0.01322 -0.26311,0.04517c-0.03101,0.03194 -0.10055,0.05839 -0.13156,0.09034c-0.03101,0.03194 -0.01284,0.05839 -0.04385,0.09034c-0.03101,0.03194 -0.05669,0.01322 -0.08771,0.04517c-0.03101,0.03194 -0.05669,0.01322 -0.08771,0.04517c-0.03101,0.03194 -0.08771,0.09034 -0.08771,0.1355c0,0.04517 -0.04385,0.04517 -0.04385,0.09034c0,0.1355 -0.00782,0.18139 0,0.22583c0.06685,0.37971 0.12453,0.40709 0.13156,0.45167c0.06663,0.42295 0.14556,0.486 0.17541,0.54199c0.19455,0.36503 0.11048,0.40825 0.13156,0.54199c0.06663,0.42295 0.12452,0.45225 0.13156,0.49682c0.04443,0.28197 0.12327,0.31698 0.13156,0.36133c0.04466,0.23883 0.10782,0.25715 0.13156,0.31617c0.01678,0.04173 -0.03101,0.10356 0,0.1355c0.03101,0.03194 0.04385,0.04517 0,0.04517c-0.04385,0 -0.08887,-0.03479 -0.13156,-0.04517c-0.09543,-0.0232 -0.12265,-0.05675 -0.17541,-0.09034c-0.23592,-0.15018 -0.30836,-0.11939 -0.39466,-0.1355c-0.36866,-0.06886 -0.39467,-0.18067 -0.48237,-0.22583c-0.26311,-0.1355 -0.30598,-0.18273 -0.39466,-0.22583c-0.39058,-0.18985 -0.39836,-0.2189 -0.48236,-0.271c-0.32316,-0.20041 -0.33302,-0.23762 -0.39467,-0.31617c-0.17653,-0.22491 -0.26774,-0.20563 -0.30696,-0.22583c-0.19611,-0.10099 -0.1361,-0.2216 -0.17541,-0.271c-0.10023,-0.12594 -0.11884,-0.13744 -0.13156,-0.18067c-0.04581,-0.15586 -0.08771,-0.18067 -0.13156,-0.22583c-0.04385,-0.04517 -0.01284,-0.10356 -0.04385,-0.1355c-0.03101,-0.03194 -0.06567,-0.17731 -0.08771,-0.4065c-0.00432,-0.04494 0,-0.31617 0,-0.36133c0,-0.1355 0.01008,-0.49804 0,-0.54199c-0.02253,-0.09829 -0.03377,-0.5432 -0.04385,-0.58716c-0.02253,-0.09829 -0.08771,-0.45167 -0.08771,-0.49682l0,-0.04517l-0.04385,-0.09034"/>
            <path stroke="#ff8300" fill="none" stroke-width="NaN" fill-opacity="null" id="svg_70" d="m316.76306,73.89819c0.0676,0 0.1352,0 0.20281,0c0.0676,0 0.15501,-0.01472 0.20282,-0.05027c0.0478,-0.03554 0.15501,-0.06499 0.20281,-0.10054c0.0478,-0.03554 0.27557,-0.13156 0.33802,-0.1508c0.08833,-0.02721 0.46328,-0.26005 0.54084,-0.30161c0.12263,-0.06573 0.58772,-0.32467 0.67605,-0.35188c0.06245,-0.01924 0.47838,-0.23211 0.54083,-0.25134c0.08833,-0.02721 0.35783,-0.2158 0.40562,-0.25134c0.0478,-0.03554 0.1352,-0.10054 0.1352,-0.05027c0,0.05027 0,0.1508 0,0.40215c0,0.05027 -0.03287,0.14195 -0.0676,0.25134c-0.07766,0.24462 -0.05645,0.30196 -0.0676,0.40215c-0.03392,0.30473 -0.12405,0.35222 -0.1352,0.45242c-0.03392,0.30473 -0.06762,0.35188 -0.06762,0.40215c0,0.25134 0,0.30161 0,0.35188c0,0.05027 0,0.20108 0,0.25134c0,0.05027 0,0.10054 0,0.1508c0,0.05027 -0.01979,0.06499 -0.0676,0.10054c-0.04781,0.03554 -0.13522,0 -0.20282,0c-0.0676,0 -0.15501,0.03554 -0.20281,0c-0.0478,-0.03554 -0.15501,-0.01472 -0.20282,-0.05027c-0.0478,-0.03554 -0.0676,-0.05027 -0.1352,-0.05027c-0.0676,0 -0.07275,0.03103 -0.13522,0.05027c-0.08833,0.02721 -0.0874,0.06499 -0.1352,0.10054c-0.0478,0.03554 -0.0676,0.05027 -0.0676,0.10054c0,0.05027 0,0.10054 0,0.1508c0,0.05027 0,0.10054 0,0.1508c0,0.10054 -0.00558,0.15099 0,0.20108c0.03392,0.30473 0.09863,0.33647 0.1352,0.40215c0.1811,0.3251 0.0676,0.35188 0.0676,0.40215c0,0.30161 0.05677,0.35254 0.0676,0.40215c0.03425,0.15691 0,0.25134 0.0676,0.25134c0.0676,0 0,-0.10054 0,-0.1508c0,-0.20108 -0.06694,-0.24081 -0.13522,-0.60323c-0.00938,-0.04978 -0.15571,-0.23975 -0.20281,-0.30161c-0.27467,-0.36073 -0.26953,-0.44022 -0.33802,-0.75403c-0.01083,-0.04962 -0.12242,-0.25225 -0.13522,-0.30161c-0.06885,-0.26582 -0.09364,-0.32032 -0.27042,-0.50269c-0.05591,-0.05768 -0.14531,-0.22492 -0.20281,-0.25134c-0.12859,-0.05909 -0.0676,-0.1508 -0.13522,-0.1508l0,-0.05027"/>
            <path stroke="#ffff00" fill="none" stroke-width="NaN" fill-opacity="null" id="svg_72" d="m319.26259,73.38192c0,0.04517 -0.04053,0.04696 -0.08771,0.1355c-0.12305,0.23086 -0.17541,0.271 -0.26311,0.36133c-0.04385,0.04517 -0.03394,0.12806 -0.26311,0.22583c-0.04051,0.01728 -0.18097,-0.04851 -0.30696,0.18067c-0.0216,0.03931 -0.06081,0.08661 -0.17541,0.1355c-0.04051,0.01728 -0.08771,0.04517 -0.13156,0.09034l-0.04385,0l-0.04385,0l0,0.04517"/>
        </g>
        <polyline stroke-linecap="round" id="svg_2" points="875.9998779296875,804 " opacity="0.5" fill-opacity="null" stroke-opacity="null" stroke-width="NaN" fill="none" stroke="#000000"/>
        <g stroke="#000" id="svg_5">
            <rect stroke="#000" transform="matrix(0.45631203959580435,0.02433381236203135,-0.026415780380541133,0.42034766302946747,69.67595513803704,27.937845715156804) " id="svg_4" height="114.58621" width="17.5591" y="43.1449" x="426.30896" stroke-width="0.5" fill="#442d06"/>
            <rect stroke="#000" transform="matrix(0.4224187483956093,0.160827533972686,-0.1745877198919867,0.3891256822090644,85.67930614637007,3.980419045697282) " id="svg_14" height="15.99999" width="53.59997" y="-38.57673" x="414.52813" stroke-width="0.5" fill="#332205"/>
            <rect stroke="#000" transform="matrix(0.44627295451895255,-0.09100130299553287,0.09878725119225029,0.4110998115926599,57.40941135250324,49.70208813617557) " id="svg_17" height="14.39999" width="52.27853" y="166.2706" x="425.81386" stroke-width="0.5" fill="#422b06"/>
            <rect stroke="#000" id="svg_16" height="11.45259" width="7.31321" y="67.43887" x="283.11064" stroke-width="0.5" fill="#332205"/>
            <rect stroke="#000" transform="matrix(0.43793941731811753,0.12055748395073089,-0.130872218947581,0.40342308474091376,87.163466775762,11.365691985225176) " id="svg_18" height="14.27141" width="56.94431" y="46.18205" x="423.11175" stroke-width="0.5" fill="#332205"/>
            <rect stroke="#000" id="svg_20" height="6.06314" width="27.79021" y="98.09139" x="263.36497" stroke-width="0.5" fill="#332205"/>
            <rect stroke="#000" id="svg_19" height="12.46311" width="4.02226" y="89.33353" x="286.76725" stroke-width="0.5" fill="#332205"/>
            <rect stroke="#000" transform="matrix(0.4564124929590914,-0.022678871101248586,0.024619244587582304,0.42044019912941033,63.852223111141996,39.78718318069982) " id="svg_24" height="110.45232" width="19.99999" y="79.39587" x="613.52287" stroke-width="0.5" fill="#3a2605"/>
            <rect stroke="#000" transform="matrix(0.45564876726417197,0.0332478999877475,-0.036092545266804124,0.419736666714751,71.2180240145419,19.629245854952373) " id="svg_25" height="112.79994" width="20.79999" y="39.03066" x="633.12783" stroke-width="0.5" fill="#493007"/>
            <rect stroke="#000" transform="matrix(0.4313682997772641,0.139217373743279,-0.1511286236305628,0.3973698718906976,87.66982877148291,-21.639384250228915) " id="svg_26" height="15.99999" width="53.59997" y="-24.46979" x="628.60616" stroke-width="0.5" fill="#332205"/>
            <rect stroke="#000" transform="matrix(0.4396339518759198,-0.11520503514811369,0.12506182187685155,0.4049840640258912,59.635514381684544,78.9671274189273) " id="svg_28" height="14.39999" width="52.27853" y="179.60637" x="631.3299" stroke-width="0.5" fill="#332205"/>
            <rect stroke="#000" transform="matrix(0.43793941731811753,0.12055748395073089,-0.130872218947581,0.40342308474091376,90.98231139311378,-13.588887527128108) " id="svg_29" height="14.27141" width="49.50831" y="45.1175" x="633.6673" stroke-width="0.5" fill="#332205"/>
            <rect stroke="#000" id="svg_30" height="6.06314" width="26.32756" y="98.09139" x="359.53371" stroke-width="0.5" fill="#3d2705"/>
            <rect stroke="#000" transform="matrix(0.4556791968495903,0.032892104915527964,-0.03570630885023279,0.4197646979828475,72.42061756403237,18.41944214672767) " id="svg_31" height="29.59998" width="8.79999" y="114.46243" x="681.14456" stroke-width="0.5" fill="#2b1c03"/>
            <rect stroke="#000" id="svg_27" height="11.45259" width="7.31321" y="65.08098" x="378.1824" stroke-width="0.5" fill="#493007"/>
            <rect stroke="#000" id="svg_32" height="44.463" width="5.11925" y="61.37573" x="387.32391" stroke-width="0.5" fill="#3a2605"/>
            <rect stroke="#000" transform="matrix(0.4446800316055216,0.09739384019517096,-0.1057267252141492,0.4096324353984225,80.18954676552315,-11.45503352542714) " id="svg_33" height="10.39999" width="45.59997" y="9.21682" x="697.21641" stroke-width="0.5" fill="#493007"/>
            <rect stroke="#000" transform="matrix(0.4554213301698189,-0.035794669061445905,0.03885721245211299,0.41952715514634664,62.47417497886573,47.95007140640669) " id="svg_34" height="10.39999" width="27.99998" y="143.18996" x="705.50241" stroke-width="0.5" fill="#332205"/>
            <rect stroke="#000" id="svg_35" height="4.71577" width="23.03662" y="100.11244" x="388.78655" stroke-width="0.5" fill="#4f3307"/>
            <rect stroke="#000" transform="matrix(0.45631203959580435,0.02433381236203135,-0.026415780380541133,0.42034766302946747,70.0533306671035,19.95973735664466) " id="svg_36" height="114.58621" width="17.5591" y="47.94489" x="754.30877" stroke-opacity="null" stroke-width="0.5" fill="#332205"/>
            <rect stroke="#000" transform="matrix(0.4538468411349854,0.049961135102924145,-0.05423574213552524,0.4180767599587815,72.34173291896519,6.266035520303134) " id="svg_37" height="14.4113" width="53.78982" y="38.53448" x="760.82185" stroke-width="0.5" fill="#493007"/>
            <rect stroke="#000" transform="matrix(0.44627295451895255,-0.09100130299553287,0.09878725119225029,0.4110998115926599,60.47862976503848,79.59826796070882) " id="svg_38" height="14.39999" width="52.27853" y="171.0706" x="753.81367" stroke-width="0.5" fill="#4f3307"/>
            <rect stroke="#000" transform="matrix(0.45001513413324146,0.07372269293231075,-0.0800303066608928,0.4145470501465587,77.96871888753418,-6.729768693509719) " id="svg_39" height="42.39998" width="14.39999" y="28.65193" x="793.91767" stroke-width="0.5" fill="#332205"/>
            <rect stroke="#000" transform="matrix(0.26458642862381754,0.3433344337619763,-0.3727096627688761,0.24373296623917812,221.62219929404733,-117.76506795053697) " id="svg_40" height="14.31913" width="74.51351" y="-78.79915" x="636.41164" stroke-width="0.5" fill="#493007"/>
            <rect stroke="#000" transform="matrix(0.4537309241921601,0.05084671921123981,-0.055197095620368626,0.41796997904617333,84.96702013725942,21.74365836900003) " id="svg_43" height="185.12308" width="26.93561" y="197.00131" x="475.7833" stroke-opacity="null" stroke-width="0.5" fill="#4f3307"/>
            <rect stroke="#000" transform="matrix(0.22938098657459108,0.36419177705502004,-0.39535153209676976,0.21130225215059076,226.95692185157648,-3.378956311332537) " id="svg_44" height="16.79999" width="74.96489" y="18.28758" x="349.63254" stroke-opacity="null" stroke-width="0.5" fill="#332205"/>
            <rect stroke="#000" transform="matrix(0.453360468699642,-0.053577453601995284,0.05816146794602774,0.4176287211195266,48.400896656155254,49.50235079205947) " id="svg_45" height="198.36824" width="19.06293" y="268.89011" x="571.78526" stroke-opacity="null" stroke-width="0.5" fill="#442d06"/>
            <rect stroke="#000" transform="matrix(-0.2690504410975827,0.3403778426377697,-0.3695001097136401,-0.24784514616926218,366.59608670772195,112.94991848441421) " id="svg_46" height="18.26924" width="77.15529" y="31.59751" x="80.65078" stroke-opacity="null" stroke-width="0.5" fill="#3a2605"/>
            <rect stroke="#000" id="svg_47" height="82.649" width="8.41019" y="131.19578" x="339.21108" stroke-opacity="null" stroke-width="0.5" fill="#493007"/>
            <rect stroke="#000" transform="matrix(0.41405796039444914,-0.1783259294284624,0.1935832543563225,0.38142385233737064,18.118198434934158,114.49999133001323) " id="svg_48" height="212.37633" width="18.39999" y="348.06381" x="627.51395" fill-opacity="null" stroke-opacity="null" stroke-width="0.5" fill="#332205"/>
            <rect stroke="#000" transform="matrix(0.4567269375354645,0.01645225179842603,-0.017859884172966693,0.4207298606578412,72.5621056670904,25.1216274704387) " id="svg_54" height="202.89716" width="24.68919" y="219.44748" x="672.93477" stroke-opacity="null" stroke-width="0.5" fill="#2d1d03"/>
            <rect stroke="#000" transform="matrix(0.45517782505374244,0.038333000934786816,-0.0416127205616324,0.41930284196239226,81.12173855529781,13.77912464845766) " id="svg_56" height="197.23924" width="19.06293" y="206.78294" x="748.2921" stroke-opacity="null" stroke-width="0.5" fill="#3a2605"/>
            <rect stroke="#000" transform="matrix(0.13433744901438469,0.40245537458785063,-0.4368889111954016,0.12374960082262104,354.5329160333206,-49.219477055814295) " id="svg_55" height="16.79999" width="207.54106" y="60.33578" x="423.76087" stroke-opacity="null" stroke-width="0.5" fill="#3d2705"/>
            <rect stroke="#000" transform="matrix(0.4567269375354645,0.01645225179842603,-0.017859884172966693,0.4207298606578412,68.70708227289512,27.160548585909318) " id="svg_11" height="110.43609" width="19.99999" y="52.33348" x="547.18002" stroke-width="0.5" fill="#442d06"/>
            <rect stroke="#000" transform="matrix(0.22938098657459108,0.36419177705502004,-0.39535153209676976,0.21130225215059076,172.1090448104377,-58.68842491118487) " id="svg_13" height="16.79999" width="70.01014" y="-151.5695" x="406.15314" stroke-width="0.5" fill="#332205"/>
            <rect stroke="#000" transform="matrix(-0.2690504410975827,0.3403778426377697,-0.3695001097136401,-0.24784514616926218,340.48380374967434,-18.393350657119896) " id="svg_23" height="16.79999" width="72.38969" y="-138.17393" x="133.83706" stroke-width="0.5" fill="#2b1c03"/>
            <g stroke="null" transform="matrix(0.44835956858131,-0.08183609084034099,0.08883787590199042,0.413021968513028,40.58405568991844,63.53818549206107) " id="svg_68">
                <rect stroke="#000" id="svg_49" height="20.30511" width="86.67313" y="371.82548" x="581.25417" stroke-opacity="null" stroke-width="0.5" fill="#633f04"/>
                <text stroke="#720606" transform="matrix(1,0,0,1.1035385131835938,0,-33.03904223674908) " opacity="0.7" filter="url(#svg_67_blur)" xml:space="preserve" text-anchor="start" font-family="'Courier New', Courier, monospace" font-size="12" id="svg_67" y="379.48673" x="589.65873" fill="#7f0000">EXPLOSIVE!</text>
            </g>
        </g>

    </symbol>
    <symbol id="svg_players1">
        <rect stroke="#000" id="svg_22" height="58.94735" width="339.58647" y="284.39845" x="180.20675" stroke-width="0.5" fill="#3a2605"/>
        <text stroke="#000" transform="matrix(2.43540620803833,0,0,1.8927964821408807,-390.5650579184294,-287.3431814057054) " xml:space="preserve" text-anchor="start" font-family="'Courier New', Courier, monospace" font-size="22" id="svg_8" y="324.81615" x="251.30063" stroke-width="0.5" fill="#000000">1 Player</text>
    </symbol>
    <symbol id="svg_players2">
        <rect stroke="#000" id="svg_52" height="58.94735" width="339.58647" y="384.39853" x="180.20675" stroke-width="0.5" fill="#3a2605"/>
        <text stroke="#000000" transform="matrix(2.43540620803833,0,0,1.8927964821408807,-390.5650579184294,-287.3431814057054) " xml:space="preserve" text-anchor="start" font-family="'Courier New', Courier, monospace" font-size="22" id="svg_57" y="377.2707" x="244.6959" stroke-width="null" fill="#7f0000">2 Players</text>
    </symbol>
    <symbol id="svg_players3">
        <rect stroke="#000" id="svg_58" height="58.94735" width="339.58647" y="484.39861" x="180.20675" stroke-width="0.5" fill="#3a2605"/>
        <text stroke="#000000" transform="matrix(2.43540620803833,0,0,1.8927964821408807,-390.5650579184294,-287.3431814057054) " xml:space="preserve" text-anchor="start" font-family="'Courier New', Courier, monospace" font-size="22" id="svg_59" y="430.10262" x="244.6959" stroke-width="null" fill="#7f0000">3 Players</text>
    </symbol>
    <symbol id="svg_players4">
        <rect stroke="#000" id="svg_60" height="58.94735" width="339.58647" y="584.39868" x="180.20675" stroke-width="0.5" fill="#3a2605"/>
        <text stroke="#000000" transform="matrix(2.43540620803833,0,0,1.8927964821408807,-390.5650579184294,-287.3431814057054) " xml:space="preserve" text-anchor="start" font-family="'Courier New', Courier, monospace" font-size="22" id="svg_61" y="482.93455" x="244.6959" stroke-width="null" fill="#7f0000">4 Players</text>
    </symbol>
</svg>