<svg width="37" height="37" xmlns="http://www.w3.org/2000/svg">

<symbol id="p1" stroke="null">
    <title>player1</title>
    <path transform="rotate(-140.1476287841797 22.10000228881836,11.308545112609863) " d="m20.43177,11.91567c0,-0.05442 0.01594,-0.07035 0.05442,-0.10883c0.03848,-0.03848 0.07035,-0.07035 0.10883,-0.10883c0.03848,-0.03848 0.07035,-0.07036 0.10883,-0.10883c0.03848,-0.03848 0.05442,-0.05442 0.05442,-0.10883c0,-0.05442 0.01594,-0.07035 0.05442,-0.10883c0.03848,-0.03848 0.09215,-0.07938 0.16325,-0.10883c0.05027,-0.02082 0.07035,-0.01594 0.10883,-0.05442c0.03848,-0.03848 0.03773,-0.07938 0.10883,-0.10883c0.05027,-0.02082 0.05442,-0.05442 0.10883,-0.05442c0.05442,0 0.05442,-0.05442 0.10883,-0.05442c0.05441,0 0.05441,-0.05442 0.10883,-0.05442c0.05441,0 0.05441,-0.05442 0.10883,-0.05442c0.05442,0 0.10883,-0.05442 0.16325,-0.05442c0.05442,0 0.05442,-0.05442 0.10883,-0.05442c0.05442,0 0.07035,-0.01594 0.10883,-0.05442c0.03848,-0.03848 0.10883,0 0.16325,0c0.05442,0 0.10883,0 0.16325,0c0.05442,0 0.10883,0 0.16325,0c0.05442,0 0.10883,0 0.16325,0c0.05442,0 0.12477,-0.03848 0.16325,0c0.03848,0.03848 0.07035,0.01594 0.10883,0.05442c0.03848,0.03848 0.07035,0.01594 0.10883,0.05442c0.03848,0.03848 0.01594,0.07035 0.05442,0.10883c0.03848,0.03848 0.07035,0.01594 0.10883,0.05442c0.03848,0.03848 0.05442,0.05442 0.10883,0.05442c0.05442,0 0.03773,0.07938 0.10883,0.10883c0.05027,0.02082 0.07035,0.01594 0.10883,0.05442c0.03848,0.03848 0.07938,0.09215 0.10883,0.16325c0.02082,0.05027 0.05442,0.05442 0.05442,0.10883c0,0.05442 0.01594,0.07035 0.05441,0.10883c0.03848,0.03848 0,0.10883 0,0.16325l0,0.05442" id="svg_49" fill-opacity="null" stroke-width="NaN" stroke="#703702" fill="none"/>
    <ellipse ry="4.65256" rx="8.24402" id="svg_39" cy="18.5" cx="18.5" stroke-width="NaN" stroke="#a50000" fill="#bf0000"/>
    <ellipse stroke="#000000" transform="rotate(2.3192038536071777 26.7712230682372,11.84621238708491) " ry="3.12993" rx="3.16293" cy="11.84621" cx="26.77122" stroke-width="NaN" fill="#000000"/>
    <ellipse stroke="#7f3f00" ry="3.72749" rx="1.16994" id="svg_42" cy="16.73148" cx="25.95498" stroke-width="NaN" fill="#7f3f00"/>
    <ellipse stroke="#7f3f00" ry="3.67308" rx="1.16994" id="svg_46" cy="17.00356" cx="10.60969" stroke-width="NaN" fill="#7f3f00"/>
    <path stroke="#0d1893" d="m16.56823,16.54103c0,0.05442 0,0.10883 0,0.16325c0,0.05442 0,0.16325 0,0.21766c0,0.05442 0,0.16325 0,0.21766c0,0.05442 0.10883,0.10883 0.10883,0.16325c0,0.05442 0,0.10883 0,0.16325l0,0.05442" id="svg_52" fill-opacity="null" stroke-width="NaN" fill="none"/>
    <path stroke="#0d1893" d="m20.26852,16.64986c0,0.05442 0,0.10883 0,0.16325c0,0.05442 0,0.16325 0,0.21766c0,0.05442 0,0.16325 0,0.21767c0,0.05441 0.32649,0.10883 0.32649,0.16325c0,0.05441 0,0.10883 0,0.16324l0,0.05442" id="svg_54" fill-opacity="null" stroke-width="NaN" fill="none"/>
    <rect stroke="#0000bc" transform="rotate(43.670494079589844 11.830905914306637,13.113525390625) " id="svg_55" height="2.12222" width="0.58186" y="12.05242" x="11.53997" fill-opacity="null" stroke-width="NaN" fill="none"/>
    <path stroke="#ff6100" d="m12.93054,11.85009c-0.04286,0 -0.06931,-0.00228 -0.08571,-0.03c-0.02319,-0.0392 -0.02646,-0.06228 -0.04286,-0.09c-0.02319,-0.03919 -0.04286,-0.09 -0.04286,-0.11999c0,-0.03 0,-0.06 0,-0.14999c0,-0.03 0.04286,-0.06 0.04286,-0.09c0,-0.03 0.11217,-0.30227 0.12857,-0.32998c0.02319,-0.03919 0.03762,-0.06022 0.04286,-0.09c0.04318,-0.24552 0.11484,-0.30076 0.12857,-0.35998c0.06512,-0.28092 0.09577,-0.30455 0.12857,-0.35998c0.02319,-0.0392 0.12857,-0.20999 0.12857,-0.23999c0,-0.03 0.06369,-0.05471 0.08571,-0.11999c0.00985,-0.0292 0.01255,-0.03879 0.04286,-0.06c0.0303,-0.02121 0.09826,-0.03878 0.12857,-0.06c0.0303,-0.02121 0.04363,-0.02433 0.08571,-0.03c0.22662,-0.03055 0.25713,-0.06 0.29999,-0.06c0.04286,0 0.08571,-0.03 0.21428,-0.03c0.04286,0 0.08571,0 0.12857,0c0.04286,0 0.08571,0 0.08571,0.03c0,0.03 0.04286,0.03 0.04286,0.06c0,0.03 -0.0164,0.06228 0,0.09c0.02319,0.03919 0.04286,0.06 0.04286,0.09c0,0.03 0,0.06 0,0.09c0,0.03 0,0.06 0,0.09c0,0.03 0.04612,0.01852 0.08571,0.03c0.05599,0.01623 0.08051,0.0448 0.21428,0.06c0.0423,0.00481 0.10732,-0.02893 0.29999,0.06c0.0506,0.02335 0.27008,-0.06392 0.42856,0.09c0.02506,0.02434 0.099,0.04012 0.21428,0.09c0.05156,0.0223 0.07257,0.07376 0.12857,0.09c0.03959,0.01148 0.05541,0.00879 0.08571,0.03c0.0303,0.02121 0,0.06 0,0.09c0,0.03 -0.01255,0.03879 -0.04285,0.06c-0.0303,0.02121 -0.05541,0.03879 -0.08571,0.06c-0.0303,0.02121 -0.05541,0.00879 -0.08571,0.03c-0.0303,0.02121 -0.02972,0.04376 -0.08571,0.06c-0.03959,0.01148 -0.04286,0.03 -0.08571,0.03c-0.04286,0 -0.05541,0.00879 -0.08571,0.03c-0.0303,0.02121 -0.05541,0.00879 -0.08571,0.03c-0.0303,0.02121 -0.0303,0.06878 0,0.09c0.0303,0.02121 0.06252,0.0208 0.08571,0.06c0.0164,0.02772 0.06252,0.0208 0.08571,0.06c0.0164,0.02772 0.02968,0.03558 0.08571,0.09c0.03544,0.03442 0.05541,0.03879 0.08571,0.06c0.06061,0.04242 0.04286,0.06 0.04286,0.09c0,0.03 0.0303,0.06878 0,0.09c-0.0303,0.02121 -0.04612,0.01852 -0.08571,0.03c-0.05599,0.01623 -0.08571,0.03 -0.12857,0.03c-0.04286,0 -0.17142,0.03 -0.21428,0.03c-0.04286,0 -0.08253,0.04492 -0.29999,0.06c-0.04265,0.00296 -0.08592,-0.00296 -0.12857,0c-0.21746,0.01507 -0.26969,0.03879 -0.29999,0.06c-0.0303,0.02121 -0.12857,0.06 -0.17142,0.06c-0.04286,0 -0.08571,0 -0.12857,0c-0.04286,0 -0.08571,0 -0.12857,0c-0.04286,0 -0.08571,0 -0.17142,0c-0.04286,0 -0.08603,-0.00367 -0.12857,0c-0.17537,0.01511 -0.21428,0.03 -0.25713,0.03c-0.04286,0 -0.17142,0.03 -0.21428,0.03c-0.04286,0 -0.04286,0.03 -0.08571,0.03c-0.04286,0 -0.04286,0.03 -0.08571,0.03c-0.04286,0 -0.09826,0.00879 -0.12857,0.03c-0.0303,0.02121 -0.05541,0.00879 -0.08571,0.03c-0.0303,0.02121 -0.04286,0.03 -0.08571,0.03l0,0.03l-0.04286,0l0.04286,0" id="svg_57" fill-opacity="null" stroke-width="NaN" fill="none"/>
    <path stroke="#fff600" d="m13.39646,11.34249c0,-0.01542 0,-0.03084 0,-0.04625c0,-0.03084 0,-0.04625 0,-0.06167c0,-0.04625 0.01402,-0.06025 0.02826,-0.12334c0.00345,-0.0153 0.02373,-0.07729 0.02826,-0.09251c0.01431,-0.04813 0.01745,-0.06284 0.02826,-0.07709c0.01529,-0.02014 0.02826,-0.04625 0.02826,-0.06167c0,-0.01542 0.02826,-0.01542 0.02826,-0.04625c0,-0.01542 0.01297,-0.02611 0.02826,-0.04625c0.01081,-0.01424 0.02826,-0.01542 0.02826,-0.03084c0,-0.01542 0.03654,-0.00452 0.05652,-0.01542c0.01998,-0.0109 0.00828,-0.01993 0.02826,-0.03084c0.01998,-0.0109 0.02826,-0.01542 0.05652,-0.01542c0.02826,0 0.02826,-0.01542 0.05652,-0.01542c0.02826,0 0.02826,-0.01542 0.05652,-0.01542c0.02826,0 0.05652,0 0.08478,0c0.02826,0 0.05652,0 0.08478,0c0.02826,0 0.04785,0.00707 0.08478,0.01542c0.02611,0.0059 0.00828,0.01993 0.02826,0.03084c0.01998,0.0109 0.00828,0.01993 0.02826,0.03084c0.01998,0.0109 0.03654,0.00452 0.05652,0.01542c0.01998,0.0109 0.00828,0.01993 0.02826,0.03084c0.01998,0.0109 0.00828,0.01993 0.02826,0.03084c0.01998,0.0109 0,0.03084 0,0.04625c0,0.01542 0,0.03084 0,0.04625c0,0.01542 0,0.03084 0,0.04625c0,0.01542 0,0.03084 0,0.04625c0,0.01542 0.02826,0.01542 0.05652,0.01542c0.02826,0 0.0399,0.00048 0.1413,-0.03084c0.03478,-0.01074 0.05652,-0.01542 0.08478,-0.01542c0.02826,0 0.03654,0.00452 0.05652,0.01542c0.01998,0.0109 0.02826,0.01542 0.02826,0.03084c0,0.01542 0.02826,0.01542 0.02826,0.03084c0,0.01542 0.01081,0.03201 0,0.04625c-0.01529,0.02014 -0.03654,0.01993 -0.05652,0.03084c-0.01998,0.0109 0.01998,0.03535 0,0.04625c-0.01998,0.0109 -0.02826,0.01542 -0.02826,0.03084c0,0.01542 -0.02826,0.03084 -0.02826,0.04625c0,0.01542 0.01998,0.03535 0,0.04625c-0.01998,0.0109 -0.01744,0.01659 -0.02826,0.03084c-0.01529,0.02014 -0.03654,0.03535 -0.05652,0.04625c-0.01998,0.0109 -0.03654,0.00452 -0.05652,0.01542c-0.01998,0.0109 -0.00828,0.01993 -0.02826,0.03084c-0.01998,0.0109 -0.03041,0.00952 -0.05652,0.01542c-0.03692,0.00834 -0.0648,0.01993 -0.08478,0.03084c-0.01998,0.0109 -0.0196,0.02249 -0.05652,0.03084c-0.02611,0.0059 -0.06479,0.00452 -0.08478,0.01542c-0.01998,0.0109 -0.02826,0.01542 -0.05652,0.01542c-0.02826,0 -0.06479,0.0109 -0.08478,0c-0.01998,-0.0109 -0.03654,-0.00452 -0.05652,-0.01542c-0.01998,-0.0109 -0.0196,-0.02249 -0.05652,-0.03084c-0.02611,-0.0059 -0.02826,-0.01542 -0.05652,-0.01542c-0.02826,0 -0.05652,0 -0.08478,0c-0.02826,0 -0.05652,0 -0.08478,0c-0.02826,0 -0.05652,0 -0.08478,0c-0.02826,0 0,0 0.02826,0c0.02826,0 0.31274,-0.08459 0.36737,-0.09251c0.2202,-0.0319 0.32422,-0.03536 0.42389,-0.12334c0.01486,-0.01312 0.13302,-0.05077 0.11304,-0.06167c-0.01998,-0.0109 -0.03041,0.00952 -0.05652,0.01542c-0.03692,0.00834 -0.08478,0.03084 -0.11304,0.03084c-0.02826,0 -0.05391,0.02307 -0.16955,0.03084c-0.02805,0.00188 -0.02565,0.02307 -0.1413,0.03084c-0.02805,0.00188 -0.09785,-0.03469 -0.16956,0.01542c-0.01739,0.01215 -0.03256,0.00362 -0.08478,0.01542c-0.03692,0.00834 -0.02826,0 -0.02826,-0.01542c0,-0.01542 0.03452,-0.0743 0.05652,-0.09251c0.08377,-0.06931 0.09541,-0.07833 0.1413,-0.13876c0.01081,-0.01424 0.05652,-0.04625 0.05652,-0.06167c0,-0.01542 0.00828,-0.0109 0.02826,0c0.01998,0.0109 -0.03118,0.04481 -0.05652,0.06167c-0.0646,0.04299 -0.05146,0.06628 -0.1413,0.09251c-0.02492,0.00728 -0.03654,0.02632 -0.05652,0.01542c-0.01998,-0.0109 0,-0.03084 0,-0.04625c0,-0.01542 -0.03244,-0.03436 0,-0.07709c0.01529,-0.02014 0.02826,-0.03084 0.02826,-0.10793c0,-0.01542 0,-0.03084 0,-0.04625c0,-0.01542 0,-0.03084 0,-0.01542c0,0.01542 0.02826,0.01542 0.02826,0.04625c0,0.01542 -0.01081,0.03201 0,0.04625c0.01529,0.02014 0.02826,0.03084 0.02826,0.07709c0,0.01542 -0.01744,0.04743 -0.02826,0.06167c-0.01529,0.02014 -0.00828,0.03535 -0.02826,0.04625c-0.01998,0.0109 -0.03315,0.02857 -0.05652,0.04625c-0.03695,0.02797 -0.04872,0.04969 -0.1413,0.10793c-0.02618,0.01647 -0.1413,0.07709 -0.16956,0.09251c-0.08478,0.04625 -0.08754,0.05896 -0.1413,0.07709c-0.02404,0.00811 -0.03654,0.00452 -0.05652,0.01542c-0.01998,0.0109 -0.00828,0.01993 -0.02826,0.03084c-0.01998,0.0109 -0.02826,0.01542 -0.08478,0.03084l0,0.01542" id="svg_58" fill-opacity="null" stroke-width="NaN" fill="none"/>
    <path d="m16.13291,15.39829c0,-0.05442 0.05856,-0.03359 0.10883,-0.05442c0.0711,-0.02945 0.10883,-0.05442 0.16325,-0.05442c0.05441,0 0.10883,-0.05442 0.16325,-0.05442c0.10883,0 0.16325,0 0.21766,0c0.05442,0 0.10381,-0.027 0.3265,-0.05442c0.05401,-0.00665 0.10883,0 0.16325,0c0.05441,0 0.27208,0 0.32649,0c0.05442,0 0.10883,0 0.16325,0c0.21766,0 0.3265,0 0.38091,0c0.05441,0 0.10883,0 0.38091,0c0.05442,0 0.10883,0 0.16325,0c0.05441,0 0.27208,0 0.3265,0c0.05441,0 0.10883,0 0.16325,0c0.16325,0 0.21766,0 0.27208,0c0.05441,0 0.10883,0 0.16325,0c0.05442,0 0.10883,0 0.16325,0c0.05442,0 0.10883,0 0.16325,0c0.05442,0 0.05442,0.05442 0.10883,0.05442c0.05442,0 0.12477,-0.03848 0.16325,0c0.03848,0.03848 0.05442,0.05442 0.10883,0.05442c0.05441,0 0.05441,0.05442 0.10883,0.05442c0.05441,0 0.10883,0 0.16325,0c0.05441,0 0.05441,0.05442 0.10883,0.05442l0.05442,0l0.05441,0l0.05442,0" id="svg_59" fill-opacity="null" stroke-opacity="null" stroke-width="NaN" stroke="#0d1893" fill="none"/>
    <ellipse transform="rotate(14.961487770080566 16.758689880371072,22.145868301391605) " ry="1.85014" rx="4.46211" id="svg_60" cy="22.14587" cx="16.75869" stroke-width="NaN" stroke="#7f3f00" fill="#7f3f00"/>
    <ellipse ry="0.02721" id="svg_63" cy="30.33547" cx="7.37194" stroke-width="NaN" stroke="#000000" fill="#000000"/>
    <ellipse transform="rotate(16.61952781677246 15.888034820556646,23.914386749267578) " stroke="#7f3f00" ry="2.0406" rx="1.74131" id="svg_62" cy="23.91439" cx="15.88804" stroke-width="NaN" fill="#7f3f00"/>
    <path d="m13.62977,22.69003c0,-0.05441 0,-0.10883 0,-0.16325c0,-0.05441 0.03359,-0.05856 0.05442,-0.10883c0.02945,-0.0711 0.07035,-0.07035 0.10883,-0.10883c0.03848,-0.03848 0.07035,-0.07036 0.10883,-0.10883c0.03848,-0.03848 0.03773,-0.07938 0.10883,-0.10883c0.05027,-0.02082 0.05442,-0.05441 0.10883,-0.10883c0.05442,-0.05442 0.1338,-0.03773 0.16325,-0.10883c0.02082,-0.05027 0.00533,-0.09928 0.10883,-0.16325c0.04629,-0.02861 0.07035,-0.01594 0.10883,-0.05442c0.03848,-0.03848 0.07036,-0.01594 0.10883,-0.05441c0.03848,-0.03848 0.07035,-0.01594 0.10883,-0.05442c0.03848,-0.03848 0.07035,-0.01594 0.10883,-0.05442c0.03848,-0.03848 0.10883,0 0.16325,0c0.05442,0 0.10883,0 0.16325,0c0.05442,0 0.07036,-0.01594 0.10883,-0.05441c0.03848,-0.03848 0.10883,0 0.16325,0c0.05442,0 0.10883,0 0.16325,0c0.05442,0 0.10883,0 0.16325,0c0.05442,0 0.10883,0 0.16325,0c0.05442,0 0.10883,0 0.16325,0c0.05441,0 0.10883,0 0.16325,0c0.05441,0 0.05441,0.05441 0.10883,0.05441c0.05441,0 0.09215,0.02497 0.16325,0.05442c0.05027,0.02082 0.10883,0.05442 0.16325,0.05442c0.05441,0 0.07035,0.01594 0.10883,0.05441c0.03848,0.03848 0.12477,-0.03848 0.16325,0c0.03848,0.03848 0.05441,0.05442 0.10883,0.05442c0.05442,0 0.07035,0.01594 0.10883,0.05442c0.03848,0.03848 0.07035,0.01594 0.10883,0.05441c0.03848,0.03848 0.11298,-0.02082 0.16325,0c0.0711,0.02945 0.12477,0.01594 0.16325,0.05442c0.03848,0.03848 0.07035,0.01594 0.10883,0.05441c0.03848,0.03848 0.05442,0.05442 0.10883,0.05442c0.05441,0 0.05441,0.05442 0.10883,0.05442c0.05442,0 0.07035,0.01594 0.10883,0.05441c0.03848,0.03848 0.05442,0.05442 0.10883,0.05442c0.05442,0 0.07035,0.01594 0.10883,0.05441c0.03848,0.03848 0.01594,0.07036 0.05441,0.10883c0.03848,0.03848 0.01594,0.07035 0.05442,0.10883c0.03848,0.03848 0.05442,0.05442 0.05442,0.10883c0,0.05442 0.05441,0.05442 0.05441,0.10883c0,0.05441 0.01594,0.12477 0.05442,0.16325c0.03848,0.03848 0.05441,0.05442 0.05441,0.10883c0,0.05441 0.05442,0.10883 0.05442,0.16325c0,0.05442 0.05442,0.05442 0.05442,0.10883c0,0.05441 0.05441,0.05441 0.05441,0.10883c0,0.05442 -0.03848,0.12477 0,0.16325c0.03848,0.03848 0.05442,0.05441 0.05442,0.10883c0,0.05442 0,0.10883 0,0.16325c0,0.05442 0,0.10883 0,0.16325c0,0.05441 0,0.10883 0,0.16325c0,0.05441 0,0.10883 0,0.16325c0,0.05441 -0.05442,0.05441 -0.05442,0.10883c0,0.05441 -0.01594,0.07035 -0.05441,0.10883c-0.03848,0.03848 0,0.10883 -0.05442,0.16325l0,0.05442" id="svg_70" fill-opacity="null" stroke-width="NaN" stroke="#9b4800" fill="none"/>
</symbol>

    <symbol id="p2" stroke="null">
    <title>player</title>
        <g id="svg_77">
            <path transform="rotate(-140.1476287841797 21.99117088317871,11.83766174316406) " stroke="#703702" d="m20.32293,12.44479c0,-0.05442 0.01594,-0.07035 0.05442,-0.10883c0.03848,-0.03848 0.07035,-0.07035 0.10883,-0.10883c0.03848,-0.03848 0.07035,-0.07036 0.10883,-0.10883c0.03848,-0.03848 0.05442,-0.05442 0.05442,-0.10883c0,-0.05442 0.01594,-0.07035 0.05442,-0.10883c0.03848,-0.03848 0.09215,-0.07938 0.16325,-0.10883c0.05027,-0.02082 0.07035,-0.01594 0.10883,-0.05442c0.03848,-0.03848 0.03773,-0.07938 0.10883,-0.10883c0.05027,-0.02082 0.05442,-0.05442 0.10883,-0.05442c0.05442,0 0.05442,-0.05442 0.10883,-0.05442c0.05441,0 0.05441,-0.05442 0.10883,-0.05442c0.05441,0 0.05441,-0.05442 0.10883,-0.05442c0.05442,0 0.10883,-0.05442 0.16325,-0.05442c0.05442,0 0.05442,-0.05442 0.10883,-0.05442c0.05442,0 0.07035,-0.01594 0.10883,-0.05442c0.03848,-0.03848 0.10883,0 0.16325,0c0.05442,0 0.10883,0 0.16325,0c0.05442,0 0.10883,0 0.16325,0c0.05442,0 0.10883,0 0.16325,0c0.05442,0 0.12477,-0.03848 0.16325,0c0.03848,0.03848 0.07035,0.01594 0.10883,0.05442c0.03848,0.03848 0.07035,0.01594 0.10883,0.05442c0.03848,0.03848 0.01594,0.07035 0.05442,0.10883c0.03848,0.03848 0.07035,0.01594 0.10883,0.05442c0.03848,0.03848 0.05442,0.05442 0.10883,0.05442c0.05442,0 0.03773,0.07938 0.10883,0.10883c0.05027,0.02082 0.07035,0.01594 0.10883,0.05442c0.03848,0.03848 0.07938,0.09215 0.10883,0.16325c0.02082,0.05027 0.05442,0.05442 0.05442,0.10883c0,0.05442 0.01594,0.07035 0.05441,0.10883c0.03848,0.03848 0,0.10883 0,0.16325l0,0.05442" id="svg_49" fill-opacity="null" stroke-width="NaN" fill="none"/>
            <ellipse stroke="#1526c1" ry="4.65256" rx="8.24402" id="svg_39" cy="19.02912" cx="18.39117" stroke-width="NaN" fill="#0006bc"/>
            <ellipse stroke="#000000" transform="rotate(2.3192038536071777 26.7712230682372,11.84621238708491) " ry="3.12993" rx="3.16293" cy="11.84621" cx="26.77122" stroke-width="NaN" fill="#000000"/>
            <ellipse stroke="#00597a" ry="3.72749" rx="1.16994" id="svg_42" cy="17.2606" cx="25.84615" stroke-width="NaN" fill="#00597a"/>
            <ellipse stroke="#00597a" ry="3.67308" rx="1.16994" id="svg_46" cy="17.53268" cx="10.50086" stroke-width="NaN" fill="#00597a"/>
            <path stroke="#00bf00" d="m16.4594,17.07014c0,0.05442 0,0.10883 0,0.16325c0,0.05442 0,0.16325 0,0.21766c0,0.05442 0,0.16325 0,0.21766c0,0.05442 0.10883,0.10883 0.10883,0.16325c0,0.05442 0,0.10883 0,0.16325l0,0.05442" id="svg_52" stroke-width="NaN" fill="none"/>
            <path stroke="#00bf00" d="m20.15968,17.17897c0,0.05442 0,0.10883 0,0.16325c0,0.05442 0,0.16325 0,0.21766c0,0.05442 0,0.16325 0,0.21767c0,0.05441 0.32649,0.10883 0.32649,0.16325c0,0.05441 0,0.10883 0,0.16324l0,0.05442" id="svg_54" stroke-width="NaN" fill="none"/>
            <rect stroke="#0000bc" transform="matrix(0.7318902462937458,0.6928289931728896,-0.6986887658575741,0.7257520189699457,12.466238497159203,-4.432146985063653) " id="svg_55" height="2.12222" width="0.58186" y="12.57369" x="11.45049" fill-opacity="null" stroke-width="NaN" fill="none"/>
            <path stroke="#ff6100" d="m12.64585,12.33045c-0.04336,0 -0.07013,-0.00229 -0.08673,-0.0301c-0.02347,-0.03933 -0.02677,-0.06249 -0.04336,-0.0903c-0.02347,-0.03933 -0.04336,-0.0903 -0.04336,-0.1204c0,-0.0301 0,-0.0602 0,-0.1505c0,-0.0301 0.04336,-0.0602 0.04336,-0.0903c0,-0.0301 0.1135,-0.30328 0.13009,-0.33109c0.02347,-0.03933 0.03806,-0.06042 0.04336,-0.0903c0.04369,-0.24635 0.1162,-0.30177 0.13009,-0.36119c0.0659,-0.28186 0.0969,-0.30558 0.13009,-0.36119c0.02347,-0.03933 0.13009,-0.2107 0.13009,-0.24079c0,-0.0301 0.06445,-0.05489 0.08673,-0.1204c0.00996,-0.02929 0.0127,-0.03892 0.04336,-0.0602c0.03066,-0.02128 0.09943,-0.03892 0.13009,-0.0602c0.03066,-0.02128 0.04415,-0.02441 0.08673,-0.0301c0.2293,-0.03065 0.26018,-0.0602 0.30354,-0.0602c0.04336,0 0.08673,-0.0301 0.21682,-0.0301c0.04336,0 0.08673,0 0.13009,0c0.04336,0 0.08673,0 0.08673,0.0301c0,0.0301 0.04336,0.0301 0.04336,0.0602c0,0.0301 -0.01659,0.06249 0,0.0903c0.02347,0.03933 0.04336,0.0602 0.04336,0.0903c0,0.0301 0,0.0602 0,0.0903c0,0.0301 0,0.0602 0,0.0903c0,0.0301 0.04666,0.01858 0.08673,0.0301c0.05666,0.01629 0.08146,0.04495 0.21682,0.0602c0.0428,0.00482 0.10859,-0.02903 0.30354,0.0602c0.0512,0.02343 0.27327,-0.06413 0.43363,0.0903c0.02536,0.02442 0.10017,0.04026 0.21682,0.0903c0.05217,0.02238 0.07343,0.07401 0.13009,0.0903c0.04006,0.01152 0.05606,0.00882 0.08673,0.0301c0.03066,0.02128 0,0.0602 0,0.0903c0,0.0301 -0.0127,0.03892 -0.04336,0.0602c-0.03066,0.02128 -0.05606,0.03892 -0.08673,0.0602c-0.03066,0.02128 -0.05606,0.00882 -0.08673,0.0301c-0.03066,0.02128 -0.03007,0.04391 -0.08673,0.0602c-0.04006,0.01152 -0.04336,0.0301 -0.08673,0.0301c-0.04336,0 -0.05606,0.00882 -0.08673,0.0301c-0.03066,0.02128 -0.05606,0.00882 -0.08673,0.0301c-0.03066,0.02128 -0.03066,0.06901 0,0.0903c0.03066,0.02128 0.06326,0.02087 0.08673,0.0602c0.01659,0.02781 0.06326,0.02087 0.08673,0.0602c0.01659,0.02781 0.03003,0.0357 0.08673,0.0903c0.03586,0.03453 0.05606,0.03892 0.08673,0.0602c0.06132,0.04257 0.04336,0.0602 0.04336,0.0903c0,0.0301 0.03066,0.06901 0,0.0903c-0.03066,0.02128 -0.04667,0.01858 -0.08673,0.0301c-0.05666,0.01629 -0.08673,0.0301 -0.13009,0.0301c-0.04336,0 -0.17345,0.0301 -0.21682,0.0301c-0.04336,0 -0.08351,0.04508 -0.30354,0.0602c-0.04315,0.00297 -0.08694,-0.00297 -0.13009,0c-0.22003,0.01512 -0.27288,0.03892 -0.30354,0.0602c-0.03066,0.02128 -0.13009,0.0602 -0.17345,0.0602c-0.04336,0 -0.08673,0 -0.13009,0c-0.04336,0 -0.08673,0 -0.13009,0c-0.04336,0 -0.08673,0 -0.17345,0c-0.04336,0 -0.08705,-0.00368 -0.13009,0c-0.17745,0.01516 -0.21682,0.0301 -0.26018,0.0301c-0.04336,0 -0.17345,0.0301 -0.21682,0.0301c-0.04336,0 -0.04336,0.0301 -0.08673,0.0301c-0.04336,0 -0.04336,0.0301 -0.08673,0.0301c-0.04336,0 -0.09943,0.00882 -0.13009,0.0301c-0.03066,0.02128 -0.05606,0.00882 -0.08673,0.0301c-0.03066,0.02128 -0.04336,0.0301 -0.08673,0.0301l0,0.0301l-0.04336,0l0.04336,0" id="svg_57" fill-opacity="null" stroke-width="NaN" fill="none"/>
            <path stroke="#fff600" d="m13.11729,11.82115c0,-0.01547 0,-0.03094 0,-0.04641c0,-0.03094 0,-0.04641 0,-0.06188c0,-0.04641 0.01419,-0.06045 0.02859,-0.12376c0.00349,-0.01535 0.02401,-0.07755 0.02859,-0.09282c0.01448,-0.04829 0.01765,-0.06306 0.02859,-0.07735c0.01547,-0.02021 0.02859,-0.04641 0.02859,-0.06188c0,-0.01547 0.02859,-0.01547 0.02859,-0.04641c0,-0.01547 0.01312,-0.0262 0.02859,-0.04641c0.01094,-0.01429 0.02859,-0.01547 0.02859,-0.03094c0,-0.01547 0.03697,-0.00453 0.05719,-0.01547c0.02022,-0.01094 0.00837,-0.02 0.02859,-0.03094c0.02022,-0.01094 0.02859,-0.01547 0.05719,-0.01547c0.02859,0 0.02859,-0.01547 0.05719,-0.01547c0.02859,0 0.02859,-0.01547 0.05719,-0.01547c0.02859,0 0.05719,0 0.08578,0c0.02859,0 0.05719,0 0.08578,0c0.02859,0 0.04842,0.0071 0.08578,0.01547c0.02642,0.00592 0.00837,0.02 0.02859,0.03094c0.02022,0.01094 0.00837,0.02 0.02859,0.03094c0.02022,0.01094 0.03697,0.00453 0.05719,0.01547c0.02022,0.01094 0.00837,0.02 0.02859,0.03094c0.02022,0.01094 0.00837,0.02 0.02859,0.03094c0.02022,0.01094 0,0.03094 0,0.04641c0,0.01547 0,0.03094 0,0.04641c0,0.01547 0,0.03094 0,0.04641c0,0.01547 0,0.03094 0,0.04641c0,0.01547 0.02859,0.01547 0.05719,0.01547c0.02859,0 0.04038,0.00049 0.14297,-0.03094c0.03519,-0.01078 0.05719,-0.01547 0.08578,-0.01547c0.02859,0 0.03697,0.00453 0.05719,0.01547c0.02022,0.01094 0.02859,0.01547 0.02859,0.03094c0,0.01547 0.02859,0.01547 0.02859,0.03094c0,0.01547 0.01094,0.03212 0,0.04641c-0.01548,0.02021 -0.03697,0.02 -0.05719,0.03094c-0.02022,0.01094 0.02022,0.03547 0,0.04641c-0.02022,0.01094 -0.02859,0.01547 -0.02859,0.03094c0,0.01547 -0.02859,0.03094 -0.02859,0.04641c0,0.01547 0.02022,0.03547 0,0.04641c-0.02022,0.01094 -0.01765,0.01665 -0.02859,0.03094c-0.01548,0.02021 -0.03697,0.03547 -0.05719,0.04641c-0.02022,0.01094 -0.03697,0.00453 -0.05719,0.01547c-0.02022,0.01094 -0.00837,0.02 -0.02859,0.03094c-0.02022,0.01094 -0.03077,0.00955 -0.05719,0.01547c-0.03736,0.00837 -0.06556,0.02 -0.08578,0.03094c-0.02022,0.01094 -0.01983,0.02257 -0.05719,0.03094c-0.02642,0.00592 -0.06556,0.00453 -0.08578,0.01547c-0.02022,0.01094 -0.02859,0.01547 -0.05719,0.01547c-0.02859,0 -0.06556,0.01094 -0.08578,0c-0.02022,-0.01094 -0.03697,-0.00453 -0.05719,-0.01547c-0.02022,-0.01094 -0.01983,-0.02257 -0.05719,-0.03094c-0.02642,-0.00592 -0.02859,-0.01547 -0.05719,-0.01547c-0.02859,0 -0.05719,0 -0.08578,0c-0.02859,0 -0.05719,0 -0.08578,0c-0.02859,0 -0.05719,0 -0.08578,0c-0.02859,0 0,0 0.02859,0c0.02859,0 0.31645,-0.08488 0.37172,-0.09282c0.22281,-0.03201 0.32807,-0.03548 0.42891,-0.12376c0.01503,-0.01316 0.13459,-0.05094 0.11438,-0.06188c-0.02022,-0.01094 -0.03077,0.00955 -0.05719,0.01547c-0.03736,0.00837 -0.08578,0.03094 -0.11438,0.03094c-0.02859,0 -0.05455,0.02315 -0.17156,0.03094c-0.02838,0.00189 -0.02596,0.02315 -0.14297,0.03094c-0.02838,0.00189 -0.09901,-0.0348 -0.17156,0.01547c-0.0176,0.01219 -0.03295,0.00363 -0.08578,0.01547c-0.03736,0.00837 -0.02859,0 -0.02859,-0.01547c0,-0.01547 0.03493,-0.07455 0.05719,-0.09282c0.08477,-0.06955 0.09654,-0.07859 0.14297,-0.13923c0.01094,-0.01429 0.05719,-0.04641 0.05719,-0.06188c0,-0.01547 0.00837,-0.01094 0.02859,0c0.02022,0.01094 -0.03155,0.04496 -0.05719,0.06188c-0.06536,0.04313 -0.05207,0.0665 -0.14297,0.09282c-0.02521,0.0073 -0.03697,0.02641 -0.05719,0.01547c-0.02022,-0.01094 0,-0.03094 0,-0.04641c0,-0.01547 -0.03283,-0.03447 0,-0.07735c0.01548,-0.02021 0.02859,-0.03094 0.02859,-0.10829c0,-0.01547 0,-0.03094 0,-0.04641c0,-0.01547 0,-0.03094 0,-0.01547c0,0.01547 0.02859,0.01547 0.02859,0.04641c0,0.01547 -0.01094,0.03212 0,0.04641c0.01547,0.02021 0.02859,0.03094 0.02859,0.07735c0,0.01547 -0.01765,0.04759 -0.02859,0.06188c-0.01547,0.02021 -0.00837,0.03547 -0.02859,0.04641c-0.02022,0.01094 -0.03354,0.02866 -0.05719,0.04641c-0.03738,0.02806 -0.0493,0.04985 -0.14297,0.10829c-0.0265,0.01653 -0.14297,0.07735 -0.17156,0.09282c-0.08578,0.04641 -0.08858,0.05916 -0.14297,0.07735c-0.02432,0.00813 -0.03697,0.00453 -0.05719,0.01547c-0.02022,0.01094 -0.00838,0.02 -0.02859,0.03094c-0.02022,0.01094 -0.02859,0.01547 -0.08578,0.03094l0,0.01547" id="svg_58" fill-opacity="null" stroke-width="NaN" fill="none"/>
            <path stroke="#00bf00" d="m15.88615,15.89057c0,-0.0546 0.05925,-0.03371 0.11012,-0.0546c0.07194,-0.02955 0.11012,-0.0546 0.16518,-0.0546c0.05506,0 0.11012,-0.0546 0.16518,-0.0546c0.11012,0 0.16518,0 0.22024,0c0.05506,0 0.10504,-0.02709 0.33036,-0.0546c0.05465,-0.00667 0.11013,0 0.16519,0c0.05506,0 0.2753,0 0.33036,0c0.05506,0 0.11012,0 0.16518,0c0.22024,0 0.33036,0 0.38542,0c0.05506,0 0.11012,0 0.38543,0c0.05506,0 0.11012,0 0.16518,0c0.05506,0 0.2753,0 0.33036,0c0.05506,0 0.11012,0 0.16518,0c0.16518,0 0.22024,0 0.27531,0c0.05505,0 0.11012,0 0.16517,0c0.05507,0 0.11013,0 0.16519,0c0.05506,0 0.11012,0 0.16518,0c0.05506,0 0.05506,0.0546 0.11012,0.0546c0.05506,0 0.12625,-0.0386 0.16518,0c0.03893,0.03861 0.05506,0.0546 0.11012,0.0546c0.05506,0 0.05506,0.0546 0.11012,0.0546c0.05506,0 0.11012,0 0.16518,0c0.05506,0 0.05506,0.0546 0.11013,0.0546l0.05506,0l0.05506,0l0.05506,0" id="svg_59" fill-opacity="null" stroke-width="NaN" fill="none"/>
            <ellipse stroke="#00597a" transform="matrix(0.977542558936661,0.25903675288060785,-0.26122762032959806,0.9693440913715745,6.159384595596855,-3.6328430162064755) " ry="1.85014" rx="4.46211" id="svg_60" cy="22.67394" cx="16.65709" stroke-width="NaN" fill="#00597a"/>
            <ellipse stroke="#000000" ry="0.0273" id="svg_63" cy="30.87791" cx="7.02141" stroke-width="NaN" fill="#000000"/>
            <ellipse stroke="#00597a" transform="matrix(0.9695748620748613,0.2869755132195953,-0.28940267964898553,0.9614432181009247,7.4051343392928715,-3.595105173325301) " ry="2.0406" rx="1.74131" id="svg_62" cy="24.44224" cx="15.78722" stroke-width="NaN" fill="#00597a"/>
            <path stroke="#008999" d="m13.35336,23.20679c0,-0.0546 0,-0.1092 0,-0.16379c0,-0.0546 0.03399,-0.05876 0.05506,-0.1092c0.0298,-0.07134 0.07119,-0.07059 0.11013,-0.1092c0.03893,-0.03861 0.07118,-0.07059 0.11012,-0.1092c0.03893,-0.0386 0.03818,-0.07965 0.11012,-0.10919c0.05087,-0.0209 0.05506,-0.0546 0.11012,-0.1092c0.05506,-0.0546 0.13538,-0.03786 0.16518,-0.1092c0.02107,-0.05044 0.00539,-0.09961 0.11012,-0.16379c0.04684,-0.02871 0.07119,-0.016 0.11012,-0.0546c0.03893,-0.03861 0.07119,-0.016 0.11012,-0.0546c0.03894,-0.03861 0.07119,-0.01599 0.11012,-0.0546c0.03894,-0.03861 0.07119,-0.01599 0.11012,-0.0546c0.03894,-0.03861 0.11013,0 0.16519,0c0.05506,0 0.11012,0 0.16518,0c0.05506,0 0.07119,-0.01599 0.11012,-0.0546c0.03893,-0.0386 0.11012,0 0.16518,0c0.05506,0 0.11012,0 0.16518,0c0.05506,0 0.11012,0 0.16518,0c0.05506,0 0.11012,0 0.16518,0c0.05506,0 0.11012,0 0.16519,0c0.05506,0 0.11012,0 0.16518,0c0.05506,0 0.05506,0.0546 0.11012,0.0546c0.05506,0 0.09324,0.02505 0.16518,0.0546c0.05087,0.02089 0.11012,0.0546 0.16518,0.0546c0.05506,0 0.07119,0.01599 0.11012,0.0546c0.03893,0.0386 0.12625,-0.03861 0.16518,0c0.03894,0.0386 0.05506,0.0546 0.11012,0.0546c0.05506,0 0.07119,0.01599 0.11012,0.05459c0.03894,0.03861 0.07119,0.016 0.11012,0.0546c0.03894,0.03861 0.11432,-0.02089 0.16519,0c0.07194,0.02955 0.12625,0.016 0.16518,0.0546c0.03893,0.03861 0.07119,0.01599 0.11012,0.0546c0.03893,0.03861 0.05506,0.0546 0.11012,0.0546c0.05506,0 0.05506,0.0546 0.11012,0.0546c0.05506,0 0.07119,0.01599 0.11012,0.0546c0.03894,0.0386 0.05506,0.0546 0.11012,0.0546c0.05506,0 0.07119,0.01598 0.11012,0.05459c0.03894,0.03861 0.01613,0.0706 0.05506,0.1092c0.03894,0.03861 0.01613,0.07059 0.05507,0.1092c0.03893,0.03861 0.05506,0.0546 0.05506,0.1092c0,0.05459 0.05506,0.05459 0.05506,0.10919c0,0.0546 0.01612,0.12519 0.05506,0.1638c0.03893,0.0386 0.05506,0.0546 0.05506,0.1092c0,0.05459 0.05506,0.10919 0.05506,0.16379c0,0.0546 0.05506,0.0546 0.05506,0.1092c0,0.0546 0.05506,0.0546 0.05506,0.1092c0,0.0546 -0.03894,0.12519 0,0.16379c0.03893,0.03861 0.05506,0.0546 0.05506,0.1092c0,0.0546 0,0.1092 0,0.1638c0,0.0546 0,0.10919 0,0.16379c0,0.0546 0,0.1092 0,0.1638c0,0.0546 0,0.1092 0,0.1638c0,0.05459 -0.05506,0.05459 -0.05506,0.10919c0,0.0546 -0.01613,0.07059 -0.05506,0.1092c-0.03894,0.03861 0,0.1092 -0.05506,0.1638l0,0.0546" id="svg_70" fill-opacity="null" stroke-width="NaN" fill="none"/>
        </g>
    </symbol>

    <symbol id="p3" stroke="null">
        <title>player</title>
        <g id="svg_77">
            <path transform="rotate(-140.1476287841797 21.99117088317871,11.83766174316406) " stroke="#703702" d="m20.32293,12.44479c0,-0.05442 0.01594,-0.07035 0.05442,-0.10883c0.03848,-0.03848 0.07035,-0.07035 0.10883,-0.10883c0.03848,-0.03848 0.07035,-0.07036 0.10883,-0.10883c0.03848,-0.03848 0.05442,-0.05442 0.05442,-0.10883c0,-0.05442 0.01594,-0.07035 0.05442,-0.10883c0.03848,-0.03848 0.09215,-0.07938 0.16325,-0.10883c0.05027,-0.02082 0.07035,-0.01594 0.10883,-0.05442c0.03848,-0.03848 0.03773,-0.07938 0.10883,-0.10883c0.05027,-0.02082 0.05442,-0.05442 0.10883,-0.05442c0.05442,0 0.05442,-0.05442 0.10883,-0.05442c0.05441,0 0.05441,-0.05442 0.10883,-0.05442c0.05441,0 0.05441,-0.05442 0.10883,-0.05442c0.05442,0 0.10883,-0.05442 0.16325,-0.05442c0.05442,0 0.05442,-0.05442 0.10883,-0.05442c0.05442,0 0.07035,-0.01594 0.10883,-0.05442c0.03848,-0.03848 0.10883,0 0.16325,0c0.05442,0 0.10883,0 0.16325,0c0.05442,0 0.10883,0 0.16325,0c0.05442,0 0.10883,0 0.16325,0c0.05442,0 0.12477,-0.03848 0.16325,0c0.03848,0.03848 0.07035,0.01594 0.10883,0.05442c0.03848,0.03848 0.07035,0.01594 0.10883,0.05442c0.03848,0.03848 0.01594,0.07035 0.05442,0.10883c0.03848,0.03848 0.07035,0.01594 0.10883,0.05442c0.03848,0.03848 0.05442,0.05442 0.10883,0.05442c0.05442,0 0.03773,0.07938 0.10883,0.10883c0.05027,0.02082 0.07035,0.01594 0.10883,0.05442c0.03848,0.03848 0.07938,0.09215 0.10883,0.16325c0.02082,0.05027 0.05442,0.05442 0.05442,0.10883c0,0.05442 0.01594,0.07035 0.05441,0.10883c0.03848,0.03848 0,0.10883 0,0.16325l0,0.05442" id="svg_49" fill-opacity="null" stroke-width="NaN" fill="none"/>
            <ellipse stroke="#1526c1" ry="4.65256" rx="8.24402" id="svg_39" cy="19.02912" cx="18.39117" stroke-width="NaN" fill="#0006bc"/>
            <ellipse stroke="#000000" transform="rotate(2.3192038536071777 26.7712230682372,11.84621238708491) " ry="3.12993" rx="3.16293" cy="11.84621" cx="26.77122" stroke-width="NaN" fill="#000000"/>
            <ellipse stroke="#00597a" ry="3.72749" rx="1.16994" id="svg_42" cy="17.2606" cx="25.84615" stroke-width="NaN" fill="#00597a"/>
            <ellipse stroke="#00597a" ry="3.67308" rx="1.16994" id="svg_46" cy="17.53268" cx="10.50086" stroke-width="NaN" fill="#00597a"/>
            <path stroke="#00bf00" d="m16.4594,17.07014c0,0.05442 0,0.10883 0,0.16325c0,0.05442 0,0.16325 0,0.21766c0,0.05442 0,0.16325 0,0.21766c0,0.05442 0.10883,0.10883 0.10883,0.16325c0,0.05442 0,0.10883 0,0.16325l0,0.05442" id="svg_52" stroke-width="NaN" fill="none"/>
            <path stroke="#00bf00" d="m20.15968,17.17897c0,0.05442 0,0.10883 0,0.16325c0,0.05442 0,0.16325 0,0.21766c0,0.05442 0,0.16325 0,0.21767c0,0.05441 0.32649,0.10883 0.32649,0.16325c0,0.05441 0,0.10883 0,0.16324l0,0.05442" id="svg_54" stroke-width="NaN" fill="none"/>
            <rect stroke="#0000bc" transform="matrix(0.7318902462937458,0.6928289931728896,-0.6986887658575741,0.7257520189699457,12.466238497159203,-4.432146985063653) " id="svg_55" height="2.12222" width="0.58186" y="12.57369" x="11.45049" fill-opacity="null" stroke-width="NaN" fill="none"/>
            <path stroke="#ff6100" d="m12.64585,12.33045c-0.04336,0 -0.07013,-0.00229 -0.08673,-0.0301c-0.02347,-0.03933 -0.02677,-0.06249 -0.04336,-0.0903c-0.02347,-0.03933 -0.04336,-0.0903 -0.04336,-0.1204c0,-0.0301 0,-0.0602 0,-0.1505c0,-0.0301 0.04336,-0.0602 0.04336,-0.0903c0,-0.0301 0.1135,-0.30328 0.13009,-0.33109c0.02347,-0.03933 0.03806,-0.06042 0.04336,-0.0903c0.04369,-0.24635 0.1162,-0.30177 0.13009,-0.36119c0.0659,-0.28186 0.0969,-0.30558 0.13009,-0.36119c0.02347,-0.03933 0.13009,-0.2107 0.13009,-0.24079c0,-0.0301 0.06445,-0.05489 0.08673,-0.1204c0.00996,-0.02929 0.0127,-0.03892 0.04336,-0.0602c0.03066,-0.02128 0.09943,-0.03892 0.13009,-0.0602c0.03066,-0.02128 0.04415,-0.02441 0.08673,-0.0301c0.2293,-0.03065 0.26018,-0.0602 0.30354,-0.0602c0.04336,0 0.08673,-0.0301 0.21682,-0.0301c0.04336,0 0.08673,0 0.13009,0c0.04336,0 0.08673,0 0.08673,0.0301c0,0.0301 0.04336,0.0301 0.04336,0.0602c0,0.0301 -0.01659,0.06249 0,0.0903c0.02347,0.03933 0.04336,0.0602 0.04336,0.0903c0,0.0301 0,0.0602 0,0.0903c0,0.0301 0,0.0602 0,0.0903c0,0.0301 0.04666,0.01858 0.08673,0.0301c0.05666,0.01629 0.08146,0.04495 0.21682,0.0602c0.0428,0.00482 0.10859,-0.02903 0.30354,0.0602c0.0512,0.02343 0.27327,-0.06413 0.43363,0.0903c0.02536,0.02442 0.10017,0.04026 0.21682,0.0903c0.05217,0.02238 0.07343,0.07401 0.13009,0.0903c0.04006,0.01152 0.05606,0.00882 0.08673,0.0301c0.03066,0.02128 0,0.0602 0,0.0903c0,0.0301 -0.0127,0.03892 -0.04336,0.0602c-0.03066,0.02128 -0.05606,0.03892 -0.08673,0.0602c-0.03066,0.02128 -0.05606,0.00882 -0.08673,0.0301c-0.03066,0.02128 -0.03007,0.04391 -0.08673,0.0602c-0.04006,0.01152 -0.04336,0.0301 -0.08673,0.0301c-0.04336,0 -0.05606,0.00882 -0.08673,0.0301c-0.03066,0.02128 -0.05606,0.00882 -0.08673,0.0301c-0.03066,0.02128 -0.03066,0.06901 0,0.0903c0.03066,0.02128 0.06326,0.02087 0.08673,0.0602c0.01659,0.02781 0.06326,0.02087 0.08673,0.0602c0.01659,0.02781 0.03003,0.0357 0.08673,0.0903c0.03586,0.03453 0.05606,0.03892 0.08673,0.0602c0.06132,0.04257 0.04336,0.0602 0.04336,0.0903c0,0.0301 0.03066,0.06901 0,0.0903c-0.03066,0.02128 -0.04667,0.01858 -0.08673,0.0301c-0.05666,0.01629 -0.08673,0.0301 -0.13009,0.0301c-0.04336,0 -0.17345,0.0301 -0.21682,0.0301c-0.04336,0 -0.08351,0.04508 -0.30354,0.0602c-0.04315,0.00297 -0.08694,-0.00297 -0.13009,0c-0.22003,0.01512 -0.27288,0.03892 -0.30354,0.0602c-0.03066,0.02128 -0.13009,0.0602 -0.17345,0.0602c-0.04336,0 -0.08673,0 -0.13009,0c-0.04336,0 -0.08673,0 -0.13009,0c-0.04336,0 -0.08673,0 -0.17345,0c-0.04336,0 -0.08705,-0.00368 -0.13009,0c-0.17745,0.01516 -0.21682,0.0301 -0.26018,0.0301c-0.04336,0 -0.17345,0.0301 -0.21682,0.0301c-0.04336,0 -0.04336,0.0301 -0.08673,0.0301c-0.04336,0 -0.04336,0.0301 -0.08673,0.0301c-0.04336,0 -0.09943,0.00882 -0.13009,0.0301c-0.03066,0.02128 -0.05606,0.00882 -0.08673,0.0301c-0.03066,0.02128 -0.04336,0.0301 -0.08673,0.0301l0,0.0301l-0.04336,0l0.04336,0" id="svg_57" fill-opacity="null" stroke-width="NaN" fill="none"/>
            <path stroke="#fff600" d="m13.11729,11.82115c0,-0.01547 0,-0.03094 0,-0.04641c0,-0.03094 0,-0.04641 0,-0.06188c0,-0.04641 0.01419,-0.06045 0.02859,-0.12376c0.00349,-0.01535 0.02401,-0.07755 0.02859,-0.09282c0.01448,-0.04829 0.01765,-0.06306 0.02859,-0.07735c0.01547,-0.02021 0.02859,-0.04641 0.02859,-0.06188c0,-0.01547 0.02859,-0.01547 0.02859,-0.04641c0,-0.01547 0.01312,-0.0262 0.02859,-0.04641c0.01094,-0.01429 0.02859,-0.01547 0.02859,-0.03094c0,-0.01547 0.03697,-0.00453 0.05719,-0.01547c0.02022,-0.01094 0.00837,-0.02 0.02859,-0.03094c0.02022,-0.01094 0.02859,-0.01547 0.05719,-0.01547c0.02859,0 0.02859,-0.01547 0.05719,-0.01547c0.02859,0 0.02859,-0.01547 0.05719,-0.01547c0.02859,0 0.05719,0 0.08578,0c0.02859,0 0.05719,0 0.08578,0c0.02859,0 0.04842,0.0071 0.08578,0.01547c0.02642,0.00592 0.00837,0.02 0.02859,0.03094c0.02022,0.01094 0.00837,0.02 0.02859,0.03094c0.02022,0.01094 0.03697,0.00453 0.05719,0.01547c0.02022,0.01094 0.00837,0.02 0.02859,0.03094c0.02022,0.01094 0.00837,0.02 0.02859,0.03094c0.02022,0.01094 0,0.03094 0,0.04641c0,0.01547 0,0.03094 0,0.04641c0,0.01547 0,0.03094 0,0.04641c0,0.01547 0,0.03094 0,0.04641c0,0.01547 0.02859,0.01547 0.05719,0.01547c0.02859,0 0.04038,0.00049 0.14297,-0.03094c0.03519,-0.01078 0.05719,-0.01547 0.08578,-0.01547c0.02859,0 0.03697,0.00453 0.05719,0.01547c0.02022,0.01094 0.02859,0.01547 0.02859,0.03094c0,0.01547 0.02859,0.01547 0.02859,0.03094c0,0.01547 0.01094,0.03212 0,0.04641c-0.01548,0.02021 -0.03697,0.02 -0.05719,0.03094c-0.02022,0.01094 0.02022,0.03547 0,0.04641c-0.02022,0.01094 -0.02859,0.01547 -0.02859,0.03094c0,0.01547 -0.02859,0.03094 -0.02859,0.04641c0,0.01547 0.02022,0.03547 0,0.04641c-0.02022,0.01094 -0.01765,0.01665 -0.02859,0.03094c-0.01548,0.02021 -0.03697,0.03547 -0.05719,0.04641c-0.02022,0.01094 -0.03697,0.00453 -0.05719,0.01547c-0.02022,0.01094 -0.00837,0.02 -0.02859,0.03094c-0.02022,0.01094 -0.03077,0.00955 -0.05719,0.01547c-0.03736,0.00837 -0.06556,0.02 -0.08578,0.03094c-0.02022,0.01094 -0.01983,0.02257 -0.05719,0.03094c-0.02642,0.00592 -0.06556,0.00453 -0.08578,0.01547c-0.02022,0.01094 -0.02859,0.01547 -0.05719,0.01547c-0.02859,0 -0.06556,0.01094 -0.08578,0c-0.02022,-0.01094 -0.03697,-0.00453 -0.05719,-0.01547c-0.02022,-0.01094 -0.01983,-0.02257 -0.05719,-0.03094c-0.02642,-0.00592 -0.02859,-0.01547 -0.05719,-0.01547c-0.02859,0 -0.05719,0 -0.08578,0c-0.02859,0 -0.05719,0 -0.08578,0c-0.02859,0 -0.05719,0 -0.08578,0c-0.02859,0 0,0 0.02859,0c0.02859,0 0.31645,-0.08488 0.37172,-0.09282c0.22281,-0.03201 0.32807,-0.03548 0.42891,-0.12376c0.01503,-0.01316 0.13459,-0.05094 0.11438,-0.06188c-0.02022,-0.01094 -0.03077,0.00955 -0.05719,0.01547c-0.03736,0.00837 -0.08578,0.03094 -0.11438,0.03094c-0.02859,0 -0.05455,0.02315 -0.17156,0.03094c-0.02838,0.00189 -0.02596,0.02315 -0.14297,0.03094c-0.02838,0.00189 -0.09901,-0.0348 -0.17156,0.01547c-0.0176,0.01219 -0.03295,0.00363 -0.08578,0.01547c-0.03736,0.00837 -0.02859,0 -0.02859,-0.01547c0,-0.01547 0.03493,-0.07455 0.05719,-0.09282c0.08477,-0.06955 0.09654,-0.07859 0.14297,-0.13923c0.01094,-0.01429 0.05719,-0.04641 0.05719,-0.06188c0,-0.01547 0.00837,-0.01094 0.02859,0c0.02022,0.01094 -0.03155,0.04496 -0.05719,0.06188c-0.06536,0.04313 -0.05207,0.0665 -0.14297,0.09282c-0.02521,0.0073 -0.03697,0.02641 -0.05719,0.01547c-0.02022,-0.01094 0,-0.03094 0,-0.04641c0,-0.01547 -0.03283,-0.03447 0,-0.07735c0.01548,-0.02021 0.02859,-0.03094 0.02859,-0.10829c0,-0.01547 0,-0.03094 0,-0.04641c0,-0.01547 0,-0.03094 0,-0.01547c0,0.01547 0.02859,0.01547 0.02859,0.04641c0,0.01547 -0.01094,0.03212 0,0.04641c0.01547,0.02021 0.02859,0.03094 0.02859,0.07735c0,0.01547 -0.01765,0.04759 -0.02859,0.06188c-0.01547,0.02021 -0.00837,0.03547 -0.02859,0.04641c-0.02022,0.01094 -0.03354,0.02866 -0.05719,0.04641c-0.03738,0.02806 -0.0493,0.04985 -0.14297,0.10829c-0.0265,0.01653 -0.14297,0.07735 -0.17156,0.09282c-0.08578,0.04641 -0.08858,0.05916 -0.14297,0.07735c-0.02432,0.00813 -0.03697,0.00453 -0.05719,0.01547c-0.02022,0.01094 -0.00838,0.02 -0.02859,0.03094c-0.02022,0.01094 -0.02859,0.01547 -0.08578,0.03094l0,0.01547" id="svg_58" fill-opacity="null" stroke-width="NaN" fill="none"/>
            <path stroke="#00bf00" d="m15.88615,15.89057c0,-0.0546 0.05925,-0.03371 0.11012,-0.0546c0.07194,-0.02955 0.11012,-0.0546 0.16518,-0.0546c0.05506,0 0.11012,-0.0546 0.16518,-0.0546c0.11012,0 0.16518,0 0.22024,0c0.05506,0 0.10504,-0.02709 0.33036,-0.0546c0.05465,-0.00667 0.11013,0 0.16519,0c0.05506,0 0.2753,0 0.33036,0c0.05506,0 0.11012,0 0.16518,0c0.22024,0 0.33036,0 0.38542,0c0.05506,0 0.11012,0 0.38543,0c0.05506,0 0.11012,0 0.16518,0c0.05506,0 0.2753,0 0.33036,0c0.05506,0 0.11012,0 0.16518,0c0.16518,0 0.22024,0 0.27531,0c0.05505,0 0.11012,0 0.16517,0c0.05507,0 0.11013,0 0.16519,0c0.05506,0 0.11012,0 0.16518,0c0.05506,0 0.05506,0.0546 0.11012,0.0546c0.05506,0 0.12625,-0.0386 0.16518,0c0.03893,0.03861 0.05506,0.0546 0.11012,0.0546c0.05506,0 0.05506,0.0546 0.11012,0.0546c0.05506,0 0.11012,0 0.16518,0c0.05506,0 0.05506,0.0546 0.11013,0.0546l0.05506,0l0.05506,0l0.05506,0" id="svg_59" fill-opacity="null" stroke-width="NaN" fill="none"/>
            <ellipse stroke="#00597a" transform="matrix(0.977542558936661,0.25903675288060785,-0.26122762032959806,0.9693440913715745,6.159384595596855,-3.6328430162064755) " ry="1.85014" rx="4.46211" id="svg_60" cy="22.67394" cx="16.65709" stroke-width="NaN" fill="#00597a"/>
            <ellipse stroke="#000000" ry="0.0273" id="svg_63" cy="30.87791" cx="7.02141" stroke-width="NaN" fill="#000000"/>
            <ellipse stroke="#00597a" transform="matrix(0.9695748620748613,0.2869755132195953,-0.28940267964898553,0.9614432181009247,7.4051343392928715,-3.595105173325301) " ry="2.0406" rx="1.74131" id="svg_62" cy="24.44224" cx="15.78722" stroke-width="NaN" fill="#00597a"/>
            <path stroke="#008999" d="m13.35336,23.20679c0,-0.0546 0,-0.1092 0,-0.16379c0,-0.0546 0.03399,-0.05876 0.05506,-0.1092c0.0298,-0.07134 0.07119,-0.07059 0.11013,-0.1092c0.03893,-0.03861 0.07118,-0.07059 0.11012,-0.1092c0.03893,-0.0386 0.03818,-0.07965 0.11012,-0.10919c0.05087,-0.0209 0.05506,-0.0546 0.11012,-0.1092c0.05506,-0.0546 0.13538,-0.03786 0.16518,-0.1092c0.02107,-0.05044 0.00539,-0.09961 0.11012,-0.16379c0.04684,-0.02871 0.07119,-0.016 0.11012,-0.0546c0.03893,-0.03861 0.07119,-0.016 0.11012,-0.0546c0.03894,-0.03861 0.07119,-0.01599 0.11012,-0.0546c0.03894,-0.03861 0.07119,-0.01599 0.11012,-0.0546c0.03894,-0.03861 0.11013,0 0.16519,0c0.05506,0 0.11012,0 0.16518,0c0.05506,0 0.07119,-0.01599 0.11012,-0.0546c0.03893,-0.0386 0.11012,0 0.16518,0c0.05506,0 0.11012,0 0.16518,0c0.05506,0 0.11012,0 0.16518,0c0.05506,0 0.11012,0 0.16518,0c0.05506,0 0.11012,0 0.16519,0c0.05506,0 0.11012,0 0.16518,0c0.05506,0 0.05506,0.0546 0.11012,0.0546c0.05506,0 0.09324,0.02505 0.16518,0.0546c0.05087,0.02089 0.11012,0.0546 0.16518,0.0546c0.05506,0 0.07119,0.01599 0.11012,0.0546c0.03893,0.0386 0.12625,-0.03861 0.16518,0c0.03894,0.0386 0.05506,0.0546 0.11012,0.0546c0.05506,0 0.07119,0.01599 0.11012,0.05459c0.03894,0.03861 0.07119,0.016 0.11012,0.0546c0.03894,0.03861 0.11432,-0.02089 0.16519,0c0.07194,0.02955 0.12625,0.016 0.16518,0.0546c0.03893,0.03861 0.07119,0.01599 0.11012,0.0546c0.03893,0.03861 0.05506,0.0546 0.11012,0.0546c0.05506,0 0.05506,0.0546 0.11012,0.0546c0.05506,0 0.07119,0.01599 0.11012,0.0546c0.03894,0.0386 0.05506,0.0546 0.11012,0.0546c0.05506,0 0.07119,0.01598 0.11012,0.05459c0.03894,0.03861 0.01613,0.0706 0.05506,0.1092c0.03894,0.03861 0.01613,0.07059 0.05507,0.1092c0.03893,0.03861 0.05506,0.0546 0.05506,0.1092c0,0.05459 0.05506,0.05459 0.05506,0.10919c0,0.0546 0.01612,0.12519 0.05506,0.1638c0.03893,0.0386 0.05506,0.0546 0.05506,0.1092c0,0.05459 0.05506,0.10919 0.05506,0.16379c0,0.0546 0.05506,0.0546 0.05506,0.1092c0,0.0546 0.05506,0.0546 0.05506,0.1092c0,0.0546 -0.03894,0.12519 0,0.16379c0.03893,0.03861 0.05506,0.0546 0.05506,0.1092c0,0.0546 0,0.1092 0,0.1638c0,0.0546 0,0.10919 0,0.16379c0,0.0546 0,0.1092 0,0.1638c0,0.0546 0,0.1092 0,0.1638c0,0.05459 -0.05506,0.05459 -0.05506,0.10919c0,0.0546 -0.01613,0.07059 -0.05506,0.1092c-0.03894,0.03861 0,0.1092 -0.05506,0.1638l0,0.0546" id="svg_70" fill-opacity="null" stroke-width="NaN" fill="none"/>
        </g>
    </symbol>

    <symbol id="p4" stroke="null">
        <title>player</title>
        <g id="svg_77">
            <path transform="rotate(-140.1476287841797 21.99117088317871,11.83766174316406) " stroke="#703702" d="m20.32293,12.44479c0,-0.05442 0.01594,-0.07035 0.05442,-0.10883c0.03848,-0.03848 0.07035,-0.07035 0.10883,-0.10883c0.03848,-0.03848 0.07035,-0.07036 0.10883,-0.10883c0.03848,-0.03848 0.05442,-0.05442 0.05442,-0.10883c0,-0.05442 0.01594,-0.07035 0.05442,-0.10883c0.03848,-0.03848 0.09215,-0.07938 0.16325,-0.10883c0.05027,-0.02082 0.07035,-0.01594 0.10883,-0.05442c0.03848,-0.03848 0.03773,-0.07938 0.10883,-0.10883c0.05027,-0.02082 0.05442,-0.05442 0.10883,-0.05442c0.05442,0 0.05442,-0.05442 0.10883,-0.05442c0.05441,0 0.05441,-0.05442 0.10883,-0.05442c0.05441,0 0.05441,-0.05442 0.10883,-0.05442c0.05442,0 0.10883,-0.05442 0.16325,-0.05442c0.05442,0 0.05442,-0.05442 0.10883,-0.05442c0.05442,0 0.07035,-0.01594 0.10883,-0.05442c0.03848,-0.03848 0.10883,0 0.16325,0c0.05442,0 0.10883,0 0.16325,0c0.05442,0 0.10883,0 0.16325,0c0.05442,0 0.10883,0 0.16325,0c0.05442,0 0.12477,-0.03848 0.16325,0c0.03848,0.03848 0.07035,0.01594 0.10883,0.05442c0.03848,0.03848 0.07035,0.01594 0.10883,0.05442c0.03848,0.03848 0.01594,0.07035 0.05442,0.10883c0.03848,0.03848 0.07035,0.01594 0.10883,0.05442c0.03848,0.03848 0.05442,0.05442 0.10883,0.05442c0.05442,0 0.03773,0.07938 0.10883,0.10883c0.05027,0.02082 0.07035,0.01594 0.10883,0.05442c0.03848,0.03848 0.07938,0.09215 0.10883,0.16325c0.02082,0.05027 0.05442,0.05442 0.05442,0.10883c0,0.05442 0.01594,0.07035 0.05441,0.10883c0.03848,0.03848 0,0.10883 0,0.16325l0,0.05442" id="svg_49" fill-opacity="null" stroke-width="NaN" fill="none"/>
            <ellipse stroke="#1526c1" ry="4.65256" rx="8.24402" id="svg_39" cy="19.02912" cx="18.39117" stroke-width="NaN" fill="#0006bc"/>
            <ellipse stroke="#000000" transform="rotate(2.3192038536071777 26.7712230682372,11.84621238708491) " ry="3.12993" rx="3.16293" cy="11.84621" cx="26.77122" stroke-width="NaN" fill="#000000"/>
            <ellipse stroke="#00597a" ry="3.72749" rx="1.16994" id="svg_42" cy="17.2606" cx="25.84615" stroke-width="NaN" fill="#00597a"/>
            <ellipse stroke="#00597a" ry="3.67308" rx="1.16994" id="svg_46" cy="17.53268" cx="10.50086" stroke-width="NaN" fill="#00597a"/>
            <path stroke="#00bf00" d="m16.4594,17.07014c0,0.05442 0,0.10883 0,0.16325c0,0.05442 0,0.16325 0,0.21766c0,0.05442 0,0.16325 0,0.21766c0,0.05442 0.10883,0.10883 0.10883,0.16325c0,0.05442 0,0.10883 0,0.16325l0,0.05442" id="svg_52" stroke-width="NaN" fill="none"/>
            <path stroke="#00bf00" d="m20.15968,17.17897c0,0.05442 0,0.10883 0,0.16325c0,0.05442 0,0.16325 0,0.21766c0,0.05442 0,0.16325 0,0.21767c0,0.05441 0.32649,0.10883 0.32649,0.16325c0,0.05441 0,0.10883 0,0.16324l0,0.05442" id="svg_54" stroke-width="NaN" fill="none"/>
            <rect stroke="#0000bc" transform="matrix(0.7318902462937458,0.6928289931728896,-0.6986887658575741,0.7257520189699457,12.466238497159203,-4.432146985063653) " id="svg_55" height="2.12222" width="0.58186" y="12.57369" x="11.45049" fill-opacity="null" stroke-width="NaN" fill="none"/>
            <path stroke="#ff6100" d="m12.64585,12.33045c-0.04336,0 -0.07013,-0.00229 -0.08673,-0.0301c-0.02347,-0.03933 -0.02677,-0.06249 -0.04336,-0.0903c-0.02347,-0.03933 -0.04336,-0.0903 -0.04336,-0.1204c0,-0.0301 0,-0.0602 0,-0.1505c0,-0.0301 0.04336,-0.0602 0.04336,-0.0903c0,-0.0301 0.1135,-0.30328 0.13009,-0.33109c0.02347,-0.03933 0.03806,-0.06042 0.04336,-0.0903c0.04369,-0.24635 0.1162,-0.30177 0.13009,-0.36119c0.0659,-0.28186 0.0969,-0.30558 0.13009,-0.36119c0.02347,-0.03933 0.13009,-0.2107 0.13009,-0.24079c0,-0.0301 0.06445,-0.05489 0.08673,-0.1204c0.00996,-0.02929 0.0127,-0.03892 0.04336,-0.0602c0.03066,-0.02128 0.09943,-0.03892 0.13009,-0.0602c0.03066,-0.02128 0.04415,-0.02441 0.08673,-0.0301c0.2293,-0.03065 0.26018,-0.0602 0.30354,-0.0602c0.04336,0 0.08673,-0.0301 0.21682,-0.0301c0.04336,0 0.08673,0 0.13009,0c0.04336,0 0.08673,0 0.08673,0.0301c0,0.0301 0.04336,0.0301 0.04336,0.0602c0,0.0301 -0.01659,0.06249 0,0.0903c0.02347,0.03933 0.04336,0.0602 0.04336,0.0903c0,0.0301 0,0.0602 0,0.0903c0,0.0301 0,0.0602 0,0.0903c0,0.0301 0.04666,0.01858 0.08673,0.0301c0.05666,0.01629 0.08146,0.04495 0.21682,0.0602c0.0428,0.00482 0.10859,-0.02903 0.30354,0.0602c0.0512,0.02343 0.27327,-0.06413 0.43363,0.0903c0.02536,0.02442 0.10017,0.04026 0.21682,0.0903c0.05217,0.02238 0.07343,0.07401 0.13009,0.0903c0.04006,0.01152 0.05606,0.00882 0.08673,0.0301c0.03066,0.02128 0,0.0602 0,0.0903c0,0.0301 -0.0127,0.03892 -0.04336,0.0602c-0.03066,0.02128 -0.05606,0.03892 -0.08673,0.0602c-0.03066,0.02128 -0.05606,0.00882 -0.08673,0.0301c-0.03066,0.02128 -0.03007,0.04391 -0.08673,0.0602c-0.04006,0.01152 -0.04336,0.0301 -0.08673,0.0301c-0.04336,0 -0.05606,0.00882 -0.08673,0.0301c-0.03066,0.02128 -0.05606,0.00882 -0.08673,0.0301c-0.03066,0.02128 -0.03066,0.06901 0,0.0903c0.03066,0.02128 0.06326,0.02087 0.08673,0.0602c0.01659,0.02781 0.06326,0.02087 0.08673,0.0602c0.01659,0.02781 0.03003,0.0357 0.08673,0.0903c0.03586,0.03453 0.05606,0.03892 0.08673,0.0602c0.06132,0.04257 0.04336,0.0602 0.04336,0.0903c0,0.0301 0.03066,0.06901 0,0.0903c-0.03066,0.02128 -0.04667,0.01858 -0.08673,0.0301c-0.05666,0.01629 -0.08673,0.0301 -0.13009,0.0301c-0.04336,0 -0.17345,0.0301 -0.21682,0.0301c-0.04336,0 -0.08351,0.04508 -0.30354,0.0602c-0.04315,0.00297 -0.08694,-0.00297 -0.13009,0c-0.22003,0.01512 -0.27288,0.03892 -0.30354,0.0602c-0.03066,0.02128 -0.13009,0.0602 -0.17345,0.0602c-0.04336,0 -0.08673,0 -0.13009,0c-0.04336,0 -0.08673,0 -0.13009,0c-0.04336,0 -0.08673,0 -0.17345,0c-0.04336,0 -0.08705,-0.00368 -0.13009,0c-0.17745,0.01516 -0.21682,0.0301 -0.26018,0.0301c-0.04336,0 -0.17345,0.0301 -0.21682,0.0301c-0.04336,0 -0.04336,0.0301 -0.08673,0.0301c-0.04336,0 -0.04336,0.0301 -0.08673,0.0301c-0.04336,0 -0.09943,0.00882 -0.13009,0.0301c-0.03066,0.02128 -0.05606,0.00882 -0.08673,0.0301c-0.03066,0.02128 -0.04336,0.0301 -0.08673,0.0301l0,0.0301l-0.04336,0l0.04336,0" id="svg_57" fill-opacity="null" stroke-width="NaN" fill="none"/>
            <path stroke="#fff600" d="m13.11729,11.82115c0,-0.01547 0,-0.03094 0,-0.04641c0,-0.03094 0,-0.04641 0,-0.06188c0,-0.04641 0.01419,-0.06045 0.02859,-0.12376c0.00349,-0.01535 0.02401,-0.07755 0.02859,-0.09282c0.01448,-0.04829 0.01765,-0.06306 0.02859,-0.07735c0.01547,-0.02021 0.02859,-0.04641 0.02859,-0.06188c0,-0.01547 0.02859,-0.01547 0.02859,-0.04641c0,-0.01547 0.01312,-0.0262 0.02859,-0.04641c0.01094,-0.01429 0.02859,-0.01547 0.02859,-0.03094c0,-0.01547 0.03697,-0.00453 0.05719,-0.01547c0.02022,-0.01094 0.00837,-0.02 0.02859,-0.03094c0.02022,-0.01094 0.02859,-0.01547 0.05719,-0.01547c0.02859,0 0.02859,-0.01547 0.05719,-0.01547c0.02859,0 0.02859,-0.01547 0.05719,-0.01547c0.02859,0 0.05719,0 0.08578,0c0.02859,0 0.05719,0 0.08578,0c0.02859,0 0.04842,0.0071 0.08578,0.01547c0.02642,0.00592 0.00837,0.02 0.02859,0.03094c0.02022,0.01094 0.00837,0.02 0.02859,0.03094c0.02022,0.01094 0.03697,0.00453 0.05719,0.01547c0.02022,0.01094 0.00837,0.02 0.02859,0.03094c0.02022,0.01094 0.00837,0.02 0.02859,0.03094c0.02022,0.01094 0,0.03094 0,0.04641c0,0.01547 0,0.03094 0,0.04641c0,0.01547 0,0.03094 0,0.04641c0,0.01547 0,0.03094 0,0.04641c0,0.01547 0.02859,0.01547 0.05719,0.01547c0.02859,0 0.04038,0.00049 0.14297,-0.03094c0.03519,-0.01078 0.05719,-0.01547 0.08578,-0.01547c0.02859,0 0.03697,0.00453 0.05719,0.01547c0.02022,0.01094 0.02859,0.01547 0.02859,0.03094c0,0.01547 0.02859,0.01547 0.02859,0.03094c0,0.01547 0.01094,0.03212 0,0.04641c-0.01548,0.02021 -0.03697,0.02 -0.05719,0.03094c-0.02022,0.01094 0.02022,0.03547 0,0.04641c-0.02022,0.01094 -0.02859,0.01547 -0.02859,0.03094c0,0.01547 -0.02859,0.03094 -0.02859,0.04641c0,0.01547 0.02022,0.03547 0,0.04641c-0.02022,0.01094 -0.01765,0.01665 -0.02859,0.03094c-0.01548,0.02021 -0.03697,0.03547 -0.05719,0.04641c-0.02022,0.01094 -0.03697,0.00453 -0.05719,0.01547c-0.02022,0.01094 -0.00837,0.02 -0.02859,0.03094c-0.02022,0.01094 -0.03077,0.00955 -0.05719,0.01547c-0.03736,0.00837 -0.06556,0.02 -0.08578,0.03094c-0.02022,0.01094 -0.01983,0.02257 -0.05719,0.03094c-0.02642,0.00592 -0.06556,0.00453 -0.08578,0.01547c-0.02022,0.01094 -0.02859,0.01547 -0.05719,0.01547c-0.02859,0 -0.06556,0.01094 -0.08578,0c-0.02022,-0.01094 -0.03697,-0.00453 -0.05719,-0.01547c-0.02022,-0.01094 -0.01983,-0.02257 -0.05719,-0.03094c-0.02642,-0.00592 -0.02859,-0.01547 -0.05719,-0.01547c-0.02859,0 -0.05719,0 -0.08578,0c-0.02859,0 -0.05719,0 -0.08578,0c-0.02859,0 -0.05719,0 -0.08578,0c-0.02859,0 0,0 0.02859,0c0.02859,0 0.31645,-0.08488 0.37172,-0.09282c0.22281,-0.03201 0.32807,-0.03548 0.42891,-0.12376c0.01503,-0.01316 0.13459,-0.05094 0.11438,-0.06188c-0.02022,-0.01094 -0.03077,0.00955 -0.05719,0.01547c-0.03736,0.00837 -0.08578,0.03094 -0.11438,0.03094c-0.02859,0 -0.05455,0.02315 -0.17156,0.03094c-0.02838,0.00189 -0.02596,0.02315 -0.14297,0.03094c-0.02838,0.00189 -0.09901,-0.0348 -0.17156,0.01547c-0.0176,0.01219 -0.03295,0.00363 -0.08578,0.01547c-0.03736,0.00837 -0.02859,0 -0.02859,-0.01547c0,-0.01547 0.03493,-0.07455 0.05719,-0.09282c0.08477,-0.06955 0.09654,-0.07859 0.14297,-0.13923c0.01094,-0.01429 0.05719,-0.04641 0.05719,-0.06188c0,-0.01547 0.00837,-0.01094 0.02859,0c0.02022,0.01094 -0.03155,0.04496 -0.05719,0.06188c-0.06536,0.04313 -0.05207,0.0665 -0.14297,0.09282c-0.02521,0.0073 -0.03697,0.02641 -0.05719,0.01547c-0.02022,-0.01094 0,-0.03094 0,-0.04641c0,-0.01547 -0.03283,-0.03447 0,-0.07735c0.01548,-0.02021 0.02859,-0.03094 0.02859,-0.10829c0,-0.01547 0,-0.03094 0,-0.04641c0,-0.01547 0,-0.03094 0,-0.01547c0,0.01547 0.02859,0.01547 0.02859,0.04641c0,0.01547 -0.01094,0.03212 0,0.04641c0.01547,0.02021 0.02859,0.03094 0.02859,0.07735c0,0.01547 -0.01765,0.04759 -0.02859,0.06188c-0.01547,0.02021 -0.00837,0.03547 -0.02859,0.04641c-0.02022,0.01094 -0.03354,0.02866 -0.05719,0.04641c-0.03738,0.02806 -0.0493,0.04985 -0.14297,0.10829c-0.0265,0.01653 -0.14297,0.07735 -0.17156,0.09282c-0.08578,0.04641 -0.08858,0.05916 -0.14297,0.07735c-0.02432,0.00813 -0.03697,0.00453 -0.05719,0.01547c-0.02022,0.01094 -0.00838,0.02 -0.02859,0.03094c-0.02022,0.01094 -0.02859,0.01547 -0.08578,0.03094l0,0.01547" id="svg_58" fill-opacity="null" stroke-width="NaN" fill="none"/>
            <path stroke="#00bf00" d="m15.88615,15.89057c0,-0.0546 0.05925,-0.03371 0.11012,-0.0546c0.07194,-0.02955 0.11012,-0.0546 0.16518,-0.0546c0.05506,0 0.11012,-0.0546 0.16518,-0.0546c0.11012,0 0.16518,0 0.22024,0c0.05506,0 0.10504,-0.02709 0.33036,-0.0546c0.05465,-0.00667 0.11013,0 0.16519,0c0.05506,0 0.2753,0 0.33036,0c0.05506,0 0.11012,0 0.16518,0c0.22024,0 0.33036,0 0.38542,0c0.05506,0 0.11012,0 0.38543,0c0.05506,0 0.11012,0 0.16518,0c0.05506,0 0.2753,0 0.33036,0c0.05506,0 0.11012,0 0.16518,0c0.16518,0 0.22024,0 0.27531,0c0.05505,0 0.11012,0 0.16517,0c0.05507,0 0.11013,0 0.16519,0c0.05506,0 0.11012,0 0.16518,0c0.05506,0 0.05506,0.0546 0.11012,0.0546c0.05506,0 0.12625,-0.0386 0.16518,0c0.03893,0.03861 0.05506,0.0546 0.11012,0.0546c0.05506,0 0.05506,0.0546 0.11012,0.0546c0.05506,0 0.11012,0 0.16518,0c0.05506,0 0.05506,0.0546 0.11013,0.0546l0.05506,0l0.05506,0l0.05506,0" id="svg_59" fill-opacity="null" stroke-width="NaN" fill="none"/>
            <ellipse stroke="#00597a" transform="matrix(0.977542558936661,0.25903675288060785,-0.26122762032959806,0.9693440913715745,6.159384595596855,-3.6328430162064755) " ry="1.85014" rx="4.46211" id="svg_60" cy="22.67394" cx="16.65709" stroke-width="NaN" fill="#00597a"/>
            <ellipse stroke="#000000" ry="0.0273" id="svg_63" cy="30.87791" cx="7.02141" stroke-width="NaN" fill="#000000"/>
            <ellipse stroke="#00597a" transform="matrix(0.9695748620748613,0.2869755132195953,-0.28940267964898553,0.9614432181009247,7.4051343392928715,-3.595105173325301) " ry="2.0406" rx="1.74131" id="svg_62" cy="24.44224" cx="15.78722" stroke-width="NaN" fill="#00597a"/>
            <path stroke="#008999" d="m13.35336,23.20679c0,-0.0546 0,-0.1092 0,-0.16379c0,-0.0546 0.03399,-0.05876 0.05506,-0.1092c0.0298,-0.07134 0.07119,-0.07059 0.11013,-0.1092c0.03893,-0.03861 0.07118,-0.07059 0.11012,-0.1092c0.03893,-0.0386 0.03818,-0.07965 0.11012,-0.10919c0.05087,-0.0209 0.05506,-0.0546 0.11012,-0.1092c0.05506,-0.0546 0.13538,-0.03786 0.16518,-0.1092c0.02107,-0.05044 0.00539,-0.09961 0.11012,-0.16379c0.04684,-0.02871 0.07119,-0.016 0.11012,-0.0546c0.03893,-0.03861 0.07119,-0.016 0.11012,-0.0546c0.03894,-0.03861 0.07119,-0.01599 0.11012,-0.0546c0.03894,-0.03861 0.07119,-0.01599 0.11012,-0.0546c0.03894,-0.03861 0.11013,0 0.16519,0c0.05506,0 0.11012,0 0.16518,0c0.05506,0 0.07119,-0.01599 0.11012,-0.0546c0.03893,-0.0386 0.11012,0 0.16518,0c0.05506,0 0.11012,0 0.16518,0c0.05506,0 0.11012,0 0.16518,0c0.05506,0 0.11012,0 0.16518,0c0.05506,0 0.11012,0 0.16519,0c0.05506,0 0.11012,0 0.16518,0c0.05506,0 0.05506,0.0546 0.11012,0.0546c0.05506,0 0.09324,0.02505 0.16518,0.0546c0.05087,0.02089 0.11012,0.0546 0.16518,0.0546c0.05506,0 0.07119,0.01599 0.11012,0.0546c0.03893,0.0386 0.12625,-0.03861 0.16518,0c0.03894,0.0386 0.05506,0.0546 0.11012,0.0546c0.05506,0 0.07119,0.01599 0.11012,0.05459c0.03894,0.03861 0.07119,0.016 0.11012,0.0546c0.03894,0.03861 0.11432,-0.02089 0.16519,0c0.07194,0.02955 0.12625,0.016 0.16518,0.0546c0.03893,0.03861 0.07119,0.01599 0.11012,0.0546c0.03893,0.03861 0.05506,0.0546 0.11012,0.0546c0.05506,0 0.05506,0.0546 0.11012,0.0546c0.05506,0 0.07119,0.01599 0.11012,0.0546c0.03894,0.0386 0.05506,0.0546 0.11012,0.0546c0.05506,0 0.07119,0.01598 0.11012,0.05459c0.03894,0.03861 0.01613,0.0706 0.05506,0.1092c0.03894,0.03861 0.01613,0.07059 0.05507,0.1092c0.03893,0.03861 0.05506,0.0546 0.05506,0.1092c0,0.05459 0.05506,0.05459 0.05506,0.10919c0,0.0546 0.01612,0.12519 0.05506,0.1638c0.03893,0.0386 0.05506,0.0546 0.05506,0.1092c0,0.05459 0.05506,0.10919 0.05506,0.16379c0,0.0546 0.05506,0.0546 0.05506,0.1092c0,0.0546 0.05506,0.0546 0.05506,0.1092c0,0.0546 -0.03894,0.12519 0,0.16379c0.03893,0.03861 0.05506,0.0546 0.05506,0.1092c0,0.0546 0,0.1092 0,0.1638c0,0.0546 0,0.10919 0,0.16379c0,0.0546 0,0.1092 0,0.1638c0,0.0546 0,0.1092 0,0.1638c0,0.05459 -0.05506,0.05459 -0.05506,0.10919c0,0.0546 -0.01613,0.07059 -0.05506,0.1092c-0.03894,0.03861 0,0.1092 -0.05506,0.1638l0,0.0546" id="svg_70" fill-opacity="null" stroke-width="NaN" fill="none"/>
        </g>
    </symbol>

    <symbol width="37" height="37" id="confused">
        <title>Layer 1</title>
        <path stroke="null" id="svg_1" d="m14.96935,7.1222l2.9205,-0.34555l1.19081,1.17469l0.61411,-1.38825l2.9205,-0.34555l-2.54094,-0.51242l0.61415,-1.38825l-2.18452,1.07156l-2.54095,-0.51245l1.19086,1.17468l-2.18452,1.07154z" stroke-width="1.5" fill="#dbdb00"/>
        <path stroke="null" id="svg_2" d="m24.15882,6.63978l1.57287,1.81755l-0.50556,1.01284l1.47761,0.11043l1.57287,1.81755l-0.65965,-1.74929l1.47764,0.11046l-1.88532,-1.19156l-0.65963,-1.7493l-0.50553,1.01287l-1.8853,-1.19157z" stroke-width="1.5" fill="#dbdb00"/>
        <path stroke="null" id="svg_3" d="m20.99403,15.37652l2.43787,-1.21624l-0.08736,-1.26188l1.594,0.51022l2.43787,-1.21624l-1.45272,1.53157l1.59404,0.51021l-2.49185,0.43634l-1.4527,1.53158l-0.08732,-1.2619l-2.49184,0.43636z" stroke-width="1.5" fill="#dbdb00"/>
        <path stroke="null" id="svg_4" d="m11.87647,12.8759l2.68893,0.89579l1.42739,-0.66469l0.23441,1.2183l2.68893,0.89579l-2.54404,-0.14284l0.23445,1.21831l-1.80673,-1.3066l-2.54405,-0.14283l1.42744,-0.66467l-1.80674,-1.30658z" stroke-width="1.5" fill="#dbdb00"/>
        <path stroke="null" id="svg_5" d="m10.82621,12.19475l0.73205,-2.07908l1.27455,-0.44836l-0.82213,-0.83655l0.73205,-2.07908l-1.24014,1.56205l-0.82212,-0.83658l0.05568,1.80197l-1.24016,1.56205l1.27456,-0.44839l0.05567,1.80196z" stroke-width="1.5" fill="#dbdb00"/>
    </symbol>

</svg>