<svg width="100" height="100" xmlns="http://www.w3.org/2000/svg">

    <symbol id="powerupRandom">
        <title>Random Powerup</title>
        <rect transform="rotate(13.989303588867188 71.11392974853509,62.97828674316409) " id="svg_35" height="35.51273" width="36.41669" y="45.22192" x="52.90558" stroke-width="3.5" stroke="#141414" fill="#141414"/>
        <rect stroke="#000000" id="svg_31" height="70.50892" width="67.66789" y="14.74554" x="16.16605" stroke-width="3.5" fill="#825a1b"/>
        <path stroke="#000000" id="svg_32" d="m49.97917,18.36124c-16.65412,0 -30.15354,14.16511 -30.15354,31.63862c0,17.47442 13.49942,31.63861 30.15354,31.63861c16.65333,0 30.15354,-14.16419 30.15354,-31.63861c0,-17.47351 -13.5002,-31.63862 -30.15354,-31.63862zm2.75501,49.86118l-5.61605,0l0,-5.65092l5.61605,0l0,5.65092zm0,-11.6847l0,1.86759l-5.61605,0l0,-2.30111c0,-6.94387 7.53124,-8.04579 7.53124,-12.98104c0,-2.25037 -1.91761,-3.97422 -4.42807,-3.97422c-2.60143,0 -4.88311,2.01121 -4.88311,2.01121l-3.19738,-4.16869c0,0 3.15149,-3.44865 8.58304,-3.44865c5.15943,0 9.94994,3.35235 9.94994,9.0041c0.00241,7.90635 -7.93961,8.81814 -7.93961,13.99081l0,0z" stroke-width="3.5" fill="#cfb53b"/>
    </symbol>

    <symbol id="powerupBomb">
        <title>Bomb Powerup</title>
        <ellipse stroke="#000000" opacity="0.85" transform="rotate(-5.89762020111084 50.336982727050774,75.05938720703125) " ry="8.13221" rx="20.60843" id="svg_4" cy="75.05939" cx="50.33698" stroke-width="1.5" fill="#000000"/>
        <g id="svg_41" transform="rotate(42.80726623535156 47.8843765258789,50.096405029296875) matrix(1.7025925864274705,-3.160227075436139,3.116523737769497,1.7264682199776307,-205.76993037904728,48.52436237834655) " stroke="null">
            <path fill="none" stroke-width="0.5" fill-opacity="null" id="svg_38" d="m32.43924,58.01936c0,-0.09615 0.02816,-0.12431 0.09615,-0.1923c0.06799,-0.06799 -0.06799,-0.22047 0,-0.28847c0.06799,-0.06799 0.12432,-0.02816 0.19231,-0.09615c0.06799,-0.06799 0.02816,-0.12432 0.09615,-0.19231c0.06799,-0.06799 0.02817,-0.12431 0.09616,-0.1923c0.06799,-0.068 0.09615,-0.09616 0.09615,-0.19231c0,-0.09616 0.02817,-0.12432 0.09616,-0.19231c0.06798,-0.06799 0.06667,-0.14027 0.1923,-0.19231c0.08884,-0.03679 0.06668,-0.14027 0.19231,-0.19231c0.08883,-0.03679 0.06668,-0.14027 0.19231,-0.1923c0.08883,-0.0368 0.17543,-0.00941 0.28846,-0.19231c0.05055,-0.08179 0.12432,-0.02816 0.19231,-0.09615c0.06799,-0.068 0.02816,-0.12432 0.09615,-0.19231c0.06799,-0.06799 0.22047,0.06799 0.28846,0c0.06799,-0.06799 0.02817,-0.12432 0.09616,-0.19231c0.06798,-0.06799 0.12431,-0.02816 0.1923,-0.09615c0.068,-0.068 0.16284,-0.04412 0.28847,-0.09616c0.08883,-0.03679 0.12431,-0.02816 0.1923,-0.09615c0.06799,-0.06799 0.17536,-0.04676 0.38462,-0.09616c0.09358,-0.02209 0.22047,0.06799 0.28846,0c0.06799,-0.06799 0.09615,-0.09615 0.19231,-0.09615c0.09615,0 0.09615,-0.09615 0.19231,-0.09615c0.09615,0 0.22047,0.06799 0.28846,0c0.06798,-0.06799 0.09615,-0.09616 0.19231,-0.09616c0.09615,0 0.19962,0.0368 0.28846,0c0.12562,-0.05203 0.1923,-0.09615 0.28846,-0.09615c0.09615,0 0.19231,0 0.28846,0c0.09615,0 0.19231,0 0.28846,0c0.09616,0 0.19231,0 0.28846,0c0.09616,0 0.19231,0 0.28846,0c0.09616,0 0.19231,0 0.28847,0c0.09615,0 0.1923,0 0.28846,0c0.09615,0 0.09615,0.09615 0.19231,0.09615c0.09615,0 0.12431,0.02817 0.1923,0.09616c0.06799,0.06799 0.16283,0.04411 0.28846,0.09615c0.08884,0.0368 0.12432,0.02816 0.19231,0.09615c0.06799,0.06799 0.12432,0.02817 0.19231,0.09616c0.06799,0.06799 0.12432,0.02816 0.19231,0.09615c0.06799,0.068 0.12432,0.02817 0.19231,0.09616c0.06798,0.06799 0.09615,0.09615 0.1923,0.09615l0,0.09615l0.09616,0" transform="rotate(-6.182896137237549 36.67001342773437,56.336677551269524) " stroke="#964800"/>
            <ellipse fill="#191919" stroke-width="0.5" cx="32.66443" cy="65.57496" id="svg_39" rx="6" ry="6" stroke="#000"/>
            <rect fill="none" stroke-width="1.5" fill-opacity="null" x="31.95847" y="58.88475" width="1.44231" height="0.48077" id="svg_40" stroke="#000000"/>
        </g>
    </symbol>
</svg>