<svg width="100" height="100" viewbox="0 0 700 700" xmlns="http://www.w3.org/2000/svg">
    <!-- Created with Method Draw - http://github.com/duopixel/Method-Draw/ -->
    <defs>
        <filter id="svg_67_blur">
            <feGaussianBlur stdDeviation="0"> </feGaussianBlur>
        </filter>
    </defs>


    <symbol id="splashscreen">
        <title>Layer 1</title>
        <rect fill="#333333" stroke-width="1.5" x="0" y="0" width="700" height="700" id="svg_1" stroke="#000"> </rect>
        <polyline stroke="#000000" fill="none" stroke-width="NaN" stroke-opacity="null" fill-opacity="null" opacity="0.5" points="875.9998779296875,804 " id="svg_2" stroke-linecap="round"> </polyline>
        <text fill="#7f0000" stroke="#000" stroke-opacity="null" x="257.62213" y="577.51903" id="svg_72" font-size="22" font-family="'Courier New', Courier, monospace" text-anchor="start" xml:space="preserve">Click to start</text>
        <g stroke="null" transform="rotate(-31.671667098999023 248.37638854980466,182.3472290039062) " id="svg_6">
            <path stroke="#7f3f00" d="m238.58762,153.87376c0,-0.12743 0.01475,-0.25536 0,-0.50971c-0.05945,-1.02536 -0.23731,-1.14682 -0.23731,-1.65653c0,-0.12743 0,-0.38228 0,-1.01942c0,-0.12743 0,-0.25486 0,-0.89196c0,-0.12743 0,-0.25486 0,-1.01942c0,-0.12743 -0.01646,-0.2561 0,-0.38228c0.11981,-0.9187 0.19191,-1.02912 0.23731,-1.14682c0.0642,-0.16652 0.23731,-0.892 0.23731,-1.01942c0,-0.12743 0.17776,-0.24694 0.23731,-1.01942c0.00978,-0.12699 0.08966,-0.12934 0.11865,-0.38228c0.05976,-0.52145 0.03474,-0.67445 0.11865,-0.76453c0.08388,-0.09012 0.19188,-0.64684 0.23731,-0.76457c0.0642,-0.16648 0.1772,-0.23939 0.23727,-0.63714c0.01903,-0.12578 -0.02724,-0.25824 0,-0.38225c0.06098,-0.27734 0.09966,-0.38393 0.11865,-0.50971c0.06011,-0.39775 0.11865,-0.50971 0.11865,-0.63714c0,-0.12743 0.15342,-0.16474 0.23731,-0.25486c0.08391,-0.09012 0.05445,-0.2158 0.11865,-0.38228c0.04542,-0.11773 0.01771,-0.18785 0.11865,-0.25486c0.22568,-0.14977 0.08429,-0.38775 0.11865,-0.50971c0.12396,-0.43972 0.27205,-0.41959 0.35596,-0.50968c0.08388,-0.09012 0.08229,-0.44076 0.23731,-0.50971c0.10962,-0.04875 0.23196,-0.06999 0.35596,-0.50971c0.03436,-0.12196 0.01771,-0.18785 0.11865,-0.25486c0.45137,-0.29958 0.41038,-0.59805 0.47458,-0.76453c0.04542,-0.11773 0.15342,-0.2922 0.23731,-0.38228c0.08391,-0.09012 0.23199,-0.19742 0.35596,-0.63714c0.0344,-0.12196 -0.09541,-0.33753 0.35596,-0.63714c0.10094,-0.06697 0.19191,-0.13712 0.23731,-0.25486c0.12843,-0.33296 0.27205,-0.41959 0.35596,-0.50971c0.08388,-0.09009 0.35596,-0.25482 0.47458,-0.38225c0.11868,-0.12743 0.43825,-0.56819 0.59326,-0.63714c0.10962,-0.04878 0.08229,-0.18591 0.23731,-0.25486c0.10962,-0.04875 0.12768,-0.07868 0.23731,-0.12743c0.31007,-0.13793 0.36499,-0.3335 0.47461,-0.38228c0.15502,-0.06895 0.15339,-0.16474 0.23731,-0.25486c0.08388,-0.09009 0.21637,-0.18936 0.47461,-0.25486c0.11547,-0.02926 0.15339,-0.03731 0.23727,-0.12743c0.16783,-0.1802 0.36502,-0.07864 0.47461,-0.12743c0.15502,-0.06895 0.47461,-0.25482 0.59326,-0.25482c0.11865,0 0.24049,-0.09817 0.35596,-0.12743c0.25821,-0.06549 0.31956,-0.18591 0.47461,-0.25486c0.10962,-0.04878 0.20091,-0.05848 0.35596,-0.12743c0.10959,-0.04878 0.34499,-0.19067 0.83054,-0.25486c0.11778,-0.01557 0.2285,-0.19084 0.83057,-0.25486c0.11806,-0.01255 0.30747,0.09982 0.94919,-0.25486c0.14921,-0.08247 0.23821,-0.11186 0.35596,-0.12743c0.48555,-0.06418 0.59326,-0.12743 0.71192,-0.12743c0.11865,0 0.71192,-0.12743 0.83057,-0.12743c0.11865,0 0.11865,-0.12743 0.71189,-0.12743c0.11865,0 0.34715,-0.06338 0.94922,-0.12743c0.11806,-0.01255 0.23731,0 0.35596,0c0.11865,0 0.47458,0 0.59326,0c0.11862,0 0.23727,0 0.59323,0c0.11865,0 0.23731,0 0.35596,0c0.11865,0 0.23731,0 0.35596,0c0.11865,0 0.23731,0 0.35596,0c0.23731,0 0.35596,0 0.47461,0c0.11862,0 0.22287,0.06288 0.59323,0.12743c0.11712,0.02043 0.23731,0 0.35596,0c0.11865,0 0.35596,0.12743 0.47461,0.12743c0.11865,0 0.23731,0 0.35596,0c0.11865,0 0.35596,0.12743 0.47461,0.12743c0.11865,0 0.208,0.04241 0.35593,0.12743c0.53344,0.30659 0.86534,0.03734 0.94922,0.12743c0.08391,0.09012 0.11865,0.12743 0.23731,0.12743c0.11865,0 0.11953,0.11186 0.23731,0.12743c0.48555,0.06418 0.50935,0.16474 0.59326,0.25486c0.08388,0.09009 0.22287,0.06288 0.59323,0.12743c0.11712,0.0204 0.11131,0.19091 0.83057,0.25486c0.11825,0.0105 0.15339,0.03731 0.23731,0.12743c0.08391,0.09009 0.3907,0.03731 0.47461,0.12743c0.08388,0.09009 0.21637,0.06194 0.47461,0.12743c0.11547,0.02926 0.17492,0.01902 0.23727,0.12743c0.13949,0.24237 0.39073,0.03731 0.47461,0.12739c0.08391,0.09012 0.15339,0.03734 0.23731,0.12743c0.08391,0.09012 0.15339,0.03734 0.23731,0.12743c0.08391,0.09012 0.05626,0.14649 0.11865,0.25486c0.13949,0.24237 0.36499,0.07868 0.47461,0.12743c0.15502,0.06898 0.27205,0.16477 0.35596,0.25486c0.08388,0.09012 0.12768,0.07868 0.23731,0.12743c0.15502,0.06898 0.15339,0.16474 0.23727,0.25486c0.08391,0.09012 0.15342,0.03731 0.23731,0.12743c0.08391,0.09009 0.11865,0.12743 0.23731,0.12743c0.11865,0 0.27205,0.03731 0.35596,0.12743c0.08391,0.09009 0.12768,0.07864 0.23731,0.12743c0.15502,0.06895 0.15339,0.16474 0.23731,0.25486c0.08391,0.09009 0.3907,0.16474 0.47461,0.25486c0.08388,0.09009 0.03474,0.16474 0.11865,0.25482c0.08388,0.09012 0.15339,0.03734 0.23731,0.12743c0.08388,0.09012 0.17307,0.08837 0.23727,0.25486c0.04542,0.11773 0.03477,0.16477 0.11865,0.25486c0.08391,0.09012 0.15342,0.03734 0.23731,0.12743c0.08391,0.09012 0.03477,0.16477 0.11865,0.25486c0.08391,0.09012 0.03477,0.16474 0.11865,0.25486c0.08391,0.09012 0.11865,0.12743 0.23731,0.25486c0.11865,0.12743 0.15339,0.16474 0.23731,0.25486c0.08391,0.09009 0.00903,0.20607 0.11865,0.25486c0.15502,0.06895 0.19188,0.13712 0.23731,0.25486c0.0642,0.16648 0.15339,0.29216 0.23731,0.38225c0.08388,0.09012 0.07323,0.13712 0.11865,0.25486c0.0642,0.16652 0.15339,0.2922 0.23727,0.38228c0.08391,0.09012 0.03477,0.16477 0.11868,0.25486c0.08388,0.09012 0.17307,0.08837 0.23727,0.25486c0.04542,0.11773 0.11865,0.12743 0.11865,0.25486c0,0.12743 0.03477,0.16474 0.11865,0.25486c0.08391,0.09009 0.07326,0.13712 0.11865,0.25486c0.06423,0.16648 0.15342,0.16474 0.23731,0.25486c0.08391,0.09009 0.05445,0.21577 0.11865,0.38225c0.04539,0.11773 0.11865,0.12743 0.11865,0.25486c0,0.12743 0.11865,0.12743 0.11865,0.25486c0,0.12743 0.03474,0.16477 0.11865,0.25486c0.08391,0.09012 0,0.25486 0,0.38228c0,0.12743 0.03474,0.16474 0.11865,0.25486c0.08388,0.09009 -0.08391,0.29216 0,0.38228c0.08388,0.09009 0.03474,0.29216 0.11865,0.38228c0.08388,0.09009 0.11865,0.12743 0.11865,0.25482c0,0.12743 0.05442,0.2158 0.11865,0.38228c0.04539,0.11773 0,0.25486 0,0.38228c0,0.12743 0.11865,0.12743 0.11865,0.38228c0,0.12743 0.03474,0.16474 0.11865,0.25486c0.16779,0.1802 -0.08391,0.41959 0,0.50971c0.08388,0.09009 0.15339,0.16474 0.23727,0.25486c0.08391,0.09009 0.10891,0.17671 0.23731,0.50968c0.04542,0.11773 0.03477,0.16477 0.11865,0.25486c0.08391,0.09012 -0.08388,0.2922 0,0.38228c0.08391,0.09012 0.11865,0.12743 0.11865,0.38228c0,0.12743 0.08429,0.1329 0.11865,0.25486c0.12396,0.43972 0.19191,0.51941 0.23731,0.63714c0.06423,0.16648 0.23731,0.25486 0.23731,0.38225c0,0.12743 0.15339,0.54705 0.23731,0.63714c0.08391,0.09012 0.07326,0.13712 0.11865,0.25486c0.0642,0.16648 0.17307,0.2158 0.23731,0.38228c0.04539,0.11773 0.11865,0.12743 0.11865,0.25486c0,0.12743 0.03474,0.16474 0.11865,0.25486c0.08388,0.09009 0.11865,0.12743 0.11865,0.25486c0,0.12743 0.15339,0.41959 0.23731,0.50968c0.08388,0.09012 0.66274,0.45694 0.83054,0.63714c0.08391,0.09012 0.72095,0.71578 0.83057,0.76457c0.15502,0.06895 0.1628,0.17648 0.59326,0.50971c0.13612,0.10535 0.14908,0.3082 0.71189,0.50968c0.11256,0.0403 0.12184,0.09817 0.23731,0.12743c0.25821,0.06549 0.27208,0.16477 0.35596,0.25486c0.08391,0.09012 0.23731,0.12743 0.35596,0.12743c0.11865,0 0.11865,0.12743 0.23731,0.12743c0.11865,0 0.20091,0.05848 0.35596,0.12743c0.10962,0.04878 0.23731,0 0.35596,0c0.11862,0 0.20991,0.03865 0.35593,0.12743c0.42572,0.25885 0.59326,0.12743 0.71192,0.12743c0.23731,0 0.35596,0 0.47461,0c0.11865,0 0.11865,0.12743 0.23731,0.12743c0.23731,0 0.35596,0 0.47461,0c0.11865,0 0.23727,0 0.35593,0c0.11865,0 0.23731,0 0.35596,0c0.23731,0 0.35596,0 0.47461,0c0.23731,0 0.35596,0 0.47461,0c0.23731,0 0.35596,0 0.47461,0l0.11865,0" id="svg_49" fill-opacity="null" stroke-width="NaN" fill="none"> </path>
            <ellipse stroke="#000000" ry="39.69325" rx="36.66324" id="svg_47" cy="194.96872" cx="238.94358" stroke-width="NaN" fill="#000000"> </ellipse>
            <path stroke="#e51902" d="m284.14973,152.59948c0,-0.12743 0.16889,-0.05455 0.83057,-0.63714c0.12977,-0.11424 1.89204,-1.40892 2.01707,-1.5291c1.1322,-1.0883 1.30515,-1.14682 1.54246,-1.40167c0.83057,-0.89196 0.68158,-1.36611 2.01707,-1.91138c0.11091,-0.04529 0.83057,-0.63714 0.94922,-0.76457c0.11865,-0.12743 0.50935,-0.29216 0.59326,-0.38228c0.08391,-0.09012 0,0 0,0.12743c0,0.50971 0.10959,2.67632 0.11865,2.80338c0.119,1.67116 0.59017,1.84948 0.83057,3.44052c0.01899,0.12578 0.43531,1.28146 0.47461,1.40167c0.25149,0.76994 0.58795,0.70709 0.71192,1.14682c0.0344,0.12196 0.03474,0.29216 0.11865,0.38228c0.08391,0.09012 0.11865,0.12743 0,0.12743c-0.11865,0 -0.47461,0 -0.59326,0c-0.47461,0 -0.57886,0.06288 -0.94922,0.12743c-0.11712,0.0204 -0.628,0.03731 -0.71192,0.12743c-0.08391,0.09012 -0.27205,0.16474 -0.35596,0.25486c-0.08391,0.09012 -0.03474,0.16474 -0.11865,0.25486c-0.08391,0.09012 -0.15339,0.03731 -0.23731,0.12743c-0.08391,0.09012 -0.15339,0.03731 -0.23731,0.12743c-0.08391,0.09012 -0.23731,0.25486 -0.23731,0.38228c0,0.12743 -0.11865,0.12743 -0.11865,0.25486c0,0.38228 -0.02115,0.51176 0,0.63714c0.18088,1.07126 0.33696,1.1485 0.35596,1.27428c0.18029,1.19325 0.39385,1.37114 0.47461,1.5291c0.52641,1.02986 0.29894,1.15178 0.35596,1.5291c0.18029,1.19325 0.33693,1.27592 0.35596,1.40167c0.12021,0.7955 0.33353,0.89428 0.35596,1.01942c0.12084,0.67381 0.29173,0.72548 0.35596,0.892c0.04539,0.11773 -0.08391,0.29216 0,0.38228c0.08391,0.09012 0.11865,0.12743 0,0.12743c-0.11865,0 -0.24046,-0.09814 -0.35596,-0.12743c-0.25821,-0.06546 -0.33187,-0.16011 -0.47461,-0.25486c-0.63835,-0.42369 -0.83435,-0.33682 -1.06784,-0.38228c-0.99749,-0.19426 -1.06788,-0.50971 -1.30518,-0.63714c-0.71192,-0.38228 -0.82791,-0.51552 -1.06784,-0.63714c-1.05682,-0.53561 -1.07787,-0.61758 -1.30515,-0.76457c-0.8744,-0.56541 -0.90108,-0.67039 -1.06788,-0.892c-0.47764,-0.63452 -0.72444,-0.58014 -0.83057,-0.63714c-0.53063,-0.28492 -0.36824,-0.6252 -0.47461,-0.76457c-0.2712,-0.35531 -0.32156,-0.38775 -0.35596,-0.50971c-0.12396,-0.43972 -0.23731,-0.50971 -0.35596,-0.63714c-0.11865,-0.12743 -0.03474,-0.29216 -0.11865,-0.38228c-0.08391,-0.09012 -0.1777,-0.50025 -0.23731,-1.14685c-0.01168,-0.12679 0,-0.892 0,-1.01942c0,-0.38228 0.02727,-1.4051 0,-1.5291c-0.06095,-0.2773 -0.09138,-1.53252 -0.11865,-1.65653c-0.06095,-0.2773 -0.23731,-1.27428 -0.23731,-1.40167l0,-0.12743l-0.11865,-0.25486" id="svg_69" fill-opacity="null" stroke-width="NaN" fill="none"> </path>
            <path stroke="#ff8300" d="m283.43782,153.67376c0.18292,0 0.36583,0 0.54875,0c0.18292,0 0.41941,-0.04154 0.54878,-0.14182c0.12934,-0.10028 0.41941,-0.18336 0.54875,-0.28364c0.12934,-0.10028 0.74563,-0.37118 0.91461,-0.42546c0.23899,-0.07677 1.25351,-0.73367 1.46339,-0.85093c0.33181,-0.18544 1.59022,-0.91598 1.82922,-0.99275c0.16898,-0.05429 1.29437,-0.65485 1.46335,-0.70911c0.23899,-0.07677 0.96819,-0.60882 1.09752,-0.70911c0.12934,-0.10028 0.36583,-0.28364 0.36583,-0.14182c0,0.14182 0,0.42546 0,1.13457c0,0.14182 -0.08894,0.40047 -0.18292,0.70911c-0.21013,0.69015 -0.15274,0.8519 -0.18292,1.13457c-0.09179,0.85972 -0.33565,0.99372 -0.36583,1.27639c-0.09179,0.85972 -0.18295,0.99275 -0.18295,1.13457c0,0.70911 0,0.85093 0,0.99275c0,0.14182 0,0.56729 0,0.70911c0,0.14182 0,0.28364 0,0.42546c0,0.14182 -0.05355,0.18336 -0.18292,0.28364c-0.12937,0.10028 -0.36586,0 -0.54878,0c-0.18292,0 -0.41941,0.10028 -0.54875,0c-0.12934,-0.10028 -0.41941,-0.04154 -0.54878,-0.14182c-0.12934,-0.10028 -0.18292,-0.14182 -0.36583,-0.14182c-0.18292,0 -0.19685,0.08754 -0.36586,0.14182c-0.23899,0.07677 -0.23649,0.18336 -0.36583,0.28364c-0.12934,0.10028 -0.18292,0.14182 -0.18292,0.28364c0,0.14182 0,0.28364 0,0.42546c0,0.14182 0,0.28364 0,0.42546c0,0.28364 -0.01509,0.42597 0,0.56729c0.09179,0.85972 0.26686,0.94927 0.36583,1.13457c0.49001,0.91719 0.18292,0.99275 0.18292,1.13457c0,0.85093 0.15361,0.9946 0.18292,1.13457c0.09266,0.44268 0,0.70911 0.18292,0.70911c0.18292,0 0,-0.28364 0,-0.42546c0,-0.56729 -0.18113,-0.67938 -0.36586,-1.70186c-0.02537,-0.14045 -0.42131,-0.67639 -0.54875,-0.85093c-0.74319,-1.01771 -0.72929,-1.24197 -0.91461,-2.12732c-0.0293,-0.13998 -0.33125,-0.71166 -0.36586,-0.85093c-0.18629,-0.74994 -0.25336,-0.9037 -0.73169,-1.41821c-0.15127,-0.16272 -0.39317,-0.63456 -0.54875,-0.70911c-0.34793,-0.16672 -0.18292,-0.42546 -0.36586,-0.42546l0,-0.14182" id="svg_70" fill-opacity="null" stroke-width="NaN" fill="none"> </path>
            <path stroke="#ffff00" d="m290.20094,152.21723c0,0.12743 -0.10966,0.13249 -0.23731,0.38228c-0.33293,0.65133 -0.47461,0.76457 -0.71192,1.01942c-0.11865,0.12743 -0.09182,0.36128 -0.71192,0.63714c-0.10962,0.04875 -0.48967,-0.13686 -0.83057,0.50971c-0.05845,0.11089 -0.16455,0.24435 -0.47461,0.38228c-0.10962,0.04875 -0.23731,0.12743 -0.35596,0.25486l-0.11865,0l-0.11865,0l0,0.12743" id="svg_72" fill-opacity="null" stroke-width="NaN" fill="none"> </path>
        </g>
        <rect fill="#442d06" stroke-width="1.5" x="156.47862" y="125.23179" width="17.5591" height="114.58621" id="svg_4" transform="rotate(3.3131394386291504 165.25816345214662,182.52488708496062) " stroke="#000"> </rect>
        <rect fill="#332205" stroke="#000" stroke-width="1.5" x="164.45817" y="132.52492" width="53.59997" height="15.99999" id="svg_14" transform="rotate(22.45554542541504 191.2581481933593,140.52490234374997) "> </rect>
        <rect fill="#422b06" stroke-width="1.5" x="162.48836" y="173.29049" width="52.27853" height="14.39999" id="svg_17" transform="rotate(-12.481755256652832 188.62760925292937,180.49047851562506) " stroke="#000"> </rect>
        <rect fill="#332205" stroke="#000" stroke-width="1.5" x="203.65815" y="150.92491" width="15.99999" height="27.19998" id="svg_16"> </rect>
        <rect fill="#332205" stroke-width="1.5" x="163.89992" y="191.00019" width="56.94431" height="14.27141" id="svg_18" transform="rotate(16.638057708740234 192.37205505371116,198.1358947753906) " stroke="#000"> </rect>
        <rect fill="#332205" stroke="#000" stroke-width="1.5" x="160.45817" y="223.72487" width="60.79997" height="14.39999" id="svg_20"> </rect>
        <rect fill="#332205" stroke-width="1.5" x="211.65814" y="202.92488" width="8.79999" height="29.59998" id="svg_19" stroke="#000"> </rect>
        <rect fill="#3a2605" stroke-width="1.5" x="343.82902" y="130.86793" width="19.99999" height="110.45232" id="svg_24" transform="rotate(-3.0875866413116455 353.8290405273436,186.09408569335892) " stroke="#000"> </rect>
        <rect fill="#493007" stroke-width="1.5" x="363.65806" y="126.92492" width="20.79999" height="112.79994" id="svg_25" stroke="#000" transform="rotate(4.529018402099609 374.05801391601693,183.32489013671892) "> </rect>
        <rect fill="#332205" stroke="#000" stroke-width="1.5" x="373.25806" y="132.52492" width="53.59997" height="15.99999" id="svg_26" transform="rotate(19.30776023864746 400.05804443359375,140.52491760253906) "> </rect>
        <rect fill="#332205" stroke-width="1.5" x="372.08824" y="170.89049" width="52.27853" height="14.39999" id="svg_28" transform="rotate(-15.87936019897461 398.2274780273437,178.09048461914048) " stroke="#000"> </rect>
        <rect fill="#332205" stroke-width="1.5" x="374.45547" y="189.93564" width="49.50831" height="14.27141" id="svg_29" transform="rotate(16.638057708740234 399.2095947265628,197.07135009765628) " stroke="#000"> </rect>
        <rect fill="#3d2705" stroke-width="1.5" x="370.85806" y="223.72487" width="57.59997" height="14.39999" id="svg_30" stroke="#000"> </rect>
        <rect fill="#2b1c03" stroke-width="1.5" x="411.65803" y="202.12488" width="8.79999" height="29.59998" id="svg_31" stroke="#000" transform="rotate(4.480452537536621 416.05804443359426,216.9248657226561) "> </rect>
        <rect fill="#493007" stroke="#000" stroke-width="1.5" x="411.65804" y="145.32491" width="15.99999" height="27.19998" id="svg_27"> </rect>
        <rect fill="#3a2605" stroke="#000" stroke-width="1.5" x="431.65802" y="136.52492" width="11.19999" height="105.59994" id="svg_32"> </rect>
        <rect fill="#493007" stroke="#000" stroke-width="1.5" x="434.05802" y="138.92492" width="45.59997" height="10.39999" id="svg_33" transform="rotate(13.37427043914795 456.8579711914065,144.12490844726568) "> </rect>
        <rect fill="#332205" stroke="#000" stroke-width="1.5" x="436.45802" y="186.12489" width="27.99998" height="10.39999" id="svg_34" transform="rotate(-4.876748561859131 450.4580383300787,191.32490539550818) "> </rect>
        <rect fill="#4f3307" stroke="#000" stroke-width="1.5" x="434.85802" y="228.52487" width="50.39997" height="11.19999" id="svg_35"> </rect>
        <rect fill="#332205" stroke-width="1.5" stroke-opacity="null" x="484.47843" y="130.03178" width="17.5591" height="114.58621" id="svg_36" transform="rotate(3.3131394386291504 493.25799560546835,187.3249053955078) " stroke="#000"> </rect>
        <rect fill="#493007" stroke-width="1.5" x="492.36306" y="137.31927" width="53.78982" height="14.4113" id="svg_37" transform="rotate(6.814660549163818 519.2579956054688,144.52493286132835) " stroke="#000"> </rect>
        <rect fill="#4f3307" stroke-width="1.5" x="490.48817" y="178.09049" width="52.27853" height="14.39999" id="svg_38" transform="rotate(-12.481755256652832 516.62744140625,185.290481567383) " stroke="#000"> </rect>
        <rect fill="#332205" stroke-width="1.5" x="527.65797" y="142.92492" width="14.39999" height="42.39998" id="svg_39" stroke="#000" transform="rotate(10.084006309509277 534.8579101562497,164.12490844726585) "> </rect>
        <rect fill="#493007" stroke-width="1.5" x="480.25696" y="211.75865" width="74.51351" height="14.31913" id="svg_40" transform="rotate(54.62907409667969 517.513671875,218.918212890625) " stroke="#000"> </rect>
        <rect fill="#4f3307" stroke-width="1.5" stroke-opacity="null" x="207.39034" y="296.36324" width="26.93561" height="185.12308" id="svg_43" transform="rotate(6.936041831970215 220.85813999176025,388.92478942871094)" stroke="#000"> </rect>
        <rect fill="#332205" stroke-width="1.5" stroke-opacity="null" x="214.50931" y="322.56331" width="74.96489" height="16.79999" id="svg_44" transform="rotate(59.877906799316406 251.99176025390625,330.9632873535156) " stroke="#000"> </rect>
        <rect fill="#442d06" stroke-width="1.5" stroke-opacity="null" x="304.05155" y="300.25292" width="19.06293" height="198.36824" id="svg_45" transform="rotate(-7.310525417327881 313.58300781249943,399.4370422363279) " stroke="#000"> </rect>
        <rect fill="#3a2605" stroke-width="1.5" stroke-opacity="null" x="244.62192" y="322.28727" width="77.15529" height="18.26924" id="svg_46" transform="rotate(126.06012725830078 283.1995544433594,331.421875) " stroke="#000"> </rect>
        <rect fill="#493007" stroke-width="1.5" stroke-opacity="null" x="326.39581" y="302.34802" width="18.39999" height="196.29195" id="svg_47" transform="rotate(10.870241165161133 335.5957946777347,400.4939880371093) " stroke="#000"> </rect>
        <rect fill="#332205" stroke-width="1.5" stroke-opacity="null" fill-opacity="null" x="383.87876" y="298.34249" width="18.39999" height="212.37633" id="svg_48" transform="rotate(-25.057355880737305 393.0787658691407,404.53063964843756) " stroke="#000"> </rect>
        <rect fill="#2d1d03" stroke-width="1.5" stroke-opacity="null" x="402.88853" y="296.40034" width="24.68919" height="202.89716" id="svg_54" transform="rotate(2.2393574714660645 415.23312377929824,397.8489074707033) " stroke="#000"> </rect>
        <rect fill="#3a2605" stroke-width="1.5" stroke-opacity="null" x="479.08356" y="297.99041" width="19.06293" height="197.23924" id="svg_56" transform="rotate(5.223505973815918 488.6150512695324,396.6100158691408) " stroke="#000"> </rect>
        <rect fill="#3d2705" stroke-width="1.5" stroke-opacity="null" x="345.49139" y="389.89501" width="207.54106" height="16.79999" id="svg_55" transform="rotate(72.90804290771484 449.2619018554687,398.29501342773443) " stroke="#000"> </rect>
        <rect fill="#442d06" stroke-width="1.5" x="277.13378" y="129.28634" width="19.99999" height="110.43609" id="svg_11" transform="rotate(2.2393574714660645 287.1337890625021,184.50437927246165) " stroke="#000"> </rect>
        <rect fill="#332205" stroke-width="1.5" x="271.02991" y="152.70623" width="70.01014" height="16.79999" id="svg_13" transform="rotate(59.877906799316406 306.0349731445312,161.10623168945312) " stroke="#000"> </rect>
        <rect fill="#2b1c03" stroke-width="1.5" x="297.8082" y="152.51583" width="72.38969" height="16.79999" id="svg_23" transform="rotate(126.06012725830078 334.0029907226563,160.91583251953125) " stroke="#000"> </rect>
        <g id="svg_68" transform="rotate(-11.207413673400879 359.9751892089842,394.95822143554705) " stroke="null">
            <rect fill="#633f04" stroke-width="1.5" stroke-opacity="null" x="316.63863" y="384.80566" width="86.67313" height="20.30511" id="svg_49" stroke="#000"> </rect>
            <text fill="#7f0000" x="325.04319" y="391.24906" id="svg_67" font-size="12" font-family="'Courier New', Courier, monospace" text-anchor="start" xml:space="preserve" opacity="0.7" stroke="#720606" transform="matrix(1,0,0,1.1035385131835938,0,-33.03904223674908) ">EXPLOSIVE!</text>
        </g>
    </symbol>
</svg>