<svg width="37" height="37" viewbox="0 0 37 37"
     xmlns="http://www.w3.org/2000/svg">
    <symbol id="stone">
        <title>Stone</title>
        <ellipse stroke="#191919" transform="rotate(-17.31711196899414 20.996265411376964,24.448730468750007) " fill="#191919" stroke-width="null" cx="20.99626" cy="24.44873" id="svg_36" rx="15.91309" ry="9.89304"/>
        <ellipse fill="#666666" stroke-width="1.5" cx="12.86269" cy="15.1596" id="svg_20" rx="5.83512" ry="9.5025" transform="rotate(29.248830795288086 12.862685203552257,15.159595489501951) " stroke="#666666"></ellipse>
        <ellipse fill="#666666" stroke="#666666" stroke-width="1.5" cx="19.17526" cy="22.9425" id="svg_3" rx="12.01252" ry="10.4843"></ellipse>
        <ellipse fill="#666666" stroke-width="1.5" cx="17.83921" cy="27.71906" id="svg_4" rx="13.1492" ry="6.53219" transform="rotate(-10.787983894348145 17.83921051025391,27.71906089782716) " stroke="#666666"></ellipse>
        <ellipse fill="#666666" stroke-width="1.5" cx="8.44218" cy="22.62264" id="svg_5" rx="3.12752" ry="8.24528" stroke="#666666" transform="rotate(20.772262573242188 8.442176818847638,22.622640609741214) "></ellipse>
        <ellipse stroke="#666666" fill="#666666" stroke-width="1.5" cx="20.41627" cy="27.76804" id="svg_8" rx="10.59056" ry="6.55393" transform="rotate(-13.241629600524902 20.41627311706542,27.768043518066403) "></ellipse>
        <ellipse stroke="#666666" fill="#666666" stroke-width="1.5" cx="24.88996" cy="18.85081" id="svg_10" rx="5.47316" ry="12.8975" transform="rotate(-13.847834587097168 24.889963150024442,18.8508071899414) "></ellipse>
        <ellipse fill="#666666" stroke-width="1.5" cx="18.83355" cy="13.04659" id="svg_12" rx="8.82567" ry="6.75089" transform="rotate(-14.59773063659668 18.83355522155761,13.046587944030762) " stroke="#666666"></ellipse>
        <path fill="none" stroke="#333333" stroke-width="null" fill-opacity="null" id="svg_21" d="m5.5279,26.3188c0.07108,0 0.07108,0.07108 0.14216,0.07108c0.07108,0 0.08613,0.05076 0.28432,0.21324c0.07774,0.06373 0.36443,-0.00527 0.56864,0.3554c0.03502,0.06185 0.10303,0.08282 0.14216,0.14216c0.298,0.45193 0.56864,0.28432 0.63972,0.28432c0.07108,0 0.3281,-0.19988 0.63972,0.21324c0.0428,0.05675 0.14757,0.04388 0.21324,0.07108c0.09287,0.03847 0.18623,-0.0231 0.56864,0.21324c0.08551,0.05285 0.19145,0.10369 0.28432,0.14216c0.06567,0.0272 0.58946,0.16298 0.63972,0.21324c0.05026,0.05026 0.07108,0.07108 0.14216,0.07108c0.07108,0 0.07222,0.0584 0.14216,0.07108c0.59756,0.10836 0.61793,0.31693 0.7108,0.3554c0.06567,0.0272 0.12037,0.03261 0.21324,0.07108c0.06567,0.0272 0.08585,0.13723 0.63972,0.28432c0.0687,0.01824 0.0919,0.02082 0.14216,0.07108c0.05026,0.05026 0.12037,0.03261 0.21324,0.07108c0.06567,0.0272 0.56864,0.21324 0.63972,0.21324c0.07108,0 0.14216,0.07108 0.21324,0.07108c0.07108,0 0.05617,0.14147 0.56864,0.21324c0.07039,0.00986 0.12037,0.03261 0.21324,0.07108c0.06567,0.0272 0.12169,0.06977 0.49756,0.14216c0.0698,0.01344 0.14216,0 0.21324,0c0.07108,0 0.14216,0.07108 0.21324,0.07108c0.07108,0 0.21865,-0.0272 0.28432,0c0.09287,0.03847 0.14216,0.07108 0.21324,0.07108c0.07108,0 0.14406,-0.01633 0.21324,0c0.15469,0.03652 0.21324,0.07108 0.28432,0.07108c0.07108,0 0.14757,-0.0272 0.21324,0c0.09287,0.03847 0.28432,0.07108 0.3554,0.07108c0.07108,0 0.14216,0 0.21324,0c0.07108,0 0.1638,-0.10881 0.42648,0c0.09287,0.03847 0.14216,0.07108 0.21324,0.07108c0.07108,0 0.14216,0 0.21324,0c0.07108,0 0.14216,0 0.21324,0c0.21324,0 0.28432,0 0.3554,0c0.07108,0 0.12037,0.03261 0.21324,0.07108c0.06567,0.0272 0.14216,0 0.21324,0c0.07108,0 0.21324,0 0.3554,0c0.07108,0 0.14216,0 0.21324,0c0.07108,0 0.14216,0 0.21324,0c0.21324,0 0.28432,0 0.3554,0c0.07108,0 0.14216,0 0.21324,0c0.07108,0 0.14216,0 0.21324,0c0.21324,0 0.28432,0 0.3554,0c0.07108,0 0.14216,0 0.21324,0c0.07108,0 0.14216,0 0.21324,0c0.07108,0 0.14216,0 0.21324,0c0.07108,0 0.14216,0 0.21324,0c0.07108,0 0.14216,0 0.21324,0c0.07108,0 0.14216,0 0.21324,0c0.07108,0 0.14216,0 0.21324,0c0.07108,0 0.14216,0 0.21324,0c0.07108,0 0.14216,0 0.21324,0c0.07108,0 0.14216,0 0.21324,0c0.07108,0 0.14216,0 0.21324,0l0.07108,0l0.07108,0"></path>
        <path fill="none" stroke="#333333" stroke-width="null" fill-opacity="null" id="svg_22" d="m17.82474,27.81148c0.07108,0 0.14216,0 0.21324,0c0.07108,0 0.42666,-0.064 0.56864,-0.07108c0.71346,-0.03558 0.85353,-0.12939 0.99512,-0.14216c0.79149,-0.07137 1.08299,-0.12445 2.06132,-0.3554c0.21876,-0.05164 1.35052,-0.3554 1.56376,-0.3554c0.21324,0 1.06649,-0.12928 1.35052,-0.14216c0.7843,-0.03558 0.92404,-0.07108 0.99512,-0.07108c0.07108,0 0.13994,-0.03551 0.99512,-0.07108c0.07102,-0.00295 0.12037,-0.03261 0.21324,-0.07108c0.06567,-0.0272 0.21324,0 0.78188,0c0.07108,0 0.0919,-0.02082 0.14216,-0.07108c0.05026,-0.05026 0.13837,-0.03545 0.63972,-0.07108c0.0709,-0.00504 0.14216,-0.07108 0.21324,-0.07108c0.07108,0 0.26253,-0.17477 0.3554,-0.21324c0.06567,-0.0272 0.07649,-0.04388 0.14216,-0.07108c0.09287,-0.03847 0.0919,-0.0919 0.14216,-0.14216c0.05026,-0.05026 0.14216,0 0.14216,-0.07108l0.07108,0l0.07108,-0.07108l0.07108,0"></path>
        <path fill="none" stroke="#333333" stroke-width="null" fill-opacity="null" id="svg_23" d="m7.58922,20.70348c0.07108,0 0.3592,0.1095 0.49756,0.14216c0.15469,0.03652 1.05965,0.46175 1.35052,0.49756c0.14109,0.01737 1.0681,0.19691 1.13728,0.21324c0.15469,0.03652 0.34783,0.14198 1.35052,0.21324c0.0709,0.00504 0.21324,0 0.42648,0c0.07108,0 1.13912,0.04831 1.27944,0.07108c0.22187,0.03601 0.42515,0.10661 1.84808,0.14216c0.07106,0.00178 0.28432,0 0.56864,0c1.35052,0 1.56376,0 1.63484,0c0.28432,0 1.777,0.07108 1.99024,0.07108c0.21324,0 0.35407,-0.03553 1.777,-0.07108c0.07106,-0.00178 0.28469,0.01248 0.49756,0c1.21461,-0.0712 1.42297,-0.18911 1.63484,-0.21324c0.94223,-0.10731 0.98649,-0.24831 1.20836,-0.28432c0.07016,-0.01138 0.56864,-0.21324 0.63972,-0.21324l0.07108,0l0,-0.07108"></path>
        <path fill="none" stroke="#333333" stroke-width="null" fill-opacity="null" id="svg_24" d="m11.07214,14.73276c0.07108,0 0.14757,-0.0272 0.21324,0c0.09287,0.03847 0.28432,0.14216 0.3554,0.14216c0.14216,0 0.63972,0.07108 0.85296,0.07108c0.14216,0 0.92404,0.07108 1.0662,0.07108c0.3554,0 1.20836,0 1.4216,0c0.3554,0 1.49268,0 1.777,0c0.3554,0 1.49268,0 1.70592,0c0.28432,0 1.27944,-0.07108 1.35052,-0.07108c0.21324,0 0.3554,0 1.27944,-0.07108l0.07108,0l0.21324,-0.07108"></path>
        <path fill="none" stroke="#333333" stroke-width="null" fill-opacity="null" id="svg_25" d="m18.74878,10.89444c0.07108,0.07108 0.19145,0.10369 0.28432,0.14216c0.06567,0.0272 0.12037,0.03261 0.21324,0.07108c0.06567,0.0272 0.14269,-0.00869 0.21324,0c0.29087,0.03581 0.3554,0.07108 0.42648,0.07108c0.07108,0 0.14216,0 0.21324,0c0.07108,0 0.14216,0 0.49756,0c0.07108,0 0.12037,-0.03261 0.21324,-0.07108c0.06567,-0.0272 0.11873,-0.10548 0.85296,-0.21324c0.07033,-0.01032 0.14757,-0.04388 0.21324,-0.07108c0.09287,-0.03847 0.12845,-0.08816 0.21324,-0.14216c0.70174,-0.44691 0.8027,-0.30514 0.85296,-0.3554c0.05026,-0.05026 0.14216,-0.07108 0.21324,-0.07108c0.07108,0 0.68901,-0.38801 0.78188,-0.42648c0.06567,-0.0272 0.0919,-0.02082 0.14216,-0.07108c0.05026,-0.05026 0.13169,-0.08338 0.21324,-0.14216c0.25788,-0.18587 0.3554,-0.21324 0.42648,-0.28432l0.07108,0l0.07108,-0.07108"></path>
        <path fill="none" stroke="#333333" stroke-width="null" fill-opacity="null" id="svg_26" d="m23.86654,18.21568c0.07108,-0.07108 0.28432,-0.14216 0.3554,-0.14216c0.07108,0 0.78188,-0.21324 0.85296,-0.21324c0.07108,0 0.92594,-0.26799 0.99512,-0.28432c0.15469,-0.03652 0.24685,-0.28213 1.0662,-0.42648c0.07,-0.01233 0.14216,-0.07108 0.21324,-0.07108l0.63972,-0.3554"></path>
        <path fill="none" stroke="#333333" stroke-width="null" fill-opacity="null" id="svg_27" d="m11.35646,9.47284c0.07108,0.07108 0.14757,0.04388 0.21324,0.07108c0.09287,0.03847 0.12169,0.14085 0.49756,0.21324c0.0698,0.01344 0.14216,0 0.49756,0.07108l0.07108,0.07108l0.07108,0"></path>
        <path fill="none" stroke="#333333" stroke-width="null" fill-opacity="null" id="svg_28" d="m15.19478,19.5662c0.07108,0 0.21324,0 0.28432,0c0.07108,0 0.14216,0 0.21324,0c0.07108,0 0.21324,0 0.28432,0l0.07108,0"></path>
        <path fill="none" stroke="#333333" stroke-width="null" fill-opacity="null" id="svg_29" d="m9.65054,25.53692c0.07108,0 0.12037,0.03261 0.21324,0.07108c0.06567,0.0272 0.1356,0.03527 0.42648,0.07108c0.07055,0.00868 0.1423,0.06666 0.21324,0.07108c0.57196,0.03561 0.71101,0.13674 0.78188,0.14216c0.93219,0.07129 0.98818,0.16805 1.20836,0.21324c0.83844,0.1721 0.99512,0.14216 1.13728,0.14216l0.63972,0.07108l0.14216,0.07108"></path>
    </symbol>
</svg>